M48
;GenerationSoftware,Autodesk,EAGLE,9.5.2*%
;CreationDate,2020-03-25T18:29:47Z*%
FMAT,2
ICI,OFF
METRIC,TZ,000.000
T3C0.508
T2C1.016
T1C1.300
%
G90
M71
T1
X34290Y60960
X39290Y60960
T2
X50800Y24130
X50800Y26670
X50800Y29210
X50800Y31750
X50800Y34290
X50800Y36830
X50800Y41910
X50800Y44450
X50800Y46990
X2540Y36830
X50800Y52070
X50800Y54610
X2540Y54610
X2540Y52070
X2540Y49530
X2540Y46990
X2540Y44450
X2540Y41910
X2540Y39370
X2540Y32766
X2540Y30226
X2540Y27686
X2540Y25146
X2540Y22606
X2540Y20066
X2540Y17526
X2540Y14986
X2540Y12446
X2540Y9906
X50800Y21590
X50800Y19050
X22910Y54750
X22910Y57290
X25450Y54750
X27990Y54750
X25450Y57290
X27990Y57290
X44577Y54610
X44323Y52070
X44577Y49530
X44323Y46990
X44577Y44450
X44323Y41910
X44577Y39370
X44323Y36830
X44577Y34290
X29337Y48260
X29083Y45720
X29337Y43180
X29083Y40640
X29337Y38100
X29083Y35560
X29337Y33020
X29083Y30480
X29337Y27940
X29083Y25400
X29337Y22860
X29083Y20320
X7620Y63627
X7112Y61087
X7620Y58547
X7112Y56007
X7620Y53467
X7112Y50927
X17780Y47752
X18288Y50292
X17780Y52832
X18288Y55372
X17780Y57912
X18288Y60452
X17780Y31242
X18288Y33782
X17780Y36322
X18288Y38862
X17780Y41402
X18288Y43942
X50800Y49530
X18161Y23622
X17907Y21082
X18161Y18542
X17907Y16002
T3
X39290Y58467
M30