G04 EAGLE Gerber RS-274X export*
G75*
%MOMM*%
%FSLAX34Y34*%
%LPD*%
%INSoldermask Bottom*%
%IPPOS*%
%AMOC8*
5,1,8,0,0,1.08239X$1,22.5*%
G01*
%ADD10C,2.082800*%
%ADD11R,2.235200X2.235200*%
%ADD12C,2.235200*%


D10*
X508000Y241300D03*
X508000Y266700D03*
X508000Y292100D03*
X508000Y317500D03*
X508000Y342900D03*
X508000Y368300D03*
X508000Y419100D03*
X508000Y444500D03*
X508000Y469900D03*
X508000Y495300D03*
X508000Y520700D03*
X508000Y546100D03*
X25400Y546100D03*
X25400Y520700D03*
X25400Y495300D03*
X25400Y469900D03*
X25400Y444500D03*
X25400Y419100D03*
X25400Y393700D03*
X25400Y368300D03*
X25400Y327660D03*
X25400Y302260D03*
X25400Y276860D03*
X25400Y251460D03*
X25400Y226060D03*
X25400Y200660D03*
X25400Y175260D03*
X25400Y149860D03*
X25400Y124460D03*
X25400Y99060D03*
X508000Y215900D03*
X508000Y190500D03*
X229100Y547500D03*
X229100Y572900D03*
X254500Y547500D03*
X279900Y547500D03*
X254500Y572900D03*
X279900Y572900D03*
X445770Y546100D03*
X443230Y520700D03*
X445770Y495300D03*
X443230Y469900D03*
X445770Y444500D03*
X443230Y419100D03*
X445770Y393700D03*
X443230Y368300D03*
X445770Y342900D03*
X293370Y482600D03*
X290830Y457200D03*
X293370Y431800D03*
X290830Y406400D03*
X293370Y381000D03*
X290830Y355600D03*
X293370Y330200D03*
X290830Y304800D03*
X293370Y279400D03*
X290830Y254000D03*
X293370Y228600D03*
X290830Y203200D03*
X76200Y636270D03*
X71120Y610870D03*
X76200Y585470D03*
X71120Y560070D03*
X76200Y534670D03*
X71120Y509270D03*
X177800Y477520D03*
X182880Y502920D03*
X177800Y528320D03*
X182880Y553720D03*
X177800Y579120D03*
X182880Y604520D03*
X177800Y312420D03*
X182880Y337820D03*
X177800Y363220D03*
X182880Y388620D03*
X177800Y414020D03*
X182880Y439420D03*
D11*
X342900Y609600D03*
D12*
X392900Y609600D03*
D10*
X181610Y236220D03*
X179070Y210820D03*
X181610Y185420D03*
X179070Y160020D03*
M02*
