G04 EAGLE Gerber RS-274X export*
G75*
%MOMM*%
%FSLAX34Y34*%
%LPD*%
%INTop Copper*%
%IPPOS*%
%AMOC8*
5,1,8,0,0,1.08239X$1,22.5*%
G01*
%ADD10C,1.879600*%
%ADD11R,2.032000X2.032000*%
%ADD12C,2.032000*%
%ADD13C,0.203200*%
%ADD14C,1.016000*%

G36*
X506088Y3823D02*
X506088Y3823D01*
X506175Y3826D01*
X506228Y3843D01*
X506283Y3851D01*
X506362Y3886D01*
X506446Y3913D01*
X506485Y3941D01*
X506542Y3967D01*
X506655Y4063D01*
X506719Y4108D01*
X529292Y26681D01*
X529344Y26751D01*
X529404Y26815D01*
X529430Y26864D01*
X529463Y26908D01*
X529494Y26990D01*
X529534Y27068D01*
X529542Y27115D01*
X529564Y27174D01*
X529576Y27322D01*
X529589Y27399D01*
X529589Y569142D01*
X529577Y569228D01*
X529574Y569316D01*
X529557Y569368D01*
X529549Y569423D01*
X529514Y569503D01*
X529487Y569586D01*
X529459Y569626D01*
X529433Y569683D01*
X529337Y569796D01*
X529335Y569799D01*
X529335Y579120D01*
X529327Y579178D01*
X529329Y579236D01*
X529307Y579318D01*
X529295Y579402D01*
X529272Y579455D01*
X529257Y579511D01*
X529214Y579584D01*
X529179Y579661D01*
X529141Y579706D01*
X529112Y579756D01*
X529050Y579814D01*
X528996Y579878D01*
X528947Y579910D01*
X528904Y579950D01*
X528829Y579989D01*
X528759Y580036D01*
X528703Y580053D01*
X528651Y580080D01*
X528583Y580091D01*
X528488Y580121D01*
X528388Y580124D01*
X528320Y580135D01*
X506316Y580135D01*
X430160Y656292D01*
X430090Y656344D01*
X430026Y656404D01*
X429977Y656430D01*
X429932Y656463D01*
X429851Y656494D01*
X429773Y656534D01*
X429725Y656542D01*
X429667Y656564D01*
X429519Y656576D01*
X429442Y656589D01*
X40099Y656589D01*
X40012Y656577D01*
X39925Y656574D01*
X39872Y656557D01*
X39817Y656549D01*
X39738Y656514D01*
X39654Y656487D01*
X39615Y656459D01*
X39558Y656433D01*
X39445Y656337D01*
X39381Y656292D01*
X4108Y621019D01*
X4056Y620949D01*
X3996Y620885D01*
X3970Y620836D01*
X3937Y620792D01*
X3906Y620710D01*
X3866Y620632D01*
X3858Y620585D01*
X3836Y620526D01*
X3824Y620378D01*
X3811Y620301D01*
X3811Y27399D01*
X3823Y27312D01*
X3826Y27225D01*
X3843Y27172D01*
X3851Y27117D01*
X3886Y27038D01*
X3913Y26954D01*
X3941Y26915D01*
X3967Y26858D01*
X4063Y26745D01*
X4108Y26681D01*
X26681Y4108D01*
X26751Y4056D01*
X26815Y3996D01*
X26864Y3970D01*
X26908Y3937D01*
X26990Y3906D01*
X27068Y3866D01*
X27115Y3858D01*
X27174Y3836D01*
X27322Y3824D01*
X27399Y3811D01*
X506001Y3811D01*
X506088Y3823D01*
G37*
%LPC*%
G36*
X22924Y86613D02*
X22924Y86613D01*
X18349Y88508D01*
X14848Y92009D01*
X12953Y96584D01*
X12953Y101536D01*
X14848Y106111D01*
X18349Y109612D01*
X21271Y110822D01*
X21296Y110837D01*
X21324Y110846D01*
X21419Y110909D01*
X21516Y110967D01*
X21536Y110988D01*
X21561Y111004D01*
X21634Y111091D01*
X21711Y111173D01*
X21725Y111199D01*
X21744Y111222D01*
X21790Y111325D01*
X21841Y111426D01*
X21847Y111455D01*
X21859Y111482D01*
X21875Y111594D01*
X21896Y111705D01*
X21894Y111734D01*
X21898Y111763D01*
X21882Y111875D01*
X21872Y111988D01*
X21861Y112015D01*
X21857Y112045D01*
X21811Y112148D01*
X21770Y112253D01*
X21752Y112277D01*
X21740Y112304D01*
X21667Y112390D01*
X21598Y112480D01*
X21575Y112498D01*
X21556Y112520D01*
X21489Y112562D01*
X21371Y112650D01*
X21312Y112672D01*
X21271Y112698D01*
X18349Y113908D01*
X14848Y117409D01*
X12953Y121984D01*
X12953Y126936D01*
X14848Y131511D01*
X18349Y135012D01*
X21271Y136222D01*
X21296Y136237D01*
X21324Y136246D01*
X21419Y136309D01*
X21516Y136367D01*
X21536Y136388D01*
X21561Y136404D01*
X21634Y136491D01*
X21711Y136573D01*
X21725Y136599D01*
X21744Y136622D01*
X21790Y136725D01*
X21841Y136826D01*
X21847Y136855D01*
X21859Y136882D01*
X21875Y136994D01*
X21896Y137105D01*
X21894Y137134D01*
X21898Y137163D01*
X21882Y137275D01*
X21872Y137388D01*
X21861Y137415D01*
X21857Y137445D01*
X21811Y137548D01*
X21770Y137653D01*
X21752Y137677D01*
X21740Y137704D01*
X21667Y137790D01*
X21598Y137880D01*
X21575Y137898D01*
X21556Y137920D01*
X21489Y137962D01*
X21371Y138050D01*
X21312Y138072D01*
X21271Y138098D01*
X18349Y139308D01*
X14848Y142809D01*
X12953Y147384D01*
X12953Y152336D01*
X14848Y156911D01*
X18349Y160412D01*
X22011Y161929D01*
X22071Y161964D01*
X22135Y161990D01*
X22193Y162036D01*
X22256Y162073D01*
X22304Y162123D01*
X22358Y162166D01*
X22401Y162226D01*
X22451Y162280D01*
X22483Y162341D01*
X22523Y162398D01*
X22548Y162467D01*
X22582Y162533D01*
X22595Y162600D01*
X22618Y162666D01*
X22622Y162739D01*
X22637Y162812D01*
X22631Y162880D01*
X22635Y162949D01*
X22619Y163021D01*
X22612Y163095D01*
X22587Y163159D01*
X22572Y163227D01*
X22537Y163291D01*
X22510Y163360D01*
X22469Y163415D01*
X22435Y163476D01*
X22383Y163528D01*
X22339Y163587D01*
X22283Y163628D01*
X22234Y163677D01*
X22179Y163706D01*
X22111Y163757D01*
X22003Y163798D01*
X21937Y163832D01*
X20817Y164196D01*
X19143Y165049D01*
X17622Y166154D01*
X16294Y167482D01*
X15189Y169003D01*
X14336Y170677D01*
X13755Y172464D01*
X13634Y173229D01*
X24384Y173229D01*
X24442Y173237D01*
X24500Y173235D01*
X24582Y173257D01*
X24665Y173269D01*
X24719Y173293D01*
X24775Y173307D01*
X24848Y173350D01*
X24925Y173385D01*
X24969Y173423D01*
X25020Y173453D01*
X25077Y173514D01*
X25142Y173569D01*
X25174Y173617D01*
X25214Y173660D01*
X25253Y173735D01*
X25299Y173805D01*
X25317Y173861D01*
X25344Y173913D01*
X25355Y173981D01*
X25385Y174076D01*
X25388Y174176D01*
X25399Y174244D01*
X25399Y176276D01*
X25391Y176334D01*
X25392Y176392D01*
X25371Y176474D01*
X25359Y176557D01*
X25335Y176611D01*
X25321Y176667D01*
X25278Y176740D01*
X25243Y176817D01*
X25205Y176862D01*
X25175Y176912D01*
X25114Y176970D01*
X25059Y177034D01*
X25011Y177066D01*
X24968Y177106D01*
X24893Y177145D01*
X24823Y177191D01*
X24767Y177209D01*
X24715Y177236D01*
X24647Y177247D01*
X24552Y177277D01*
X24452Y177280D01*
X24384Y177291D01*
X13634Y177291D01*
X13755Y178056D01*
X14336Y179843D01*
X15189Y181517D01*
X16294Y183038D01*
X17622Y184366D01*
X19143Y185471D01*
X20817Y186324D01*
X21937Y186688D01*
X21999Y186718D01*
X22065Y186739D01*
X22126Y186780D01*
X22192Y186813D01*
X22243Y186859D01*
X22301Y186898D01*
X22348Y186954D01*
X22403Y187003D01*
X22439Y187062D01*
X22484Y187115D01*
X22514Y187183D01*
X22552Y187245D01*
X22571Y187312D01*
X22599Y187375D01*
X22609Y187448D01*
X22629Y187519D01*
X22629Y187588D01*
X22638Y187657D01*
X22628Y187730D01*
X22627Y187803D01*
X22607Y187869D01*
X22597Y187938D01*
X22567Y188005D01*
X22546Y188076D01*
X22509Y188134D01*
X22480Y188197D01*
X22433Y188253D01*
X22393Y188315D01*
X22341Y188361D01*
X22296Y188413D01*
X22243Y188446D01*
X22179Y188503D01*
X22075Y188552D01*
X22011Y188591D01*
X18349Y190108D01*
X14848Y193609D01*
X12953Y198184D01*
X12953Y203136D01*
X14848Y207711D01*
X18349Y211212D01*
X21271Y212422D01*
X21296Y212437D01*
X21324Y212446D01*
X21419Y212509D01*
X21516Y212567D01*
X21536Y212588D01*
X21561Y212604D01*
X21634Y212691D01*
X21711Y212773D01*
X21725Y212799D01*
X21744Y212822D01*
X21790Y212925D01*
X21841Y213026D01*
X21847Y213055D01*
X21859Y213082D01*
X21875Y213194D01*
X21896Y213305D01*
X21894Y213334D01*
X21898Y213363D01*
X21882Y213475D01*
X21872Y213588D01*
X21861Y213615D01*
X21857Y213645D01*
X21811Y213748D01*
X21770Y213853D01*
X21752Y213877D01*
X21740Y213904D01*
X21667Y213990D01*
X21598Y214080D01*
X21575Y214098D01*
X21556Y214120D01*
X21489Y214162D01*
X21371Y214250D01*
X21312Y214272D01*
X21271Y214298D01*
X18349Y215508D01*
X14848Y219009D01*
X12953Y223584D01*
X12953Y228536D01*
X14848Y233111D01*
X18349Y236612D01*
X21271Y237822D01*
X21296Y237837D01*
X21324Y237846D01*
X21419Y237909D01*
X21516Y237967D01*
X21536Y237988D01*
X21561Y238004D01*
X21634Y238091D01*
X21711Y238173D01*
X21725Y238199D01*
X21744Y238222D01*
X21790Y238325D01*
X21841Y238426D01*
X21847Y238455D01*
X21859Y238482D01*
X21875Y238594D01*
X21896Y238705D01*
X21894Y238734D01*
X21898Y238763D01*
X21882Y238875D01*
X21872Y238988D01*
X21861Y239015D01*
X21857Y239045D01*
X21811Y239148D01*
X21770Y239253D01*
X21752Y239277D01*
X21740Y239304D01*
X21667Y239390D01*
X21598Y239480D01*
X21575Y239498D01*
X21556Y239520D01*
X21489Y239562D01*
X21371Y239650D01*
X21312Y239672D01*
X21271Y239698D01*
X18349Y240908D01*
X14848Y244409D01*
X12953Y248984D01*
X12953Y253936D01*
X14848Y258511D01*
X18349Y262012D01*
X21271Y263222D01*
X21296Y263237D01*
X21324Y263246D01*
X21419Y263309D01*
X21516Y263367D01*
X21536Y263388D01*
X21561Y263404D01*
X21634Y263491D01*
X21711Y263573D01*
X21725Y263599D01*
X21744Y263622D01*
X21790Y263725D01*
X21841Y263826D01*
X21847Y263855D01*
X21859Y263882D01*
X21875Y263994D01*
X21896Y264105D01*
X21894Y264134D01*
X21898Y264163D01*
X21882Y264275D01*
X21872Y264388D01*
X21861Y264415D01*
X21857Y264445D01*
X21811Y264548D01*
X21770Y264653D01*
X21752Y264677D01*
X21740Y264704D01*
X21667Y264790D01*
X21598Y264880D01*
X21575Y264898D01*
X21556Y264920D01*
X21489Y264962D01*
X21371Y265050D01*
X21312Y265072D01*
X21271Y265098D01*
X18349Y266308D01*
X14848Y269809D01*
X12953Y274384D01*
X12953Y279336D01*
X14848Y283911D01*
X18349Y287412D01*
X21271Y288622D01*
X21296Y288637D01*
X21324Y288646D01*
X21419Y288709D01*
X21516Y288767D01*
X21536Y288788D01*
X21561Y288804D01*
X21634Y288891D01*
X21711Y288973D01*
X21725Y288999D01*
X21744Y289022D01*
X21790Y289125D01*
X21841Y289226D01*
X21847Y289255D01*
X21859Y289282D01*
X21875Y289394D01*
X21896Y289505D01*
X21894Y289534D01*
X21898Y289563D01*
X21882Y289675D01*
X21872Y289788D01*
X21861Y289815D01*
X21857Y289845D01*
X21811Y289948D01*
X21770Y290053D01*
X21752Y290077D01*
X21740Y290104D01*
X21667Y290190D01*
X21598Y290280D01*
X21575Y290298D01*
X21556Y290320D01*
X21489Y290362D01*
X21371Y290450D01*
X21312Y290472D01*
X21271Y290498D01*
X18349Y291708D01*
X14848Y295209D01*
X12953Y299784D01*
X12953Y304736D01*
X14848Y309311D01*
X18349Y312812D01*
X21271Y314022D01*
X21296Y314037D01*
X21324Y314046D01*
X21419Y314109D01*
X21516Y314167D01*
X21536Y314188D01*
X21561Y314204D01*
X21634Y314291D01*
X21711Y314373D01*
X21725Y314399D01*
X21744Y314422D01*
X21790Y314525D01*
X21841Y314626D01*
X21847Y314655D01*
X21859Y314682D01*
X21875Y314794D01*
X21896Y314905D01*
X21894Y314934D01*
X21898Y314963D01*
X21882Y315075D01*
X21872Y315188D01*
X21861Y315215D01*
X21857Y315245D01*
X21811Y315348D01*
X21770Y315453D01*
X21752Y315477D01*
X21740Y315504D01*
X21667Y315590D01*
X21598Y315680D01*
X21575Y315698D01*
X21556Y315720D01*
X21489Y315762D01*
X21371Y315850D01*
X21312Y315872D01*
X21271Y315898D01*
X18349Y317108D01*
X14848Y320609D01*
X12953Y325184D01*
X12953Y330136D01*
X14848Y334711D01*
X18349Y338212D01*
X22924Y340107D01*
X27876Y340107D01*
X32451Y338212D01*
X35952Y334711D01*
X37847Y330136D01*
X37847Y325184D01*
X36870Y322825D01*
X36869Y322824D01*
X36868Y322822D01*
X36834Y322688D01*
X36799Y322550D01*
X36799Y322548D01*
X36798Y322547D01*
X36803Y322406D01*
X36807Y322266D01*
X36807Y322264D01*
X36807Y322263D01*
X36850Y322130D01*
X36893Y321995D01*
X36894Y321994D01*
X36895Y321992D01*
X36903Y321980D01*
X37052Y321759D01*
X37075Y321739D01*
X37090Y321719D01*
X95607Y263202D01*
X95676Y263149D01*
X95740Y263089D01*
X95790Y263064D01*
X95834Y263031D01*
X95916Y263000D01*
X95993Y262960D01*
X96041Y262952D01*
X96099Y262930D01*
X96247Y262917D01*
X96325Y262904D01*
X262477Y262904D01*
X262478Y262905D01*
X262480Y262904D01*
X262618Y262924D01*
X262758Y262944D01*
X262760Y262945D01*
X262761Y262945D01*
X262888Y263003D01*
X263017Y263061D01*
X263019Y263062D01*
X263020Y263062D01*
X263128Y263154D01*
X263234Y263244D01*
X263235Y263245D01*
X263237Y263247D01*
X263245Y263260D01*
X263346Y263412D01*
X265665Y265731D01*
X268653Y266968D01*
X271887Y266968D01*
X274874Y265731D01*
X277161Y263444D01*
X278277Y260749D01*
X278292Y260724D01*
X278301Y260696D01*
X278364Y260602D01*
X278422Y260504D01*
X278443Y260484D01*
X278460Y260460D01*
X278546Y260387D01*
X278629Y260309D01*
X278655Y260295D01*
X278677Y260277D01*
X278780Y260231D01*
X278881Y260179D01*
X278910Y260173D01*
X278937Y260161D01*
X279049Y260146D01*
X279160Y260124D01*
X279189Y260126D01*
X279218Y260122D01*
X279331Y260138D01*
X279443Y260148D01*
X279471Y260159D01*
X279500Y260163D01*
X279603Y260210D01*
X279709Y260250D01*
X279732Y260268D01*
X279759Y260280D01*
X279845Y260354D01*
X279935Y260422D01*
X279953Y260445D01*
X279975Y260464D01*
X280017Y260531D01*
X280106Y260649D01*
X280128Y260708D01*
X280153Y260749D01*
X280278Y261051D01*
X283779Y264552D01*
X287971Y266288D01*
X287996Y266303D01*
X288024Y266312D01*
X288119Y266375D01*
X288216Y266433D01*
X288236Y266454D01*
X288261Y266470D01*
X288334Y266557D01*
X288411Y266639D01*
X288425Y266665D01*
X288444Y266688D01*
X288490Y266791D01*
X288541Y266892D01*
X288547Y266921D01*
X288559Y266948D01*
X288575Y267060D01*
X288596Y267171D01*
X288594Y267200D01*
X288598Y267229D01*
X288582Y267341D01*
X288572Y267454D01*
X288561Y267482D01*
X288557Y267511D01*
X288511Y267614D01*
X288470Y267719D01*
X288452Y267743D01*
X288440Y267770D01*
X288367Y267856D01*
X288298Y267946D01*
X288275Y267964D01*
X288256Y267986D01*
X288189Y268028D01*
X288071Y268116D01*
X288012Y268138D01*
X287971Y268164D01*
X286319Y268848D01*
X282818Y272349D01*
X280923Y276924D01*
X280923Y281876D01*
X282818Y286451D01*
X286319Y289952D01*
X287971Y290636D01*
X287996Y290651D01*
X288024Y290660D01*
X288119Y290723D01*
X288216Y290780D01*
X288236Y290802D01*
X288261Y290818D01*
X288334Y290905D01*
X288411Y290987D01*
X288425Y291013D01*
X288444Y291036D01*
X288490Y291139D01*
X288541Y291240D01*
X288547Y291269D01*
X288559Y291295D01*
X288575Y291408D01*
X288596Y291519D01*
X288594Y291548D01*
X288598Y291577D01*
X288582Y291689D01*
X288572Y291802D01*
X288561Y291829D01*
X288557Y291858D01*
X288511Y291961D01*
X288470Y292067D01*
X288452Y292091D01*
X288440Y292118D01*
X288367Y292204D01*
X288298Y292294D01*
X288275Y292312D01*
X288256Y292334D01*
X288189Y292376D01*
X288071Y292464D01*
X288012Y292486D01*
X287971Y292512D01*
X283779Y294248D01*
X280278Y297749D01*
X278383Y302324D01*
X278383Y307276D01*
X280278Y311851D01*
X283779Y315352D01*
X287971Y317088D01*
X287996Y317103D01*
X288024Y317112D01*
X288119Y317175D01*
X288216Y317233D01*
X288236Y317254D01*
X288261Y317270D01*
X288333Y317357D01*
X288411Y317439D01*
X288425Y317465D01*
X288444Y317488D01*
X288490Y317591D01*
X288541Y317692D01*
X288547Y317721D01*
X288559Y317748D01*
X288575Y317860D01*
X288596Y317971D01*
X288594Y318000D01*
X288598Y318029D01*
X288582Y318141D01*
X288572Y318254D01*
X288561Y318282D01*
X288557Y318311D01*
X288511Y318414D01*
X288470Y318519D01*
X288452Y318543D01*
X288440Y318570D01*
X288367Y318656D01*
X288298Y318746D01*
X288275Y318764D01*
X288256Y318786D01*
X288189Y318828D01*
X288071Y318916D01*
X288012Y318938D01*
X287971Y318964D01*
X286319Y319648D01*
X282818Y323149D01*
X280923Y327724D01*
X280923Y332676D01*
X282818Y337251D01*
X286319Y340752D01*
X287971Y341436D01*
X287996Y341451D01*
X288024Y341460D01*
X288119Y341523D01*
X288216Y341580D01*
X288236Y341602D01*
X288261Y341618D01*
X288334Y341705D01*
X288411Y341787D01*
X288425Y341813D01*
X288444Y341836D01*
X288490Y341939D01*
X288541Y342040D01*
X288547Y342069D01*
X288559Y342095D01*
X288575Y342208D01*
X288596Y342319D01*
X288594Y342348D01*
X288598Y342377D01*
X288582Y342489D01*
X288572Y342602D01*
X288561Y342629D01*
X288557Y342658D01*
X288511Y342761D01*
X288470Y342867D01*
X288452Y342891D01*
X288440Y342918D01*
X288367Y343004D01*
X288298Y343094D01*
X288275Y343112D01*
X288256Y343134D01*
X288189Y343176D01*
X288071Y343264D01*
X288012Y343286D01*
X287971Y343312D01*
X283779Y345048D01*
X280278Y348549D01*
X278383Y353124D01*
X278383Y358076D01*
X279360Y360435D01*
X279361Y360436D01*
X279362Y360438D01*
X279396Y360572D01*
X279431Y360710D01*
X279431Y360712D01*
X279432Y360713D01*
X279427Y360854D01*
X279423Y360994D01*
X279423Y360996D01*
X279423Y360997D01*
X279379Y361132D01*
X279337Y361265D01*
X279336Y361266D01*
X279335Y361268D01*
X279327Y361280D01*
X279178Y361501D01*
X279155Y361521D01*
X279140Y361541D01*
X276744Y363938D01*
X276674Y363990D01*
X276610Y364050D01*
X276561Y364076D01*
X276516Y364109D01*
X276435Y364140D01*
X276357Y364180D01*
X276309Y364188D01*
X276251Y364210D01*
X276103Y364222D01*
X276026Y364235D01*
X211676Y364235D01*
X180478Y395434D01*
X180408Y395486D01*
X180344Y395546D01*
X180295Y395572D01*
X180251Y395605D01*
X180169Y395636D01*
X180091Y395676D01*
X180043Y395684D01*
X179985Y395706D01*
X179837Y395718D01*
X179760Y395731D01*
X168656Y395731D01*
X168598Y395723D01*
X168540Y395725D01*
X168458Y395703D01*
X168375Y395691D01*
X168321Y395667D01*
X168265Y395653D01*
X168192Y395610D01*
X168115Y395575D01*
X168071Y395537D01*
X168020Y395507D01*
X167963Y395446D01*
X167898Y395391D01*
X167866Y395343D01*
X167826Y395300D01*
X167787Y395225D01*
X167741Y395155D01*
X167723Y395099D01*
X167696Y395047D01*
X167685Y394979D01*
X167655Y394884D01*
X167652Y394784D01*
X167641Y394716D01*
X167641Y393699D01*
X167639Y393699D01*
X167639Y394716D01*
X167632Y394769D01*
X167632Y394798D01*
X167632Y394801D01*
X167632Y394832D01*
X167611Y394914D01*
X167599Y394997D01*
X167575Y395051D01*
X167561Y395107D01*
X167518Y395180D01*
X167483Y395257D01*
X167445Y395302D01*
X167415Y395352D01*
X167354Y395410D01*
X167299Y395474D01*
X167251Y395506D01*
X167208Y395546D01*
X167133Y395585D01*
X167063Y395631D01*
X167007Y395649D01*
X166955Y395676D01*
X166887Y395687D01*
X166792Y395717D01*
X166692Y395720D01*
X166624Y395731D01*
X155874Y395731D01*
X155995Y396496D01*
X156576Y398283D01*
X157429Y399957D01*
X158534Y401478D01*
X159862Y402806D01*
X161383Y403911D01*
X162997Y404733D01*
X163035Y404760D01*
X163077Y404779D01*
X163151Y404841D01*
X163230Y404897D01*
X163259Y404933D01*
X163294Y404963D01*
X163348Y405043D01*
X163408Y405118D01*
X163426Y405161D01*
X163452Y405199D01*
X163481Y405291D01*
X163518Y405380D01*
X163523Y405426D01*
X163537Y405470D01*
X163540Y405567D01*
X163551Y405663D01*
X163544Y405708D01*
X163545Y405754D01*
X163520Y405848D01*
X163504Y405943D01*
X163485Y405985D01*
X163473Y406029D01*
X163424Y406112D01*
X163382Y406200D01*
X163351Y406234D01*
X163328Y406274D01*
X163257Y406340D01*
X163193Y406412D01*
X163154Y406437D01*
X163120Y406468D01*
X163034Y406512D01*
X162953Y406564D01*
X162908Y406577D01*
X162867Y406598D01*
X162793Y406610D01*
X162680Y406643D01*
X162596Y406643D01*
X162536Y406653D01*
X160084Y406653D01*
X155509Y408548D01*
X152008Y412049D01*
X150113Y416624D01*
X150113Y421576D01*
X152008Y426151D01*
X155509Y429652D01*
X160084Y431547D01*
X161283Y431547D01*
X161368Y431559D01*
X161454Y431561D01*
X161508Y431579D01*
X161565Y431587D01*
X161643Y431622D01*
X161725Y431648D01*
X161772Y431680D01*
X161824Y431703D01*
X161890Y431758D01*
X161961Y431806D01*
X161998Y431850D01*
X162041Y431886D01*
X162089Y431958D01*
X162144Y432024D01*
X162167Y432076D01*
X162199Y432123D01*
X162225Y432205D01*
X162259Y432284D01*
X162267Y432340D01*
X162284Y432394D01*
X162287Y432480D01*
X162298Y432565D01*
X162290Y432621D01*
X162292Y432678D01*
X162270Y432761D01*
X162258Y432847D01*
X162234Y432898D01*
X162220Y432953D01*
X162176Y433027D01*
X162141Y433106D01*
X162104Y433149D01*
X162075Y433198D01*
X162012Y433257D01*
X161956Y433322D01*
X161914Y433348D01*
X161867Y433392D01*
X161738Y433458D01*
X161672Y433500D01*
X160589Y433948D01*
X157088Y437449D01*
X155193Y442024D01*
X155193Y446976D01*
X157088Y451551D01*
X160589Y455052D01*
X165164Y456947D01*
X170116Y456947D01*
X174691Y455052D01*
X178192Y451551D01*
X180087Y446976D01*
X180087Y442024D01*
X179110Y439665D01*
X179109Y439664D01*
X179108Y439662D01*
X179072Y439521D01*
X179039Y439390D01*
X179039Y439388D01*
X179038Y439387D01*
X179043Y439246D01*
X179047Y439106D01*
X179047Y439104D01*
X179047Y439103D01*
X179090Y438970D01*
X179133Y438835D01*
X179134Y438834D01*
X179135Y438832D01*
X179143Y438820D01*
X179292Y438599D01*
X179315Y438579D01*
X179330Y438559D01*
X219826Y398062D01*
X219896Y398010D01*
X219960Y397950D01*
X220009Y397924D01*
X220054Y397891D01*
X220135Y397860D01*
X220213Y397820D01*
X220261Y397812D01*
X220319Y397790D01*
X220467Y397778D01*
X220544Y397765D01*
X272818Y397765D01*
X272848Y397769D01*
X272877Y397766D01*
X272988Y397789D01*
X273100Y397805D01*
X273127Y397817D01*
X273155Y397822D01*
X273256Y397875D01*
X273359Y397921D01*
X273382Y397940D01*
X273408Y397953D01*
X273490Y398031D01*
X273576Y398104D01*
X273593Y398129D01*
X273614Y398149D01*
X273671Y398247D01*
X273734Y398341D01*
X273743Y398369D01*
X273758Y398394D01*
X273786Y398504D01*
X273820Y398612D01*
X273821Y398642D01*
X273828Y398670D01*
X273824Y398783D01*
X273827Y398896D01*
X273820Y398925D01*
X273819Y398954D01*
X273784Y399062D01*
X273755Y399171D01*
X273740Y399197D01*
X273731Y399225D01*
X273686Y399288D01*
X273610Y399416D01*
X273564Y399459D01*
X273536Y399498D01*
X271239Y401795D01*
X270001Y404783D01*
X270001Y408070D01*
X270036Y408205D01*
X270036Y408207D01*
X270037Y408208D01*
X270032Y408349D01*
X270028Y408489D01*
X270028Y408491D01*
X270028Y408493D01*
X269985Y408625D01*
X269941Y408760D01*
X269941Y408762D01*
X269940Y408763D01*
X269931Y408775D01*
X269783Y408996D01*
X269760Y409016D01*
X269745Y409036D01*
X196595Y482186D01*
X196595Y556696D01*
X196583Y556782D01*
X196580Y556870D01*
X196563Y556922D01*
X196555Y556977D01*
X196520Y557057D01*
X196493Y557140D01*
X196465Y557180D01*
X196439Y557237D01*
X196343Y557350D01*
X196298Y557414D01*
X193178Y560534D01*
X193108Y560586D01*
X193044Y560646D01*
X192995Y560672D01*
X192951Y560705D01*
X192869Y560736D01*
X192791Y560776D01*
X192743Y560784D01*
X192685Y560806D01*
X192537Y560818D01*
X192460Y560831D01*
X181356Y560831D01*
X181298Y560823D01*
X181240Y560825D01*
X181158Y560803D01*
X181075Y560791D01*
X181021Y560767D01*
X180965Y560753D01*
X180892Y560710D01*
X180815Y560675D01*
X180771Y560637D01*
X180720Y560607D01*
X180663Y560546D01*
X180598Y560491D01*
X180566Y560443D01*
X180526Y560400D01*
X180487Y560325D01*
X180441Y560255D01*
X180423Y560199D01*
X180396Y560147D01*
X180385Y560079D01*
X180355Y559984D01*
X180352Y559884D01*
X180341Y559816D01*
X180341Y558799D01*
X180339Y558799D01*
X180339Y559816D01*
X180331Y559874D01*
X180332Y559932D01*
X180311Y560014D01*
X180299Y560097D01*
X180275Y560151D01*
X180261Y560207D01*
X180218Y560280D01*
X180183Y560357D01*
X180145Y560402D01*
X180115Y560452D01*
X180054Y560510D01*
X179999Y560574D01*
X179951Y560606D01*
X179908Y560646D01*
X179833Y560685D01*
X179763Y560731D01*
X179707Y560749D01*
X179655Y560776D01*
X179587Y560787D01*
X179492Y560817D01*
X179392Y560820D01*
X179324Y560831D01*
X168574Y560831D01*
X168695Y561596D01*
X169276Y563383D01*
X170129Y565057D01*
X171234Y566578D01*
X172562Y567906D01*
X174083Y569011D01*
X175697Y569833D01*
X175735Y569860D01*
X175777Y569879D01*
X175851Y569941D01*
X175930Y569997D01*
X175959Y570033D01*
X175994Y570063D01*
X176047Y570143D01*
X176108Y570218D01*
X176126Y570261D01*
X176152Y570299D01*
X176181Y570391D01*
X176218Y570480D01*
X176223Y570526D01*
X176237Y570570D01*
X176240Y570667D01*
X176251Y570763D01*
X176243Y570808D01*
X176245Y570854D01*
X176220Y570948D01*
X176204Y571043D01*
X176185Y571085D01*
X176173Y571129D01*
X176124Y571212D01*
X176082Y571300D01*
X176051Y571334D01*
X176028Y571374D01*
X175957Y571440D01*
X175893Y571512D01*
X175854Y571537D01*
X175820Y571568D01*
X175734Y571612D01*
X175653Y571664D01*
X175608Y571677D01*
X175567Y571698D01*
X175493Y571710D01*
X175380Y571743D01*
X175296Y571743D01*
X175236Y571753D01*
X172784Y571753D01*
X168209Y573648D01*
X164708Y577149D01*
X162813Y581724D01*
X162813Y586676D01*
X164708Y591251D01*
X168209Y594752D01*
X172784Y596647D01*
X173983Y596647D01*
X174068Y596659D01*
X174154Y596661D01*
X174208Y596679D01*
X174265Y596687D01*
X174343Y596722D01*
X174425Y596748D01*
X174472Y596780D01*
X174524Y596803D01*
X174590Y596858D01*
X174661Y596906D01*
X174698Y596950D01*
X174741Y596986D01*
X174789Y597058D01*
X174844Y597124D01*
X174867Y597176D01*
X174899Y597223D01*
X174925Y597305D01*
X174959Y597384D01*
X174967Y597440D01*
X174984Y597494D01*
X174987Y597580D01*
X174998Y597665D01*
X174990Y597721D01*
X174992Y597778D01*
X174970Y597861D01*
X174958Y597947D01*
X174934Y597998D01*
X174920Y598053D01*
X174876Y598127D01*
X174841Y598206D01*
X174804Y598249D01*
X174775Y598298D01*
X174712Y598357D01*
X174656Y598422D01*
X174614Y598448D01*
X174567Y598492D01*
X174438Y598558D01*
X174372Y598600D01*
X173289Y599048D01*
X169788Y602549D01*
X167893Y607124D01*
X167893Y612076D01*
X169788Y616651D01*
X173289Y620152D01*
X177864Y622047D01*
X182816Y622047D01*
X187391Y620152D01*
X190892Y616651D01*
X192787Y612076D01*
X192787Y607124D01*
X191810Y604765D01*
X191809Y604764D01*
X191808Y604762D01*
X191774Y604628D01*
X191739Y604490D01*
X191739Y604488D01*
X191738Y604487D01*
X191743Y604346D01*
X191747Y604206D01*
X191747Y604204D01*
X191747Y604203D01*
X191790Y604070D01*
X191833Y603935D01*
X191834Y603934D01*
X191835Y603932D01*
X191843Y603920D01*
X191992Y603699D01*
X192015Y603679D01*
X192030Y603659D01*
X209805Y585884D01*
X209805Y508834D01*
X209817Y508748D01*
X209820Y508660D01*
X209837Y508608D01*
X209845Y508553D01*
X209880Y508473D01*
X209907Y508390D01*
X209935Y508350D01*
X209961Y508293D01*
X210057Y508180D01*
X210102Y508116D01*
X278034Y440185D01*
X278035Y440184D01*
X278036Y440182D01*
X278155Y440093D01*
X278261Y440014D01*
X278262Y440013D01*
X278264Y440012D01*
X278395Y439963D01*
X278526Y439913D01*
X278528Y439913D01*
X278530Y439912D01*
X278672Y439901D01*
X278810Y439889D01*
X278811Y439889D01*
X278813Y439889D01*
X278829Y439893D01*
X279007Y439929D01*
X282287Y439929D01*
X282798Y439717D01*
X282800Y439717D01*
X282801Y439716D01*
X282934Y439682D01*
X283074Y439646D01*
X283075Y439646D01*
X283077Y439646D01*
X283217Y439650D01*
X283358Y439654D01*
X283359Y439655D01*
X283361Y439655D01*
X283495Y439698D01*
X283628Y439741D01*
X283630Y439742D01*
X283631Y439742D01*
X283644Y439751D01*
X283865Y439899D01*
X283884Y439923D01*
X283905Y439937D01*
X286319Y442352D01*
X287971Y443036D01*
X287996Y443051D01*
X288024Y443060D01*
X288119Y443123D01*
X288216Y443180D01*
X288236Y443202D01*
X288261Y443218D01*
X288334Y443305D01*
X288411Y443387D01*
X288425Y443413D01*
X288444Y443436D01*
X288490Y443539D01*
X288541Y443640D01*
X288547Y443669D01*
X288559Y443695D01*
X288575Y443808D01*
X288596Y443919D01*
X288594Y443948D01*
X288598Y443977D01*
X288582Y444089D01*
X288572Y444202D01*
X288561Y444229D01*
X288557Y444258D01*
X288511Y444361D01*
X288470Y444467D01*
X288452Y444491D01*
X288440Y444518D01*
X288367Y444604D01*
X288298Y444694D01*
X288275Y444712D01*
X288256Y444734D01*
X288189Y444776D01*
X288071Y444864D01*
X288012Y444886D01*
X287971Y444912D01*
X283779Y446648D01*
X281654Y448774D01*
X281584Y448826D01*
X281520Y448886D01*
X281471Y448912D01*
X281427Y448945D01*
X281345Y448976D01*
X281267Y449016D01*
X281219Y449024D01*
X281161Y449046D01*
X281013Y449058D01*
X280936Y449071D01*
X279053Y449071D01*
X276065Y450309D01*
X273779Y452595D01*
X272541Y455583D01*
X272541Y458870D01*
X272576Y459005D01*
X272576Y459007D01*
X272577Y459008D01*
X272572Y459147D01*
X272568Y459289D01*
X272568Y459291D01*
X272568Y459293D01*
X272525Y459424D01*
X272482Y459560D01*
X272481Y459561D01*
X272480Y459563D01*
X272471Y459576D01*
X272323Y459796D01*
X272300Y459816D01*
X272285Y459836D01*
X263905Y468216D01*
X263905Y494252D01*
X338784Y569131D01*
X338836Y569201D01*
X338896Y569265D01*
X338922Y569314D01*
X338955Y569358D01*
X338986Y569440D01*
X339026Y569518D01*
X339034Y569565D01*
X339056Y569624D01*
X339068Y569772D01*
X339081Y569849D01*
X339081Y595376D01*
X339073Y595434D01*
X339075Y595492D01*
X339053Y595574D01*
X339042Y595658D01*
X339018Y595711D01*
X339003Y595767D01*
X338960Y595840D01*
X338925Y595917D01*
X338888Y595962D01*
X338858Y596012D01*
X338796Y596070D01*
X338742Y596134D01*
X338693Y596166D01*
X338650Y596206D01*
X338575Y596245D01*
X338505Y596292D01*
X338449Y596309D01*
X338397Y596336D01*
X338329Y596347D01*
X338234Y596377D01*
X338134Y596380D01*
X338066Y596391D01*
X331477Y596391D01*
X329691Y598177D01*
X329691Y621023D01*
X331477Y622809D01*
X354323Y622809D01*
X356109Y621023D01*
X356109Y598177D01*
X354323Y596391D01*
X348226Y596391D01*
X348168Y596383D01*
X348110Y596385D01*
X348028Y596363D01*
X347945Y596351D01*
X347891Y596328D01*
X347835Y596313D01*
X347762Y596270D01*
X347685Y596235D01*
X347641Y596197D01*
X347590Y596168D01*
X347533Y596106D01*
X347468Y596052D01*
X347436Y596003D01*
X347396Y595960D01*
X347357Y595885D01*
X347311Y595815D01*
X347293Y595759D01*
X347266Y595707D01*
X347255Y595639D01*
X347225Y595544D01*
X347222Y595444D01*
X347211Y595376D01*
X347211Y566061D01*
X272332Y491182D01*
X272280Y491113D01*
X272220Y491049D01*
X272194Y490999D01*
X272161Y490955D01*
X272130Y490873D01*
X272090Y490795D01*
X272082Y490748D01*
X272060Y490689D01*
X272048Y490542D01*
X272035Y490464D01*
X272035Y472004D01*
X272047Y471918D01*
X272050Y471830D01*
X272067Y471778D01*
X272075Y471723D01*
X272110Y471643D01*
X272137Y471560D01*
X272165Y471520D01*
X272191Y471463D01*
X272287Y471350D01*
X272332Y471286D01*
X278034Y465585D01*
X278035Y465584D01*
X278036Y465582D01*
X278148Y465499D01*
X278261Y465414D01*
X278262Y465413D01*
X278264Y465412D01*
X278394Y465363D01*
X278526Y465313D01*
X278528Y465313D01*
X278530Y465312D01*
X278672Y465301D01*
X278810Y465289D01*
X278811Y465289D01*
X278813Y465289D01*
X278829Y465293D01*
X279007Y465329D01*
X280936Y465329D01*
X281022Y465341D01*
X281110Y465344D01*
X281163Y465361D01*
X281217Y465369D01*
X281297Y465404D01*
X281380Y465431D01*
X281420Y465459D01*
X281477Y465485D01*
X281590Y465581D01*
X281654Y465626D01*
X283779Y467752D01*
X287971Y469488D01*
X287996Y469503D01*
X288024Y469512D01*
X288119Y469575D01*
X288216Y469633D01*
X288236Y469654D01*
X288261Y469670D01*
X288333Y469757D01*
X288411Y469839D01*
X288425Y469865D01*
X288444Y469888D01*
X288490Y469991D01*
X288541Y470092D01*
X288547Y470121D01*
X288559Y470148D01*
X288575Y470260D01*
X288596Y470371D01*
X288594Y470400D01*
X288598Y470429D01*
X288582Y470541D01*
X288572Y470654D01*
X288561Y470682D01*
X288557Y470711D01*
X288511Y470814D01*
X288470Y470919D01*
X288452Y470943D01*
X288440Y470970D01*
X288367Y471056D01*
X288298Y471146D01*
X288275Y471164D01*
X288256Y471186D01*
X288189Y471228D01*
X288071Y471316D01*
X288012Y471338D01*
X287971Y471364D01*
X286319Y472048D01*
X282818Y475549D01*
X280923Y480124D01*
X280923Y485076D01*
X282818Y489651D01*
X286319Y493152D01*
X290894Y495047D01*
X295846Y495047D01*
X300421Y493152D01*
X303922Y489651D01*
X305817Y485076D01*
X305817Y480124D01*
X303922Y475549D01*
X300421Y472048D01*
X296229Y470312D01*
X296204Y470297D01*
X296176Y470288D01*
X296081Y470225D01*
X295984Y470167D01*
X295964Y470146D01*
X295939Y470130D01*
X295867Y470043D01*
X295789Y469961D01*
X295775Y469935D01*
X295756Y469912D01*
X295710Y469809D01*
X295659Y469708D01*
X295653Y469679D01*
X295641Y469652D01*
X295625Y469540D01*
X295604Y469429D01*
X295606Y469400D01*
X295602Y469371D01*
X295618Y469259D01*
X295628Y469146D01*
X295639Y469118D01*
X295643Y469089D01*
X295689Y468986D01*
X295730Y468881D01*
X295748Y468857D01*
X295760Y468830D01*
X295833Y468744D01*
X295902Y468654D01*
X295925Y468636D01*
X295944Y468614D01*
X296011Y468572D01*
X296129Y468484D01*
X296188Y468462D01*
X296229Y468436D01*
X297881Y467752D01*
X301382Y464251D01*
X303277Y459676D01*
X303277Y454724D01*
X301382Y450149D01*
X297881Y446648D01*
X296229Y445964D01*
X296204Y445949D01*
X296176Y445940D01*
X296081Y445877D01*
X295984Y445820D01*
X295964Y445798D01*
X295939Y445782D01*
X295866Y445695D01*
X295789Y445613D01*
X295775Y445587D01*
X295756Y445564D01*
X295710Y445461D01*
X295659Y445360D01*
X295653Y445331D01*
X295641Y445305D01*
X295625Y445192D01*
X295604Y445081D01*
X295606Y445052D01*
X295602Y445023D01*
X295618Y444911D01*
X295628Y444798D01*
X295639Y444771D01*
X295643Y444742D01*
X295689Y444639D01*
X295730Y444533D01*
X295748Y444509D01*
X295760Y444482D01*
X295833Y444396D01*
X295902Y444306D01*
X295925Y444288D01*
X295944Y444266D01*
X296011Y444224D01*
X296129Y444136D01*
X296188Y444114D01*
X296229Y444088D01*
X300421Y442352D01*
X303922Y438851D01*
X305817Y434276D01*
X305817Y429324D01*
X303922Y424749D01*
X300421Y421248D01*
X296229Y419512D01*
X296204Y419497D01*
X296176Y419488D01*
X296081Y419425D01*
X295984Y419367D01*
X295964Y419346D01*
X295939Y419330D01*
X295867Y419243D01*
X295789Y419161D01*
X295775Y419135D01*
X295756Y419112D01*
X295710Y419009D01*
X295659Y418908D01*
X295653Y418879D01*
X295641Y418852D01*
X295625Y418740D01*
X295604Y418629D01*
X295606Y418600D01*
X295602Y418571D01*
X295618Y418459D01*
X295628Y418346D01*
X295639Y418318D01*
X295643Y418289D01*
X295689Y418186D01*
X295730Y418081D01*
X295748Y418057D01*
X295760Y418030D01*
X295833Y417944D01*
X295902Y417854D01*
X295925Y417836D01*
X295944Y417814D01*
X296011Y417772D01*
X296129Y417684D01*
X296188Y417662D01*
X296229Y417636D01*
X297881Y416952D01*
X301382Y413451D01*
X303277Y408876D01*
X303277Y403924D01*
X301382Y399349D01*
X297881Y395848D01*
X296229Y395164D01*
X296204Y395149D01*
X296176Y395140D01*
X296081Y395077D01*
X295984Y395020D01*
X295964Y394998D01*
X295939Y394982D01*
X295866Y394895D01*
X295789Y394813D01*
X295775Y394787D01*
X295756Y394764D01*
X295710Y394661D01*
X295659Y394560D01*
X295653Y394531D01*
X295641Y394505D01*
X295625Y394392D01*
X295604Y394281D01*
X295606Y394252D01*
X295602Y394223D01*
X295618Y394111D01*
X295628Y393998D01*
X295639Y393971D01*
X295643Y393942D01*
X295689Y393838D01*
X295730Y393733D01*
X295748Y393709D01*
X295760Y393682D01*
X295833Y393596D01*
X295902Y393506D01*
X295925Y393488D01*
X295944Y393466D01*
X296011Y393424D01*
X296129Y393336D01*
X296188Y393314D01*
X296229Y393288D01*
X300421Y391552D01*
X303922Y388051D01*
X305817Y383476D01*
X305817Y378524D01*
X303922Y373949D01*
X300421Y370448D01*
X296229Y368712D01*
X296204Y368697D01*
X296176Y368688D01*
X296081Y368625D01*
X295984Y368567D01*
X295964Y368546D01*
X295939Y368530D01*
X295867Y368443D01*
X295789Y368361D01*
X295775Y368335D01*
X295756Y368312D01*
X295710Y368209D01*
X295659Y368108D01*
X295653Y368079D01*
X295641Y368052D01*
X295625Y367940D01*
X295604Y367829D01*
X295606Y367800D01*
X295602Y367771D01*
X295618Y367659D01*
X295628Y367546D01*
X295639Y367518D01*
X295643Y367489D01*
X295689Y367386D01*
X295730Y367281D01*
X295748Y367257D01*
X295760Y367230D01*
X295833Y367144D01*
X295902Y367054D01*
X295925Y367036D01*
X295944Y367014D01*
X296011Y366972D01*
X296129Y366884D01*
X296188Y366862D01*
X296229Y366836D01*
X297881Y366152D01*
X301382Y362651D01*
X303277Y358076D01*
X303277Y353124D01*
X301382Y348549D01*
X297881Y345048D01*
X296229Y344364D01*
X296204Y344349D01*
X296176Y344340D01*
X296081Y344277D01*
X295984Y344220D01*
X295964Y344198D01*
X295939Y344182D01*
X295866Y344095D01*
X295789Y344013D01*
X295775Y343987D01*
X295756Y343964D01*
X295710Y343861D01*
X295659Y343760D01*
X295653Y343731D01*
X295641Y343705D01*
X295625Y343592D01*
X295604Y343481D01*
X295606Y343452D01*
X295602Y343423D01*
X295618Y343311D01*
X295628Y343198D01*
X295639Y343171D01*
X295643Y343142D01*
X295689Y343038D01*
X295730Y342933D01*
X295748Y342909D01*
X295760Y342882D01*
X295833Y342796D01*
X295902Y342706D01*
X295925Y342688D01*
X295944Y342666D01*
X296011Y342624D01*
X296129Y342536D01*
X296188Y342514D01*
X296229Y342488D01*
X300421Y340752D01*
X303922Y337251D01*
X305817Y332676D01*
X305817Y327724D01*
X303922Y323149D01*
X300421Y319648D01*
X296229Y317912D01*
X296204Y317897D01*
X296176Y317888D01*
X296081Y317825D01*
X295984Y317767D01*
X295964Y317746D01*
X295939Y317730D01*
X295867Y317643D01*
X295789Y317561D01*
X295775Y317535D01*
X295756Y317512D01*
X295710Y317409D01*
X295659Y317308D01*
X295653Y317279D01*
X295641Y317252D01*
X295625Y317140D01*
X295604Y317029D01*
X295606Y317000D01*
X295602Y316971D01*
X295618Y316859D01*
X295628Y316746D01*
X295639Y316718D01*
X295643Y316689D01*
X295689Y316586D01*
X295730Y316481D01*
X295748Y316457D01*
X295760Y316430D01*
X295833Y316344D01*
X295902Y316254D01*
X295925Y316236D01*
X295944Y316214D01*
X296011Y316172D01*
X296129Y316084D01*
X296188Y316062D01*
X296229Y316036D01*
X297881Y315352D01*
X301382Y311851D01*
X303277Y307276D01*
X303277Y302324D01*
X301382Y297749D01*
X297881Y294248D01*
X296229Y293564D01*
X296204Y293549D01*
X296176Y293540D01*
X296081Y293477D01*
X295984Y293420D01*
X295964Y293398D01*
X295939Y293382D01*
X295866Y293295D01*
X295789Y293213D01*
X295775Y293187D01*
X295756Y293164D01*
X295710Y293061D01*
X295659Y292960D01*
X295653Y292931D01*
X295641Y292905D01*
X295625Y292792D01*
X295604Y292681D01*
X295606Y292652D01*
X295602Y292623D01*
X295618Y292511D01*
X295628Y292398D01*
X295639Y292371D01*
X295643Y292342D01*
X295689Y292239D01*
X295730Y292133D01*
X295748Y292109D01*
X295760Y292082D01*
X295833Y291996D01*
X295902Y291906D01*
X295925Y291888D01*
X295944Y291866D01*
X296011Y291824D01*
X296129Y291736D01*
X296188Y291714D01*
X296229Y291688D01*
X300421Y289952D01*
X303922Y286451D01*
X305817Y281876D01*
X305817Y276924D01*
X303922Y272349D01*
X300421Y268848D01*
X296229Y267112D01*
X296204Y267097D01*
X296176Y267088D01*
X296081Y267025D01*
X295984Y266967D01*
X295964Y266946D01*
X295939Y266930D01*
X295866Y266843D01*
X295789Y266761D01*
X295775Y266735D01*
X295756Y266712D01*
X295710Y266609D01*
X295659Y266508D01*
X295653Y266479D01*
X295641Y266452D01*
X295625Y266340D01*
X295604Y266229D01*
X295606Y266200D01*
X295602Y266171D01*
X295618Y266059D01*
X295628Y265946D01*
X295639Y265918D01*
X295643Y265889D01*
X295689Y265786D01*
X295730Y265681D01*
X295748Y265657D01*
X295760Y265630D01*
X295833Y265544D01*
X295902Y265454D01*
X295925Y265436D01*
X295944Y265414D01*
X296011Y265372D01*
X296129Y265284D01*
X296188Y265262D01*
X296229Y265236D01*
X297881Y264552D01*
X301382Y261051D01*
X303277Y256476D01*
X303277Y251524D01*
X301382Y246949D01*
X297881Y243448D01*
X296229Y242764D01*
X296204Y242749D01*
X296176Y242740D01*
X296081Y242677D01*
X295984Y242620D01*
X295964Y242598D01*
X295939Y242582D01*
X295866Y242495D01*
X295789Y242413D01*
X295775Y242387D01*
X295756Y242364D01*
X295710Y242261D01*
X295659Y242160D01*
X295653Y242131D01*
X295641Y242105D01*
X295625Y241992D01*
X295604Y241881D01*
X295606Y241852D01*
X295602Y241823D01*
X295618Y241711D01*
X295628Y241598D01*
X295639Y241571D01*
X295643Y241542D01*
X295689Y241439D01*
X295730Y241333D01*
X295748Y241309D01*
X295760Y241282D01*
X295833Y241196D01*
X295902Y241106D01*
X295925Y241088D01*
X295944Y241066D01*
X296011Y241025D01*
X296129Y240936D01*
X296188Y240914D01*
X296229Y240888D01*
X300421Y239152D01*
X303922Y235651D01*
X305817Y231076D01*
X305817Y226124D01*
X303922Y221549D01*
X300421Y218048D01*
X295828Y216146D01*
X295748Y216127D01*
X295652Y216113D01*
X295610Y216095D01*
X295565Y216084D01*
X295481Y216037D01*
X295393Y215997D01*
X295358Y215967D01*
X295317Y215945D01*
X295250Y215876D01*
X295176Y215814D01*
X295150Y215775D01*
X295118Y215742D01*
X295072Y215657D01*
X295018Y215577D01*
X295004Y215533D01*
X294982Y215492D01*
X294962Y215398D01*
X294933Y215306D01*
X294931Y215260D01*
X294921Y215215D01*
X294928Y215118D01*
X294925Y215022D01*
X294937Y214977D01*
X294940Y214931D01*
X294973Y214840D01*
X294997Y214747D01*
X295021Y214707D01*
X295036Y214663D01*
X295093Y214585D01*
X295142Y214502D01*
X295176Y214471D01*
X295203Y214433D01*
X295264Y214388D01*
X295350Y214308D01*
X295424Y214270D01*
X295473Y214233D01*
X297087Y213411D01*
X298608Y212306D01*
X299936Y210978D01*
X301041Y209457D01*
X301894Y207783D01*
X302475Y205996D01*
X302596Y205231D01*
X291846Y205231D01*
X291788Y205223D01*
X291730Y205225D01*
X291648Y205203D01*
X291565Y205191D01*
X291511Y205167D01*
X291455Y205153D01*
X291382Y205110D01*
X291305Y205075D01*
X291261Y205037D01*
X291210Y205007D01*
X291153Y204946D01*
X291088Y204891D01*
X291056Y204843D01*
X291016Y204800D01*
X290977Y204725D01*
X290931Y204655D01*
X290913Y204599D01*
X290886Y204547D01*
X290875Y204479D01*
X290845Y204384D01*
X290842Y204284D01*
X290831Y204216D01*
X290831Y203199D01*
X290829Y203199D01*
X290829Y204216D01*
X290821Y204274D01*
X290822Y204332D01*
X290801Y204414D01*
X290789Y204497D01*
X290765Y204551D01*
X290751Y204607D01*
X290708Y204680D01*
X290673Y204757D01*
X290635Y204802D01*
X290605Y204852D01*
X290544Y204910D01*
X290489Y204974D01*
X290441Y205006D01*
X290398Y205046D01*
X290323Y205085D01*
X290253Y205131D01*
X290197Y205149D01*
X290145Y205176D01*
X290077Y205187D01*
X289982Y205217D01*
X289882Y205220D01*
X289814Y205231D01*
X279064Y205231D01*
X279185Y205996D01*
X279766Y207783D01*
X280619Y209457D01*
X281724Y210978D01*
X283052Y212306D01*
X284573Y213411D01*
X286247Y214264D01*
X288034Y214845D01*
X288833Y214971D01*
X288839Y214973D01*
X288845Y214973D01*
X288975Y215015D01*
X289105Y215055D01*
X289110Y215058D01*
X289116Y215060D01*
X289229Y215136D01*
X289343Y215210D01*
X289347Y215215D01*
X289352Y215218D01*
X289440Y215323D01*
X289528Y215425D01*
X289531Y215431D01*
X289535Y215436D01*
X289590Y215559D01*
X289647Y215684D01*
X289648Y215690D01*
X289650Y215696D01*
X289669Y215830D01*
X289689Y215965D01*
X289688Y215971D01*
X289689Y215977D01*
X289670Y216110D01*
X289652Y216247D01*
X289650Y216252D01*
X289649Y216258D01*
X289593Y216382D01*
X289538Y216507D01*
X289534Y216512D01*
X289532Y216518D01*
X289443Y216621D01*
X289356Y216726D01*
X289351Y216729D01*
X289347Y216734D01*
X289310Y216757D01*
X289121Y216885D01*
X289087Y216897D01*
X289063Y216912D01*
X286319Y218048D01*
X282818Y221549D01*
X280923Y226124D01*
X280923Y231076D01*
X281210Y231767D01*
X281238Y231879D01*
X281273Y231988D01*
X281274Y232016D01*
X281281Y232043D01*
X281277Y232157D01*
X281280Y232272D01*
X281273Y232299D01*
X281273Y232327D01*
X281238Y232436D01*
X281209Y232547D01*
X281194Y232571D01*
X281186Y232598D01*
X281122Y232693D01*
X281063Y232792D01*
X281043Y232811D01*
X281028Y232834D01*
X280940Y232908D01*
X280856Y232986D01*
X280831Y232999D01*
X280810Y233017D01*
X280705Y233064D01*
X280603Y233116D01*
X280578Y233120D01*
X280550Y233132D01*
X280287Y233169D01*
X280272Y233171D01*
X279053Y233171D01*
X276065Y234409D01*
X273742Y236733D01*
X273670Y236853D01*
X273669Y236854D01*
X273668Y236856D01*
X273566Y236951D01*
X273464Y237048D01*
X273462Y237049D01*
X273461Y237050D01*
X273336Y237114D01*
X273211Y237179D01*
X273209Y237179D01*
X273208Y237180D01*
X273193Y237182D01*
X272932Y237234D01*
X272901Y237231D01*
X272877Y237235D01*
X84676Y237235D01*
X81998Y239914D01*
X38112Y283800D01*
X38043Y283851D01*
X37981Y283910D01*
X37930Y283936D01*
X37885Y283971D01*
X37804Y284001D01*
X37728Y284041D01*
X37672Y284052D01*
X37619Y284072D01*
X37533Y284079D01*
X37449Y284096D01*
X37392Y284091D01*
X37336Y284095D01*
X37251Y284079D01*
X37166Y284071D01*
X37113Y284051D01*
X37057Y284040D01*
X36981Y284000D01*
X36901Y283969D01*
X36855Y283935D01*
X36805Y283909D01*
X36742Y283849D01*
X36674Y283798D01*
X36640Y283752D01*
X36599Y283713D01*
X36555Y283639D01*
X36504Y283570D01*
X36484Y283517D01*
X36455Y283468D01*
X36434Y283384D01*
X36403Y283304D01*
X36399Y283247D01*
X36385Y283192D01*
X36387Y283106D01*
X36381Y283020D01*
X36392Y282972D01*
X36394Y282908D01*
X36438Y282770D01*
X36456Y282693D01*
X37847Y279336D01*
X37847Y274384D01*
X35952Y269809D01*
X32451Y266308D01*
X29529Y265098D01*
X29504Y265083D01*
X29476Y265074D01*
X29381Y265011D01*
X29284Y264953D01*
X29264Y264932D01*
X29239Y264916D01*
X29167Y264829D01*
X29089Y264747D01*
X29075Y264721D01*
X29057Y264698D01*
X29011Y264595D01*
X28959Y264494D01*
X28953Y264465D01*
X28941Y264438D01*
X28925Y264326D01*
X28904Y264215D01*
X28906Y264186D01*
X28902Y264157D01*
X28918Y264045D01*
X28928Y263932D01*
X28939Y263905D01*
X28943Y263876D01*
X28989Y263772D01*
X29030Y263667D01*
X29048Y263643D01*
X29060Y263616D01*
X29133Y263530D01*
X29202Y263440D01*
X29225Y263422D01*
X29244Y263400D01*
X29311Y263358D01*
X29429Y263270D01*
X29488Y263248D01*
X29529Y263222D01*
X32451Y262012D01*
X35952Y258511D01*
X37847Y253936D01*
X37847Y248984D01*
X35952Y244409D01*
X32451Y240908D01*
X29529Y239698D01*
X29504Y239683D01*
X29476Y239674D01*
X29381Y239611D01*
X29284Y239553D01*
X29264Y239532D01*
X29239Y239516D01*
X29167Y239429D01*
X29089Y239347D01*
X29075Y239321D01*
X29057Y239298D01*
X29011Y239195D01*
X28959Y239094D01*
X28953Y239065D01*
X28941Y239038D01*
X28925Y238926D01*
X28904Y238815D01*
X28906Y238786D01*
X28902Y238757D01*
X28918Y238645D01*
X28928Y238532D01*
X28939Y238505D01*
X28943Y238476D01*
X28989Y238372D01*
X29030Y238267D01*
X29048Y238243D01*
X29060Y238216D01*
X29133Y238130D01*
X29202Y238040D01*
X29225Y238022D01*
X29244Y238000D01*
X29311Y237958D01*
X29429Y237870D01*
X29488Y237848D01*
X29529Y237822D01*
X32451Y236612D01*
X35952Y233111D01*
X37847Y228536D01*
X37847Y223584D01*
X35952Y219009D01*
X32451Y215508D01*
X29529Y214298D01*
X29504Y214283D01*
X29476Y214274D01*
X29381Y214211D01*
X29284Y214153D01*
X29264Y214132D01*
X29239Y214116D01*
X29167Y214029D01*
X29089Y213947D01*
X29075Y213921D01*
X29057Y213898D01*
X29011Y213795D01*
X28959Y213694D01*
X28953Y213665D01*
X28941Y213638D01*
X28925Y213526D01*
X28904Y213415D01*
X28906Y213386D01*
X28902Y213357D01*
X28918Y213245D01*
X28928Y213132D01*
X28939Y213105D01*
X28943Y213076D01*
X28989Y212972D01*
X29030Y212867D01*
X29048Y212843D01*
X29060Y212816D01*
X29133Y212730D01*
X29202Y212640D01*
X29225Y212622D01*
X29244Y212600D01*
X29311Y212558D01*
X29429Y212470D01*
X29488Y212448D01*
X29529Y212422D01*
X32451Y211212D01*
X35952Y207711D01*
X37847Y203136D01*
X37847Y198184D01*
X35952Y193609D01*
X32451Y190108D01*
X28789Y188591D01*
X28729Y188556D01*
X28665Y188530D01*
X28607Y188484D01*
X28544Y188447D01*
X28496Y188397D01*
X28442Y188354D01*
X28399Y188294D01*
X28349Y188240D01*
X28317Y188179D01*
X28277Y188122D01*
X28252Y188053D01*
X28218Y187987D01*
X28205Y187920D01*
X28182Y187854D01*
X28178Y187781D01*
X28163Y187708D01*
X28169Y187640D01*
X28165Y187571D01*
X28181Y187499D01*
X28188Y187425D01*
X28213Y187361D01*
X28228Y187293D01*
X28263Y187229D01*
X28290Y187160D01*
X28331Y187105D01*
X28365Y187044D01*
X28417Y186992D01*
X28461Y186933D01*
X28517Y186892D01*
X28566Y186843D01*
X28621Y186814D01*
X28689Y186763D01*
X28797Y186722D01*
X28863Y186688D01*
X29983Y186324D01*
X31657Y185471D01*
X33178Y184366D01*
X34506Y183038D01*
X35611Y181517D01*
X36464Y179843D01*
X37045Y178056D01*
X37166Y177291D01*
X26416Y177291D01*
X26358Y177283D01*
X26300Y177285D01*
X26218Y177263D01*
X26135Y177251D01*
X26081Y177227D01*
X26025Y177213D01*
X25952Y177170D01*
X25875Y177135D01*
X25831Y177097D01*
X25780Y177067D01*
X25723Y177006D01*
X25658Y176951D01*
X25626Y176903D01*
X25586Y176860D01*
X25547Y176785D01*
X25501Y176715D01*
X25483Y176659D01*
X25456Y176607D01*
X25445Y176539D01*
X25415Y176444D01*
X25412Y176344D01*
X25401Y176276D01*
X25401Y174244D01*
X25409Y174186D01*
X25408Y174128D01*
X25429Y174046D01*
X25441Y173963D01*
X25465Y173909D01*
X25479Y173853D01*
X25522Y173780D01*
X25557Y173703D01*
X25595Y173658D01*
X25625Y173608D01*
X25686Y173550D01*
X25741Y173486D01*
X25789Y173454D01*
X25832Y173414D01*
X25907Y173375D01*
X25977Y173329D01*
X26033Y173311D01*
X26085Y173284D01*
X26153Y173273D01*
X26248Y173243D01*
X26348Y173240D01*
X26416Y173229D01*
X37166Y173229D01*
X37045Y172464D01*
X36464Y170677D01*
X35611Y169003D01*
X34506Y167482D01*
X33178Y166154D01*
X31657Y165049D01*
X29983Y164196D01*
X28863Y163832D01*
X28801Y163802D01*
X28735Y163781D01*
X28674Y163740D01*
X28608Y163707D01*
X28557Y163661D01*
X28499Y163622D01*
X28452Y163566D01*
X28397Y163517D01*
X28361Y163458D01*
X28316Y163405D01*
X28286Y163338D01*
X28247Y163275D01*
X28229Y163208D01*
X28201Y163145D01*
X28191Y163072D01*
X28171Y163001D01*
X28171Y162932D01*
X28162Y162863D01*
X28172Y162791D01*
X28173Y162717D01*
X28193Y162650D01*
X28202Y162582D01*
X28233Y162515D01*
X28254Y162444D01*
X28291Y162386D01*
X28320Y162323D01*
X28367Y162267D01*
X28407Y162205D01*
X28459Y162159D01*
X28504Y162107D01*
X28557Y162074D01*
X28621Y162017D01*
X28725Y161968D01*
X28789Y161929D01*
X32451Y160412D01*
X35952Y156911D01*
X37847Y152336D01*
X37847Y147384D01*
X35952Y142809D01*
X32451Y139308D01*
X29529Y138098D01*
X29504Y138083D01*
X29476Y138074D01*
X29381Y138011D01*
X29284Y137953D01*
X29264Y137932D01*
X29239Y137916D01*
X29166Y137829D01*
X29089Y137747D01*
X29075Y137721D01*
X29056Y137698D01*
X29010Y137595D01*
X28959Y137494D01*
X28953Y137465D01*
X28941Y137438D01*
X28925Y137326D01*
X28904Y137215D01*
X28906Y137186D01*
X28902Y137157D01*
X28918Y137045D01*
X28928Y136932D01*
X28939Y136905D01*
X28943Y136876D01*
X28989Y136772D01*
X29030Y136667D01*
X29048Y136643D01*
X29060Y136616D01*
X29133Y136530D01*
X29202Y136440D01*
X29225Y136422D01*
X29244Y136400D01*
X29311Y136358D01*
X29429Y136270D01*
X29488Y136248D01*
X29529Y136222D01*
X32451Y135012D01*
X35952Y131511D01*
X37847Y126936D01*
X37847Y121984D01*
X35952Y117409D01*
X32451Y113908D01*
X29529Y112698D01*
X29504Y112683D01*
X29476Y112674D01*
X29381Y112611D01*
X29284Y112553D01*
X29264Y112532D01*
X29239Y112516D01*
X29166Y112429D01*
X29089Y112347D01*
X29075Y112321D01*
X29056Y112298D01*
X29010Y112195D01*
X28959Y112094D01*
X28953Y112065D01*
X28941Y112038D01*
X28925Y111926D01*
X28904Y111815D01*
X28906Y111786D01*
X28902Y111757D01*
X28918Y111645D01*
X28928Y111532D01*
X28939Y111505D01*
X28943Y111476D01*
X28989Y111372D01*
X29030Y111267D01*
X29048Y111243D01*
X29060Y111216D01*
X29133Y111130D01*
X29202Y111040D01*
X29225Y111022D01*
X29244Y111000D01*
X29311Y110958D01*
X29429Y110870D01*
X29488Y110848D01*
X29529Y110822D01*
X32451Y109612D01*
X35952Y106111D01*
X37847Y101536D01*
X37847Y96584D01*
X35952Y92009D01*
X32451Y88508D01*
X27876Y86613D01*
X22924Y86613D01*
G37*
%LPD*%
%LPC*%
G36*
X445769Y342899D02*
X445769Y342899D01*
X445769Y343916D01*
X445761Y343974D01*
X445762Y344032D01*
X445741Y344114D01*
X445729Y344197D01*
X445705Y344251D01*
X445691Y344307D01*
X445648Y344380D01*
X445613Y344457D01*
X445575Y344502D01*
X445545Y344552D01*
X445484Y344610D01*
X445429Y344674D01*
X445381Y344706D01*
X445338Y344746D01*
X445263Y344785D01*
X445193Y344831D01*
X445137Y344849D01*
X445085Y344876D01*
X445017Y344887D01*
X444922Y344917D01*
X444822Y344920D01*
X444754Y344931D01*
X434004Y344931D01*
X434125Y345696D01*
X434706Y347483D01*
X435559Y349157D01*
X436664Y350678D01*
X437992Y352006D01*
X439513Y353111D01*
X441127Y353933D01*
X441165Y353960D01*
X441207Y353979D01*
X441281Y354041D01*
X441360Y354097D01*
X441389Y354133D01*
X441424Y354163D01*
X441477Y354243D01*
X441538Y354318D01*
X441556Y354361D01*
X441582Y354399D01*
X441611Y354491D01*
X441648Y354580D01*
X441653Y354626D01*
X441667Y354670D01*
X441670Y354767D01*
X441681Y354863D01*
X441673Y354908D01*
X441675Y354954D01*
X441650Y355048D01*
X441634Y355143D01*
X441615Y355185D01*
X441603Y355229D01*
X441554Y355312D01*
X441512Y355400D01*
X441481Y355434D01*
X441458Y355474D01*
X441387Y355540D01*
X441323Y355612D01*
X441284Y355637D01*
X441250Y355668D01*
X441164Y355712D01*
X441083Y355764D01*
X441038Y355777D01*
X440997Y355798D01*
X440923Y355810D01*
X440810Y355843D01*
X440779Y355843D01*
X436179Y357748D01*
X432678Y361249D01*
X430783Y365824D01*
X430783Y370776D01*
X432678Y375351D01*
X436179Y378852D01*
X440371Y380588D01*
X440396Y380603D01*
X440424Y380612D01*
X440519Y380675D01*
X440616Y380733D01*
X440636Y380754D01*
X440661Y380770D01*
X440733Y380857D01*
X440811Y380939D01*
X440825Y380965D01*
X440844Y380988D01*
X440890Y381091D01*
X440941Y381192D01*
X440947Y381221D01*
X440959Y381248D01*
X440975Y381360D01*
X440996Y381471D01*
X440994Y381500D01*
X440998Y381529D01*
X440982Y381641D01*
X440972Y381754D01*
X440961Y381782D01*
X440957Y381811D01*
X440911Y381914D01*
X440870Y382019D01*
X440852Y382043D01*
X440840Y382070D01*
X440767Y382156D01*
X440698Y382246D01*
X440675Y382264D01*
X440656Y382286D01*
X440589Y382328D01*
X440471Y382416D01*
X440412Y382438D01*
X440371Y382464D01*
X438719Y383148D01*
X435218Y386649D01*
X433323Y391224D01*
X433323Y396176D01*
X435218Y400751D01*
X438719Y404252D01*
X440371Y404936D01*
X440396Y404951D01*
X440424Y404960D01*
X440519Y405023D01*
X440616Y405080D01*
X440636Y405102D01*
X440661Y405118D01*
X440734Y405205D01*
X440811Y405287D01*
X440825Y405313D01*
X440844Y405336D01*
X440890Y405439D01*
X440941Y405540D01*
X440947Y405569D01*
X440959Y405595D01*
X440975Y405708D01*
X440996Y405819D01*
X440994Y405848D01*
X440998Y405877D01*
X440982Y405989D01*
X440972Y406102D01*
X440961Y406129D01*
X440957Y406158D01*
X440911Y406261D01*
X440870Y406367D01*
X440852Y406391D01*
X440840Y406418D01*
X440767Y406504D01*
X440698Y406594D01*
X440675Y406612D01*
X440656Y406634D01*
X440589Y406676D01*
X440471Y406764D01*
X440412Y406786D01*
X440371Y406812D01*
X436179Y408548D01*
X432678Y412049D01*
X430783Y416624D01*
X430783Y421576D01*
X432678Y426151D01*
X436179Y429652D01*
X440371Y431388D01*
X440396Y431403D01*
X440424Y431412D01*
X440519Y431475D01*
X440616Y431533D01*
X440636Y431554D01*
X440661Y431570D01*
X440733Y431657D01*
X440811Y431739D01*
X440825Y431765D01*
X440844Y431788D01*
X440890Y431891D01*
X440941Y431992D01*
X440947Y432021D01*
X440959Y432048D01*
X440975Y432160D01*
X440996Y432271D01*
X440994Y432300D01*
X440998Y432329D01*
X440982Y432441D01*
X440972Y432554D01*
X440961Y432582D01*
X440957Y432611D01*
X440911Y432714D01*
X440870Y432819D01*
X440852Y432843D01*
X440840Y432870D01*
X440767Y432956D01*
X440698Y433046D01*
X440675Y433064D01*
X440656Y433086D01*
X440589Y433128D01*
X440471Y433216D01*
X440412Y433238D01*
X440371Y433264D01*
X438719Y433948D01*
X435218Y437449D01*
X433323Y442024D01*
X433323Y446976D01*
X435218Y451551D01*
X438719Y455052D01*
X440371Y455736D01*
X440396Y455751D01*
X440424Y455760D01*
X440519Y455823D01*
X440616Y455880D01*
X440636Y455902D01*
X440661Y455918D01*
X440734Y456005D01*
X440811Y456087D01*
X440825Y456113D01*
X440844Y456136D01*
X440890Y456239D01*
X440941Y456340D01*
X440947Y456369D01*
X440959Y456395D01*
X440975Y456508D01*
X440996Y456619D01*
X440994Y456648D01*
X440998Y456677D01*
X440982Y456789D01*
X440972Y456902D01*
X440961Y456929D01*
X440957Y456958D01*
X440911Y457061D01*
X440870Y457167D01*
X440852Y457191D01*
X440840Y457218D01*
X440767Y457304D01*
X440698Y457394D01*
X440675Y457412D01*
X440656Y457434D01*
X440589Y457476D01*
X440471Y457564D01*
X440412Y457586D01*
X440371Y457612D01*
X436179Y459348D01*
X432678Y462849D01*
X430783Y467424D01*
X430783Y472376D01*
X432678Y476951D01*
X436179Y480452D01*
X440371Y482188D01*
X440396Y482203D01*
X440424Y482212D01*
X440519Y482275D01*
X440616Y482333D01*
X440636Y482354D01*
X440661Y482370D01*
X440733Y482457D01*
X440811Y482539D01*
X440825Y482565D01*
X440844Y482588D01*
X440890Y482691D01*
X440941Y482792D01*
X440947Y482821D01*
X440959Y482848D01*
X440975Y482960D01*
X440996Y483071D01*
X440994Y483100D01*
X440998Y483129D01*
X440982Y483241D01*
X440972Y483354D01*
X440961Y483382D01*
X440957Y483411D01*
X440911Y483514D01*
X440870Y483619D01*
X440852Y483643D01*
X440840Y483670D01*
X440767Y483756D01*
X440698Y483846D01*
X440675Y483864D01*
X440656Y483886D01*
X440589Y483928D01*
X440471Y484016D01*
X440412Y484038D01*
X440371Y484064D01*
X438719Y484748D01*
X435218Y488249D01*
X433323Y492824D01*
X433323Y497776D01*
X435218Y502351D01*
X438719Y505852D01*
X440371Y506536D01*
X440396Y506551D01*
X440424Y506560D01*
X440519Y506623D01*
X440616Y506680D01*
X440636Y506702D01*
X440661Y506718D01*
X440734Y506805D01*
X440811Y506887D01*
X440825Y506913D01*
X440844Y506936D01*
X440890Y507039D01*
X440941Y507140D01*
X440947Y507169D01*
X440959Y507195D01*
X440975Y507308D01*
X440996Y507419D01*
X440994Y507448D01*
X440998Y507477D01*
X440982Y507589D01*
X440972Y507702D01*
X440961Y507729D01*
X440957Y507758D01*
X440911Y507861D01*
X440870Y507967D01*
X440852Y507991D01*
X440840Y508018D01*
X440767Y508104D01*
X440698Y508194D01*
X440675Y508212D01*
X440656Y508234D01*
X440589Y508276D01*
X440471Y508364D01*
X440412Y508386D01*
X440371Y508412D01*
X436179Y510148D01*
X432678Y513649D01*
X430783Y518224D01*
X430783Y523176D01*
X432678Y527751D01*
X436179Y531252D01*
X440371Y532988D01*
X440396Y533003D01*
X440424Y533012D01*
X440519Y533075D01*
X440616Y533133D01*
X440636Y533154D01*
X440661Y533170D01*
X440733Y533257D01*
X440811Y533339D01*
X440825Y533365D01*
X440844Y533388D01*
X440890Y533491D01*
X440941Y533592D01*
X440947Y533621D01*
X440959Y533648D01*
X440975Y533760D01*
X440996Y533871D01*
X440994Y533900D01*
X440998Y533929D01*
X440982Y534041D01*
X440972Y534154D01*
X440961Y534182D01*
X440957Y534211D01*
X440911Y534314D01*
X440870Y534419D01*
X440852Y534443D01*
X440840Y534470D01*
X440767Y534556D01*
X440698Y534646D01*
X440675Y534664D01*
X440656Y534686D01*
X440589Y534728D01*
X440471Y534816D01*
X440412Y534838D01*
X440371Y534864D01*
X438719Y535548D01*
X435218Y539049D01*
X433323Y543624D01*
X433323Y548576D01*
X435218Y553151D01*
X438719Y556652D01*
X443294Y558547D01*
X448246Y558547D01*
X452821Y556652D01*
X456322Y553151D01*
X457299Y550791D01*
X457300Y550790D01*
X457300Y550789D01*
X457370Y550670D01*
X457443Y550547D01*
X457445Y550546D01*
X457445Y550544D01*
X457549Y550447D01*
X457650Y550351D01*
X457652Y550351D01*
X457653Y550350D01*
X457779Y550285D01*
X457903Y550221D01*
X457904Y550221D01*
X457906Y550220D01*
X457921Y550218D01*
X458182Y550166D01*
X458212Y550169D01*
X458237Y550165D01*
X495533Y550165D01*
X495535Y550165D01*
X495536Y550165D01*
X495675Y550185D01*
X495815Y550205D01*
X495816Y550205D01*
X495818Y550205D01*
X495943Y550262D01*
X496074Y550321D01*
X496075Y550322D01*
X496077Y550323D01*
X496184Y550414D01*
X496291Y550504D01*
X496292Y550506D01*
X496293Y550507D01*
X496301Y550520D01*
X496449Y550741D01*
X496458Y550770D01*
X496471Y550791D01*
X497448Y553151D01*
X500949Y556652D01*
X505524Y558547D01*
X510476Y558547D01*
X515051Y556652D01*
X518552Y553151D01*
X520447Y548576D01*
X520447Y543624D01*
X518552Y539049D01*
X515051Y535548D01*
X512129Y534338D01*
X512104Y534323D01*
X512076Y534314D01*
X511981Y534251D01*
X511884Y534193D01*
X511864Y534172D01*
X511839Y534156D01*
X511766Y534069D01*
X511689Y533987D01*
X511675Y533961D01*
X511656Y533938D01*
X511610Y533835D01*
X511559Y533734D01*
X511553Y533705D01*
X511541Y533678D01*
X511525Y533566D01*
X511504Y533455D01*
X511506Y533426D01*
X511502Y533397D01*
X511518Y533285D01*
X511528Y533172D01*
X511539Y533145D01*
X511543Y533115D01*
X511589Y533012D01*
X511630Y532907D01*
X511648Y532883D01*
X511660Y532856D01*
X511733Y532770D01*
X511802Y532680D01*
X511825Y532662D01*
X511844Y532640D01*
X511911Y532598D01*
X512029Y532510D01*
X512088Y532488D01*
X512129Y532462D01*
X515051Y531252D01*
X518552Y527751D01*
X520447Y523176D01*
X520447Y518224D01*
X518552Y513649D01*
X515051Y510148D01*
X512129Y508938D01*
X512104Y508923D01*
X512076Y508914D01*
X511981Y508851D01*
X511884Y508793D01*
X511864Y508772D01*
X511839Y508756D01*
X511766Y508669D01*
X511689Y508587D01*
X511675Y508561D01*
X511656Y508538D01*
X511610Y508435D01*
X511559Y508334D01*
X511553Y508305D01*
X511541Y508278D01*
X511525Y508166D01*
X511504Y508055D01*
X511506Y508026D01*
X511502Y507997D01*
X511518Y507885D01*
X511528Y507772D01*
X511539Y507745D01*
X511543Y507715D01*
X511589Y507612D01*
X511630Y507507D01*
X511648Y507483D01*
X511660Y507456D01*
X511733Y507370D01*
X511802Y507280D01*
X511825Y507262D01*
X511844Y507240D01*
X511911Y507198D01*
X512029Y507110D01*
X512088Y507088D01*
X512129Y507062D01*
X515051Y505852D01*
X518552Y502351D01*
X520447Y497776D01*
X520447Y492824D01*
X518552Y488249D01*
X515051Y484748D01*
X512129Y483538D01*
X512104Y483523D01*
X512076Y483514D01*
X511981Y483451D01*
X511884Y483393D01*
X511864Y483372D01*
X511839Y483356D01*
X511766Y483269D01*
X511689Y483187D01*
X511675Y483161D01*
X511656Y483138D01*
X511610Y483035D01*
X511559Y482934D01*
X511553Y482905D01*
X511541Y482878D01*
X511525Y482766D01*
X511504Y482655D01*
X511506Y482626D01*
X511502Y482597D01*
X511518Y482485D01*
X511528Y482372D01*
X511539Y482345D01*
X511543Y482315D01*
X511589Y482212D01*
X511630Y482107D01*
X511648Y482083D01*
X511660Y482056D01*
X511733Y481970D01*
X511802Y481880D01*
X511825Y481862D01*
X511844Y481840D01*
X511911Y481798D01*
X512029Y481710D01*
X512088Y481688D01*
X512129Y481662D01*
X515051Y480452D01*
X518552Y476951D01*
X520447Y472376D01*
X520447Y467424D01*
X518552Y462849D01*
X515051Y459348D01*
X512129Y458138D01*
X512104Y458123D01*
X512076Y458114D01*
X511981Y458051D01*
X511884Y457993D01*
X511864Y457972D01*
X511839Y457956D01*
X511766Y457869D01*
X511689Y457787D01*
X511675Y457761D01*
X511656Y457738D01*
X511610Y457635D01*
X511559Y457534D01*
X511553Y457505D01*
X511541Y457478D01*
X511525Y457366D01*
X511504Y457255D01*
X511506Y457226D01*
X511502Y457197D01*
X511518Y457085D01*
X511528Y456972D01*
X511539Y456945D01*
X511543Y456915D01*
X511589Y456812D01*
X511630Y456707D01*
X511648Y456683D01*
X511660Y456656D01*
X511733Y456570D01*
X511802Y456480D01*
X511825Y456462D01*
X511844Y456440D01*
X511911Y456398D01*
X512029Y456310D01*
X512088Y456288D01*
X512129Y456262D01*
X515051Y455052D01*
X518552Y451551D01*
X520447Y446976D01*
X520447Y442024D01*
X518552Y437449D01*
X515051Y433948D01*
X512129Y432738D01*
X512104Y432723D01*
X512076Y432714D01*
X511981Y432651D01*
X511884Y432593D01*
X511864Y432572D01*
X511839Y432556D01*
X511766Y432469D01*
X511689Y432387D01*
X511675Y432361D01*
X511656Y432338D01*
X511610Y432235D01*
X511559Y432134D01*
X511553Y432105D01*
X511541Y432078D01*
X511525Y431966D01*
X511504Y431855D01*
X511506Y431826D01*
X511502Y431797D01*
X511518Y431685D01*
X511528Y431572D01*
X511539Y431545D01*
X511543Y431515D01*
X511589Y431412D01*
X511630Y431307D01*
X511648Y431283D01*
X511660Y431256D01*
X511733Y431170D01*
X511802Y431080D01*
X511825Y431062D01*
X511844Y431040D01*
X511911Y430998D01*
X512029Y430910D01*
X512088Y430888D01*
X512129Y430862D01*
X515051Y429652D01*
X518552Y426151D01*
X520447Y421576D01*
X520447Y416624D01*
X518552Y412049D01*
X515051Y408548D01*
X510476Y406653D01*
X505524Y406653D01*
X500949Y408548D01*
X497448Y412049D01*
X496471Y414409D01*
X496470Y414410D01*
X496470Y414411D01*
X496400Y414530D01*
X496327Y414653D01*
X496325Y414654D01*
X496325Y414656D01*
X496221Y414753D01*
X496120Y414849D01*
X496118Y414849D01*
X496117Y414850D01*
X495991Y414915D01*
X495867Y414979D01*
X495866Y414979D01*
X495864Y414980D01*
X495849Y414982D01*
X495588Y415034D01*
X495558Y415031D01*
X495533Y415035D01*
X455697Y415035D01*
X455695Y415035D01*
X455694Y415035D01*
X455555Y415015D01*
X455415Y414995D01*
X455414Y414995D01*
X455412Y414995D01*
X455287Y414938D01*
X455156Y414879D01*
X455155Y414878D01*
X455153Y414877D01*
X455046Y414786D01*
X454939Y414696D01*
X454938Y414694D01*
X454937Y414693D01*
X454929Y414680D01*
X454781Y414459D01*
X454772Y414430D01*
X454759Y414409D01*
X453782Y412049D01*
X450281Y408548D01*
X448629Y407864D01*
X448604Y407849D01*
X448576Y407840D01*
X448481Y407777D01*
X448384Y407720D01*
X448364Y407698D01*
X448339Y407682D01*
X448266Y407595D01*
X448189Y407513D01*
X448175Y407487D01*
X448156Y407464D01*
X448110Y407361D01*
X448059Y407260D01*
X448053Y407231D01*
X448041Y407205D01*
X448025Y407092D01*
X448004Y406981D01*
X448006Y406952D01*
X448002Y406923D01*
X448018Y406811D01*
X448028Y406698D01*
X448039Y406671D01*
X448043Y406642D01*
X448089Y406539D01*
X448130Y406433D01*
X448148Y406409D01*
X448160Y406382D01*
X448233Y406296D01*
X448302Y406206D01*
X448325Y406188D01*
X448344Y406166D01*
X448411Y406124D01*
X448529Y406036D01*
X448588Y406014D01*
X448629Y405988D01*
X452821Y404252D01*
X456322Y400751D01*
X458217Y396176D01*
X458217Y391224D01*
X456322Y386649D01*
X452821Y383148D01*
X448629Y381412D01*
X448604Y381397D01*
X448576Y381388D01*
X448481Y381325D01*
X448384Y381267D01*
X448364Y381246D01*
X448339Y381230D01*
X448267Y381143D01*
X448189Y381061D01*
X448175Y381035D01*
X448156Y381012D01*
X448110Y380909D01*
X448059Y380808D01*
X448053Y380779D01*
X448041Y380752D01*
X448025Y380640D01*
X448004Y380529D01*
X448006Y380500D01*
X448002Y380471D01*
X448018Y380359D01*
X448028Y380246D01*
X448039Y380218D01*
X448043Y380189D01*
X448089Y380086D01*
X448130Y379981D01*
X448148Y379957D01*
X448160Y379930D01*
X448230Y379848D01*
X448239Y379833D01*
X448249Y379823D01*
X448302Y379754D01*
X448325Y379736D01*
X448344Y379714D01*
X448408Y379674D01*
X448446Y379638D01*
X448478Y379622D01*
X448529Y379584D01*
X448588Y379562D01*
X448629Y379536D01*
X450281Y378852D01*
X453782Y375351D01*
X455677Y370776D01*
X455677Y365824D01*
X453782Y361249D01*
X450281Y357748D01*
X447537Y356612D01*
X447532Y356609D01*
X447526Y356607D01*
X447410Y356537D01*
X447293Y356467D01*
X447288Y356463D01*
X447283Y356460D01*
X447190Y356359D01*
X447097Y356261D01*
X447095Y356255D01*
X447090Y356251D01*
X447030Y356129D01*
X446967Y356008D01*
X446966Y356002D01*
X446963Y355996D01*
X446939Y355863D01*
X446912Y355729D01*
X446913Y355723D01*
X446912Y355717D01*
X446925Y355580D01*
X446937Y355446D01*
X446939Y355440D01*
X446939Y355434D01*
X446990Y355307D01*
X447039Y355181D01*
X447042Y355176D01*
X447045Y355170D01*
X447129Y355062D01*
X447210Y354954D01*
X447215Y354950D01*
X447219Y354945D01*
X447329Y354865D01*
X447438Y354784D01*
X447444Y354781D01*
X447449Y354778D01*
X447490Y354764D01*
X447704Y354683D01*
X447740Y354680D01*
X447767Y354671D01*
X448566Y354545D01*
X450353Y353964D01*
X452027Y353111D01*
X453548Y352006D01*
X454876Y350678D01*
X455981Y349157D01*
X456834Y347483D01*
X457415Y345696D01*
X457536Y344931D01*
X446786Y344931D01*
X446728Y344923D01*
X446670Y344925D01*
X446588Y344903D01*
X446505Y344891D01*
X446451Y344867D01*
X446395Y344853D01*
X446322Y344810D01*
X446245Y344775D01*
X446201Y344737D01*
X446150Y344707D01*
X446093Y344646D01*
X446028Y344591D01*
X445996Y344543D01*
X445956Y344500D01*
X445917Y344425D01*
X445871Y344355D01*
X445853Y344299D01*
X445826Y344247D01*
X445815Y344179D01*
X445785Y344084D01*
X445782Y343984D01*
X445771Y343916D01*
X445771Y342899D01*
X445769Y342899D01*
G37*
%LPD*%
%LPC*%
G36*
X160084Y305053D02*
X160084Y305053D01*
X155509Y306948D01*
X152008Y310449D01*
X150113Y315024D01*
X150113Y319976D01*
X152008Y324551D01*
X155509Y328052D01*
X160084Y329947D01*
X161283Y329947D01*
X161368Y329959D01*
X161454Y329961D01*
X161508Y329979D01*
X161565Y329987D01*
X161643Y330022D01*
X161725Y330048D01*
X161772Y330080D01*
X161824Y330103D01*
X161890Y330158D01*
X161961Y330206D01*
X161998Y330250D01*
X162041Y330286D01*
X162089Y330358D01*
X162144Y330424D01*
X162167Y330476D01*
X162199Y330523D01*
X162225Y330605D01*
X162259Y330684D01*
X162267Y330740D01*
X162284Y330794D01*
X162287Y330880D01*
X162298Y330965D01*
X162290Y331021D01*
X162292Y331078D01*
X162270Y331161D01*
X162258Y331247D01*
X162234Y331298D01*
X162220Y331353D01*
X162176Y331427D01*
X162141Y331506D01*
X162104Y331549D01*
X162075Y331598D01*
X162012Y331657D01*
X161956Y331722D01*
X161914Y331748D01*
X161867Y331792D01*
X161738Y331858D01*
X161672Y331900D01*
X160589Y332348D01*
X157088Y335849D01*
X156111Y338209D01*
X156110Y338210D01*
X156110Y338211D01*
X156040Y338330D01*
X155967Y338453D01*
X155965Y338454D01*
X155965Y338456D01*
X155861Y338553D01*
X155760Y338649D01*
X155758Y338649D01*
X155757Y338650D01*
X155631Y338715D01*
X155507Y338779D01*
X155506Y338779D01*
X155504Y338780D01*
X155489Y338782D01*
X155228Y338834D01*
X155198Y338831D01*
X155173Y338835D01*
X99916Y338835D01*
X97238Y341514D01*
X38112Y400640D01*
X38043Y400691D01*
X37981Y400750D01*
X37930Y400777D01*
X37885Y400811D01*
X37804Y400841D01*
X37728Y400881D01*
X37672Y400892D01*
X37619Y400912D01*
X37533Y400919D01*
X37449Y400936D01*
X37392Y400931D01*
X37336Y400935D01*
X37251Y400919D01*
X37166Y400911D01*
X37113Y400891D01*
X37057Y400880D01*
X36981Y400840D01*
X36901Y400809D01*
X36855Y400775D01*
X36805Y400749D01*
X36742Y400689D01*
X36674Y400638D01*
X36640Y400592D01*
X36599Y400553D01*
X36555Y400479D01*
X36504Y400410D01*
X36484Y400357D01*
X36455Y400308D01*
X36434Y400224D01*
X36403Y400144D01*
X36399Y400087D01*
X36385Y400032D01*
X36387Y399946D01*
X36381Y399860D01*
X36392Y399812D01*
X36394Y399748D01*
X36438Y399610D01*
X36456Y399533D01*
X37847Y396176D01*
X37847Y391224D01*
X35952Y386649D01*
X32451Y383148D01*
X29529Y381938D01*
X29504Y381923D01*
X29476Y381914D01*
X29381Y381851D01*
X29284Y381793D01*
X29264Y381772D01*
X29239Y381756D01*
X29167Y381669D01*
X29089Y381587D01*
X29075Y381561D01*
X29057Y381538D01*
X29011Y381435D01*
X28959Y381334D01*
X28953Y381305D01*
X28941Y381278D01*
X28925Y381166D01*
X28904Y381055D01*
X28906Y381026D01*
X28902Y380997D01*
X28918Y380885D01*
X28928Y380772D01*
X28939Y380745D01*
X28943Y380716D01*
X28989Y380612D01*
X29030Y380507D01*
X29048Y380483D01*
X29060Y380456D01*
X29133Y380370D01*
X29202Y380280D01*
X29225Y380262D01*
X29244Y380240D01*
X29311Y380198D01*
X29429Y380110D01*
X29488Y380088D01*
X29529Y380062D01*
X32451Y378852D01*
X35952Y375351D01*
X37847Y370776D01*
X37847Y365824D01*
X35952Y361249D01*
X32451Y357748D01*
X27876Y355853D01*
X22924Y355853D01*
X18349Y357748D01*
X14848Y361249D01*
X12953Y365824D01*
X12953Y370776D01*
X14848Y375351D01*
X18349Y378852D01*
X21271Y380062D01*
X21296Y380077D01*
X21324Y380086D01*
X21419Y380149D01*
X21516Y380207D01*
X21536Y380228D01*
X21561Y380244D01*
X21634Y380331D01*
X21711Y380413D01*
X21725Y380439D01*
X21744Y380462D01*
X21790Y380565D01*
X21841Y380666D01*
X21847Y380695D01*
X21859Y380722D01*
X21875Y380834D01*
X21896Y380945D01*
X21894Y380974D01*
X21898Y381003D01*
X21882Y381115D01*
X21872Y381228D01*
X21861Y381255D01*
X21857Y381285D01*
X21811Y381388D01*
X21770Y381493D01*
X21752Y381517D01*
X21740Y381544D01*
X21667Y381630D01*
X21598Y381720D01*
X21575Y381738D01*
X21556Y381760D01*
X21489Y381802D01*
X21371Y381890D01*
X21312Y381912D01*
X21271Y381938D01*
X18349Y383148D01*
X14848Y386649D01*
X12953Y391224D01*
X12953Y396176D01*
X14848Y400751D01*
X18349Y404252D01*
X21271Y405462D01*
X21296Y405477D01*
X21324Y405486D01*
X21419Y405549D01*
X21516Y405607D01*
X21536Y405628D01*
X21561Y405644D01*
X21634Y405731D01*
X21711Y405813D01*
X21725Y405839D01*
X21744Y405862D01*
X21790Y405965D01*
X21841Y406066D01*
X21847Y406095D01*
X21859Y406122D01*
X21875Y406234D01*
X21896Y406345D01*
X21894Y406374D01*
X21898Y406403D01*
X21882Y406515D01*
X21872Y406628D01*
X21861Y406655D01*
X21857Y406685D01*
X21811Y406788D01*
X21770Y406893D01*
X21752Y406917D01*
X21740Y406944D01*
X21667Y407030D01*
X21598Y407120D01*
X21575Y407138D01*
X21556Y407160D01*
X21489Y407202D01*
X21371Y407290D01*
X21312Y407312D01*
X21271Y407338D01*
X18349Y408548D01*
X14848Y412049D01*
X12953Y416624D01*
X12953Y421576D01*
X14848Y426151D01*
X18349Y429652D01*
X21271Y430862D01*
X21296Y430877D01*
X21324Y430886D01*
X21419Y430949D01*
X21516Y431007D01*
X21536Y431028D01*
X21561Y431044D01*
X21634Y431131D01*
X21711Y431213D01*
X21725Y431239D01*
X21744Y431262D01*
X21790Y431365D01*
X21841Y431466D01*
X21847Y431495D01*
X21859Y431522D01*
X21875Y431634D01*
X21896Y431745D01*
X21894Y431774D01*
X21898Y431803D01*
X21882Y431915D01*
X21872Y432028D01*
X21861Y432055D01*
X21857Y432085D01*
X21811Y432188D01*
X21770Y432293D01*
X21752Y432317D01*
X21740Y432344D01*
X21667Y432430D01*
X21598Y432520D01*
X21575Y432538D01*
X21556Y432560D01*
X21489Y432602D01*
X21371Y432690D01*
X21312Y432712D01*
X21271Y432738D01*
X18349Y433948D01*
X14848Y437449D01*
X12953Y442024D01*
X12953Y446976D01*
X14848Y451551D01*
X18349Y455052D01*
X21271Y456262D01*
X21296Y456277D01*
X21324Y456286D01*
X21419Y456349D01*
X21516Y456407D01*
X21536Y456428D01*
X21561Y456444D01*
X21634Y456531D01*
X21711Y456613D01*
X21725Y456639D01*
X21744Y456662D01*
X21790Y456765D01*
X21841Y456866D01*
X21847Y456895D01*
X21859Y456922D01*
X21875Y457034D01*
X21896Y457145D01*
X21894Y457174D01*
X21898Y457203D01*
X21882Y457315D01*
X21872Y457428D01*
X21861Y457455D01*
X21857Y457485D01*
X21811Y457588D01*
X21770Y457693D01*
X21752Y457717D01*
X21740Y457744D01*
X21667Y457830D01*
X21598Y457920D01*
X21575Y457938D01*
X21556Y457960D01*
X21489Y458002D01*
X21371Y458090D01*
X21312Y458112D01*
X21271Y458138D01*
X18349Y459348D01*
X14848Y462849D01*
X12953Y467424D01*
X12953Y472376D01*
X14848Y476951D01*
X18349Y480452D01*
X21271Y481662D01*
X21296Y481677D01*
X21324Y481686D01*
X21419Y481749D01*
X21516Y481807D01*
X21536Y481828D01*
X21561Y481844D01*
X21634Y481931D01*
X21711Y482013D01*
X21725Y482039D01*
X21744Y482062D01*
X21790Y482165D01*
X21841Y482266D01*
X21847Y482295D01*
X21859Y482322D01*
X21875Y482434D01*
X21896Y482545D01*
X21894Y482574D01*
X21898Y482603D01*
X21882Y482715D01*
X21872Y482828D01*
X21861Y482855D01*
X21857Y482885D01*
X21811Y482988D01*
X21770Y483093D01*
X21752Y483117D01*
X21740Y483144D01*
X21667Y483230D01*
X21598Y483320D01*
X21575Y483338D01*
X21556Y483360D01*
X21489Y483402D01*
X21371Y483490D01*
X21312Y483512D01*
X21271Y483538D01*
X18349Y484748D01*
X14848Y488249D01*
X12953Y492824D01*
X12953Y497776D01*
X14848Y502351D01*
X18349Y505852D01*
X21271Y507062D01*
X21296Y507077D01*
X21324Y507086D01*
X21419Y507149D01*
X21516Y507207D01*
X21536Y507228D01*
X21561Y507244D01*
X21634Y507331D01*
X21711Y507413D01*
X21725Y507439D01*
X21744Y507462D01*
X21790Y507565D01*
X21841Y507666D01*
X21847Y507695D01*
X21859Y507722D01*
X21875Y507834D01*
X21896Y507945D01*
X21894Y507974D01*
X21898Y508003D01*
X21882Y508115D01*
X21872Y508228D01*
X21861Y508255D01*
X21857Y508285D01*
X21811Y508388D01*
X21770Y508493D01*
X21752Y508517D01*
X21740Y508544D01*
X21667Y508630D01*
X21598Y508720D01*
X21575Y508738D01*
X21556Y508760D01*
X21489Y508802D01*
X21371Y508890D01*
X21312Y508912D01*
X21271Y508938D01*
X18349Y510148D01*
X14848Y513649D01*
X12953Y518224D01*
X12953Y523176D01*
X14848Y527751D01*
X18349Y531252D01*
X21271Y532462D01*
X21296Y532477D01*
X21324Y532486D01*
X21419Y532549D01*
X21516Y532607D01*
X21536Y532628D01*
X21561Y532644D01*
X21634Y532731D01*
X21711Y532813D01*
X21725Y532839D01*
X21744Y532862D01*
X21790Y532965D01*
X21841Y533066D01*
X21847Y533095D01*
X21859Y533122D01*
X21875Y533234D01*
X21896Y533345D01*
X21894Y533374D01*
X21898Y533403D01*
X21882Y533515D01*
X21872Y533628D01*
X21861Y533655D01*
X21857Y533685D01*
X21811Y533788D01*
X21770Y533893D01*
X21752Y533917D01*
X21740Y533944D01*
X21667Y534030D01*
X21598Y534120D01*
X21575Y534138D01*
X21556Y534160D01*
X21489Y534202D01*
X21371Y534290D01*
X21312Y534312D01*
X21271Y534338D01*
X18349Y535548D01*
X14848Y539049D01*
X12953Y543624D01*
X12953Y548576D01*
X14848Y553151D01*
X18349Y556652D01*
X22924Y558547D01*
X27876Y558547D01*
X30235Y557570D01*
X30236Y557569D01*
X30238Y557568D01*
X30372Y557534D01*
X30510Y557499D01*
X30512Y557499D01*
X30513Y557498D01*
X30654Y557503D01*
X30794Y557507D01*
X30796Y557507D01*
X30797Y557507D01*
X30930Y557550D01*
X31065Y557593D01*
X31066Y557594D01*
X31068Y557595D01*
X31080Y557603D01*
X31301Y557752D01*
X31321Y557775D01*
X31341Y557790D01*
X36416Y562865D01*
X58127Y562865D01*
X58129Y562865D01*
X58130Y562865D01*
X58270Y562885D01*
X58409Y562905D01*
X58410Y562905D01*
X58412Y562905D01*
X58537Y562962D01*
X58668Y563021D01*
X58669Y563022D01*
X58671Y563023D01*
X58778Y563114D01*
X58885Y563204D01*
X58886Y563206D01*
X58887Y563207D01*
X58895Y563220D01*
X59043Y563441D01*
X59052Y563470D01*
X59065Y563491D01*
X60568Y567121D01*
X64069Y570622D01*
X68644Y572517D01*
X71096Y572517D01*
X71142Y572523D01*
X71188Y572521D01*
X71282Y572543D01*
X71378Y572557D01*
X71420Y572575D01*
X71465Y572586D01*
X71549Y572633D01*
X71637Y572673D01*
X71672Y572703D01*
X71713Y572725D01*
X71780Y572794D01*
X71854Y572856D01*
X71880Y572895D01*
X71912Y572928D01*
X71958Y573013D01*
X72012Y573093D01*
X72026Y573137D01*
X72048Y573178D01*
X72068Y573272D01*
X72097Y573364D01*
X72099Y573410D01*
X72109Y573455D01*
X72102Y573552D01*
X72105Y573648D01*
X72093Y573693D01*
X72090Y573739D01*
X72057Y573830D01*
X72033Y573923D01*
X72009Y573963D01*
X71994Y574007D01*
X71937Y574085D01*
X71888Y574168D01*
X71854Y574199D01*
X71827Y574237D01*
X71766Y574282D01*
X71680Y574362D01*
X71606Y574400D01*
X71557Y574437D01*
X69943Y575259D01*
X68422Y576364D01*
X67094Y577692D01*
X65989Y579213D01*
X65136Y580887D01*
X64555Y582674D01*
X64434Y583439D01*
X74169Y583439D01*
X74169Y572958D01*
X74169Y572956D01*
X74169Y572955D01*
X74190Y572806D01*
X74209Y572676D01*
X74209Y572675D01*
X74209Y572673D01*
X74268Y572545D01*
X74325Y572417D01*
X74326Y572416D01*
X74327Y572414D01*
X74418Y572307D01*
X74509Y572200D01*
X74510Y572199D01*
X74511Y572198D01*
X74524Y572190D01*
X74745Y572042D01*
X74774Y572033D01*
X74795Y572020D01*
X78171Y570622D01*
X81672Y567121D01*
X83567Y562546D01*
X83567Y557594D01*
X81672Y553019D01*
X78171Y549518D01*
X77088Y549070D01*
X77014Y549026D01*
X76936Y548991D01*
X76893Y548954D01*
X76844Y548925D01*
X76785Y548863D01*
X76719Y548807D01*
X76687Y548760D01*
X76648Y548719D01*
X76609Y548642D01*
X76561Y548571D01*
X76544Y548517D01*
X76518Y548466D01*
X76502Y548382D01*
X76476Y548300D01*
X76474Y548243D01*
X76463Y548187D01*
X76471Y548102D01*
X76468Y548016D01*
X76483Y547961D01*
X76488Y547904D01*
X76518Y547823D01*
X76540Y547741D01*
X76569Y547692D01*
X76590Y547639D01*
X76642Y547570D01*
X76685Y547496D01*
X76727Y547457D01*
X76761Y547412D01*
X76830Y547360D01*
X76893Y547302D01*
X76943Y547276D01*
X76989Y547242D01*
X77069Y547211D01*
X77146Y547172D01*
X77195Y547164D01*
X77255Y547141D01*
X77400Y547130D01*
X77477Y547117D01*
X78676Y547117D01*
X83251Y545222D01*
X86752Y541721D01*
X88647Y537146D01*
X88647Y532194D01*
X86752Y527619D01*
X83251Y524118D01*
X78676Y522223D01*
X77477Y522223D01*
X77392Y522211D01*
X77306Y522209D01*
X77252Y522191D01*
X77195Y522183D01*
X77117Y522148D01*
X77035Y522122D01*
X76988Y522090D01*
X76936Y522067D01*
X76870Y522012D01*
X76799Y521964D01*
X76762Y521920D01*
X76719Y521884D01*
X76671Y521812D01*
X76616Y521746D01*
X76593Y521694D01*
X76561Y521647D01*
X76535Y521565D01*
X76501Y521486D01*
X76493Y521430D01*
X76476Y521376D01*
X76473Y521290D01*
X76462Y521205D01*
X76470Y521149D01*
X76468Y521092D01*
X76490Y521009D01*
X76502Y520923D01*
X76526Y520872D01*
X76540Y520817D01*
X76584Y520743D01*
X76619Y520664D01*
X76656Y520621D01*
X76685Y520572D01*
X76748Y520513D01*
X76804Y520448D01*
X76846Y520422D01*
X76893Y520378D01*
X77022Y520312D01*
X77088Y520270D01*
X78171Y519822D01*
X81672Y516321D01*
X83567Y511746D01*
X83567Y506794D01*
X81672Y502219D01*
X78171Y498718D01*
X73596Y496823D01*
X68644Y496823D01*
X64069Y498718D01*
X60568Y502219D01*
X58673Y506794D01*
X58673Y511746D01*
X60568Y516321D01*
X64069Y519822D01*
X68644Y521717D01*
X69843Y521717D01*
X69928Y521729D01*
X70014Y521731D01*
X70068Y521749D01*
X70125Y521757D01*
X70203Y521792D01*
X70285Y521818D01*
X70332Y521850D01*
X70384Y521873D01*
X70450Y521928D01*
X70521Y521976D01*
X70558Y522020D01*
X70601Y522056D01*
X70649Y522128D01*
X70704Y522194D01*
X70727Y522246D01*
X70759Y522293D01*
X70785Y522375D01*
X70819Y522454D01*
X70827Y522510D01*
X70844Y522564D01*
X70847Y522650D01*
X70858Y522735D01*
X70850Y522791D01*
X70852Y522848D01*
X70830Y522931D01*
X70818Y523017D01*
X70794Y523068D01*
X70780Y523123D01*
X70736Y523197D01*
X70701Y523276D01*
X70664Y523319D01*
X70635Y523368D01*
X70572Y523427D01*
X70516Y523492D01*
X70474Y523518D01*
X70427Y523562D01*
X70298Y523628D01*
X70232Y523670D01*
X69149Y524118D01*
X65648Y527619D01*
X64671Y529979D01*
X64670Y529980D01*
X64670Y529981D01*
X64600Y530100D01*
X64527Y530223D01*
X64525Y530224D01*
X64525Y530226D01*
X64421Y530323D01*
X64320Y530419D01*
X64318Y530419D01*
X64317Y530420D01*
X64191Y530485D01*
X64067Y530549D01*
X64066Y530549D01*
X64064Y530550D01*
X64049Y530552D01*
X63788Y530604D01*
X63758Y530601D01*
X63733Y530605D01*
X41474Y530605D01*
X41388Y530593D01*
X41300Y530590D01*
X41248Y530573D01*
X41193Y530565D01*
X41113Y530530D01*
X41030Y530503D01*
X40990Y530475D01*
X40933Y530449D01*
X40820Y530353D01*
X40756Y530308D01*
X39486Y529038D01*
X37090Y526641D01*
X37089Y526640D01*
X37087Y526639D01*
X37005Y526529D01*
X36919Y526414D01*
X36918Y526413D01*
X36917Y526411D01*
X36867Y526279D01*
X36818Y526148D01*
X36817Y526147D01*
X36817Y526145D01*
X36805Y526001D01*
X36794Y525865D01*
X36794Y525864D01*
X36794Y525862D01*
X36798Y525846D01*
X36850Y525586D01*
X36864Y525559D01*
X36870Y525535D01*
X37847Y523176D01*
X37847Y518224D01*
X35952Y513649D01*
X32451Y510148D01*
X29529Y508938D01*
X29504Y508923D01*
X29476Y508914D01*
X29381Y508851D01*
X29284Y508793D01*
X29264Y508772D01*
X29239Y508756D01*
X29167Y508669D01*
X29089Y508587D01*
X29075Y508561D01*
X29057Y508538D01*
X29011Y508435D01*
X28959Y508334D01*
X28953Y508305D01*
X28941Y508278D01*
X28925Y508166D01*
X28904Y508055D01*
X28906Y508026D01*
X28902Y507997D01*
X28918Y507885D01*
X28928Y507772D01*
X28939Y507745D01*
X28943Y507716D01*
X28989Y507612D01*
X29030Y507507D01*
X29048Y507483D01*
X29060Y507456D01*
X29133Y507370D01*
X29202Y507280D01*
X29225Y507262D01*
X29244Y507240D01*
X29311Y507198D01*
X29429Y507110D01*
X29488Y507088D01*
X29529Y507062D01*
X32451Y505852D01*
X35952Y502351D01*
X37847Y497776D01*
X37847Y492824D01*
X35952Y488249D01*
X32451Y484748D01*
X29529Y483538D01*
X29504Y483523D01*
X29476Y483514D01*
X29381Y483451D01*
X29284Y483393D01*
X29264Y483372D01*
X29239Y483356D01*
X29167Y483269D01*
X29089Y483187D01*
X29075Y483161D01*
X29057Y483138D01*
X29011Y483035D01*
X28959Y482934D01*
X28953Y482905D01*
X28941Y482878D01*
X28925Y482766D01*
X28904Y482655D01*
X28906Y482626D01*
X28902Y482597D01*
X28918Y482485D01*
X28928Y482372D01*
X28939Y482345D01*
X28943Y482316D01*
X28989Y482212D01*
X29030Y482107D01*
X29048Y482083D01*
X29060Y482056D01*
X29133Y481970D01*
X29202Y481880D01*
X29225Y481862D01*
X29244Y481840D01*
X29311Y481798D01*
X29429Y481710D01*
X29488Y481688D01*
X29529Y481662D01*
X32451Y480452D01*
X35952Y476951D01*
X37847Y472376D01*
X37847Y467424D01*
X35952Y462849D01*
X32451Y459348D01*
X29529Y458138D01*
X29504Y458123D01*
X29476Y458114D01*
X29381Y458051D01*
X29284Y457993D01*
X29264Y457972D01*
X29239Y457956D01*
X29167Y457869D01*
X29089Y457787D01*
X29075Y457761D01*
X29057Y457738D01*
X29011Y457635D01*
X28959Y457534D01*
X28953Y457505D01*
X28941Y457478D01*
X28925Y457366D01*
X28904Y457255D01*
X28906Y457226D01*
X28902Y457197D01*
X28918Y457085D01*
X28928Y456972D01*
X28939Y456945D01*
X28943Y456916D01*
X28989Y456812D01*
X29030Y456707D01*
X29048Y456683D01*
X29060Y456656D01*
X29133Y456570D01*
X29202Y456480D01*
X29225Y456462D01*
X29244Y456440D01*
X29311Y456398D01*
X29429Y456310D01*
X29488Y456288D01*
X29529Y456262D01*
X32451Y455052D01*
X35952Y451551D01*
X36929Y449191D01*
X36930Y449190D01*
X36930Y449189D01*
X37003Y449067D01*
X37073Y448947D01*
X37075Y448946D01*
X37075Y448944D01*
X37179Y448847D01*
X37280Y448751D01*
X37282Y448751D01*
X37283Y448750D01*
X37409Y448685D01*
X37533Y448621D01*
X37534Y448621D01*
X37536Y448620D01*
X37551Y448618D01*
X37812Y448566D01*
X37842Y448569D01*
X37867Y448565D01*
X60112Y448565D01*
X60199Y448577D01*
X60286Y448580D01*
X60339Y448597D01*
X60394Y448605D01*
X60473Y448640D01*
X60557Y448667D01*
X60596Y448695D01*
X60653Y448721D01*
X60766Y448817D01*
X60830Y448862D01*
X124033Y512065D01*
X167873Y512065D01*
X167875Y512065D01*
X167876Y512065D01*
X168015Y512085D01*
X168155Y512105D01*
X168156Y512105D01*
X168158Y512105D01*
X168283Y512162D01*
X168414Y512221D01*
X168415Y512222D01*
X168417Y512223D01*
X168524Y512314D01*
X168631Y512404D01*
X168632Y512406D01*
X168633Y512407D01*
X168641Y512420D01*
X168789Y512641D01*
X168798Y512670D01*
X168811Y512691D01*
X169788Y515051D01*
X173289Y518552D01*
X174372Y519000D01*
X174446Y519044D01*
X174524Y519079D01*
X174567Y519116D01*
X174616Y519145D01*
X174675Y519207D01*
X174741Y519263D01*
X174773Y519310D01*
X174812Y519351D01*
X174851Y519428D01*
X174899Y519499D01*
X174916Y519553D01*
X174942Y519604D01*
X174958Y519688D01*
X174984Y519770D01*
X174986Y519827D01*
X174997Y519883D01*
X174989Y519968D01*
X174992Y520054D01*
X174977Y520109D01*
X174972Y520166D01*
X174942Y520247D01*
X174920Y520329D01*
X174891Y520378D01*
X174870Y520431D01*
X174818Y520500D01*
X174775Y520574D01*
X174733Y520613D01*
X174699Y520658D01*
X174630Y520710D01*
X174567Y520768D01*
X174517Y520794D01*
X174471Y520828D01*
X174391Y520859D01*
X174314Y520898D01*
X174265Y520906D01*
X174205Y520929D01*
X174060Y520940D01*
X173983Y520953D01*
X172784Y520953D01*
X168209Y522848D01*
X164708Y526349D01*
X162813Y530924D01*
X162813Y535876D01*
X164708Y540451D01*
X168209Y543952D01*
X172784Y545847D01*
X175236Y545847D01*
X175282Y545853D01*
X175328Y545851D01*
X175422Y545873D01*
X175518Y545887D01*
X175560Y545905D01*
X175605Y545916D01*
X175689Y545963D01*
X175777Y546003D01*
X175812Y546033D01*
X175853Y546055D01*
X175920Y546124D01*
X175994Y546186D01*
X176020Y546225D01*
X176052Y546258D01*
X176098Y546343D01*
X176152Y546423D01*
X176166Y546467D01*
X176188Y546508D01*
X176208Y546602D01*
X176237Y546694D01*
X176239Y546740D01*
X176248Y546785D01*
X176242Y546882D01*
X176245Y546978D01*
X176233Y547023D01*
X176230Y547069D01*
X176197Y547160D01*
X176173Y547253D01*
X176149Y547293D01*
X176134Y547337D01*
X176077Y547415D01*
X176028Y547498D01*
X175994Y547529D01*
X175967Y547567D01*
X175906Y547612D01*
X175820Y547692D01*
X175746Y547730D01*
X175697Y547767D01*
X174083Y548589D01*
X172562Y549694D01*
X171234Y551022D01*
X170129Y552543D01*
X169276Y554217D01*
X168695Y556004D01*
X168574Y556769D01*
X178309Y556769D01*
X178309Y546288D01*
X178309Y546286D01*
X178309Y546285D01*
X178330Y546136D01*
X178349Y546006D01*
X178349Y546005D01*
X178349Y546003D01*
X178408Y545875D01*
X178465Y545747D01*
X178466Y545746D01*
X178467Y545744D01*
X178558Y545637D01*
X178649Y545530D01*
X178650Y545529D01*
X178651Y545528D01*
X178664Y545520D01*
X178885Y545372D01*
X178914Y545363D01*
X178935Y545350D01*
X182311Y543952D01*
X185812Y540451D01*
X187707Y535876D01*
X187707Y530924D01*
X185812Y526349D01*
X182311Y522848D01*
X181228Y522400D01*
X181154Y522356D01*
X181076Y522321D01*
X181033Y522284D01*
X180984Y522255D01*
X180925Y522193D01*
X180859Y522137D01*
X180827Y522090D01*
X180788Y522049D01*
X180749Y521972D01*
X180701Y521901D01*
X180684Y521847D01*
X180658Y521796D01*
X180642Y521712D01*
X180616Y521630D01*
X180614Y521573D01*
X180603Y521517D01*
X180611Y521432D01*
X180608Y521346D01*
X180623Y521291D01*
X180628Y521234D01*
X180658Y521153D01*
X180680Y521071D01*
X180709Y521022D01*
X180730Y520969D01*
X180782Y520900D01*
X180825Y520826D01*
X180867Y520787D01*
X180901Y520742D01*
X180970Y520690D01*
X181033Y520632D01*
X181083Y520606D01*
X181129Y520572D01*
X181209Y520541D01*
X181286Y520502D01*
X181335Y520494D01*
X181395Y520471D01*
X181540Y520460D01*
X181617Y520447D01*
X182816Y520447D01*
X187391Y518552D01*
X190892Y515051D01*
X192787Y510476D01*
X192787Y505524D01*
X190892Y500949D01*
X187391Y497448D01*
X182816Y495553D01*
X181617Y495553D01*
X181532Y495541D01*
X181446Y495539D01*
X181392Y495521D01*
X181335Y495513D01*
X181257Y495478D01*
X181175Y495452D01*
X181128Y495420D01*
X181076Y495397D01*
X181010Y495342D01*
X180939Y495294D01*
X180902Y495250D01*
X180859Y495214D01*
X180811Y495142D01*
X180756Y495076D01*
X180733Y495024D01*
X180701Y494977D01*
X180675Y494895D01*
X180641Y494816D01*
X180633Y494760D01*
X180616Y494706D01*
X180613Y494620D01*
X180602Y494535D01*
X180610Y494479D01*
X180608Y494422D01*
X180630Y494339D01*
X180642Y494253D01*
X180666Y494202D01*
X180680Y494147D01*
X180724Y494073D01*
X180759Y493994D01*
X180796Y493951D01*
X180825Y493902D01*
X180888Y493843D01*
X180944Y493778D01*
X180986Y493752D01*
X181033Y493708D01*
X181162Y493642D01*
X181228Y493600D01*
X182311Y493152D01*
X185812Y489651D01*
X187707Y485076D01*
X187707Y480124D01*
X185812Y475549D01*
X182311Y472048D01*
X177736Y470153D01*
X172784Y470153D01*
X168209Y472048D01*
X164708Y475549D01*
X162813Y480124D01*
X162813Y485076D01*
X164708Y489651D01*
X168209Y493152D01*
X172784Y495047D01*
X173983Y495047D01*
X174068Y495059D01*
X174154Y495061D01*
X174208Y495079D01*
X174265Y495087D01*
X174343Y495122D01*
X174425Y495148D01*
X174472Y495180D01*
X174524Y495203D01*
X174590Y495258D01*
X174661Y495306D01*
X174698Y495350D01*
X174741Y495386D01*
X174789Y495458D01*
X174844Y495524D01*
X174867Y495576D01*
X174899Y495623D01*
X174925Y495705D01*
X174959Y495784D01*
X174967Y495840D01*
X174984Y495894D01*
X174987Y495980D01*
X174998Y496065D01*
X174990Y496121D01*
X174992Y496178D01*
X174970Y496261D01*
X174958Y496347D01*
X174934Y496398D01*
X174920Y496453D01*
X174876Y496527D01*
X174841Y496606D01*
X174804Y496649D01*
X174775Y496698D01*
X174712Y496757D01*
X174656Y496822D01*
X174614Y496848D01*
X174567Y496892D01*
X174438Y496958D01*
X174372Y497000D01*
X173289Y497448D01*
X169788Y500949D01*
X168811Y503309D01*
X168810Y503310D01*
X168810Y503311D01*
X168740Y503430D01*
X168667Y503553D01*
X168665Y503554D01*
X168665Y503556D01*
X168561Y503653D01*
X168460Y503749D01*
X168458Y503749D01*
X168457Y503750D01*
X168331Y503815D01*
X168207Y503879D01*
X168206Y503879D01*
X168204Y503880D01*
X168189Y503882D01*
X167928Y503934D01*
X167898Y503931D01*
X167873Y503935D01*
X127821Y503935D01*
X127734Y503923D01*
X127646Y503920D01*
X127594Y503903D01*
X127539Y503895D01*
X127459Y503860D01*
X127376Y503833D01*
X127337Y503805D01*
X127280Y503779D01*
X127166Y503683D01*
X127103Y503638D01*
X63900Y440435D01*
X37867Y440435D01*
X37865Y440435D01*
X37864Y440435D01*
X37725Y440415D01*
X37585Y440395D01*
X37584Y440395D01*
X37582Y440395D01*
X37457Y440338D01*
X37326Y440279D01*
X37325Y440278D01*
X37323Y440277D01*
X37215Y440185D01*
X37109Y440096D01*
X37108Y440094D01*
X37107Y440093D01*
X37099Y440080D01*
X36951Y439859D01*
X36942Y439830D01*
X36929Y439809D01*
X35952Y437449D01*
X32451Y433948D01*
X29529Y432738D01*
X29504Y432723D01*
X29476Y432714D01*
X29381Y432651D01*
X29284Y432593D01*
X29264Y432572D01*
X29239Y432556D01*
X29167Y432469D01*
X29089Y432387D01*
X29075Y432361D01*
X29057Y432338D01*
X29011Y432235D01*
X28959Y432134D01*
X28953Y432105D01*
X28941Y432078D01*
X28925Y431966D01*
X28904Y431855D01*
X28906Y431826D01*
X28902Y431797D01*
X28918Y431685D01*
X28928Y431572D01*
X28939Y431545D01*
X28943Y431516D01*
X28989Y431412D01*
X29030Y431307D01*
X29048Y431283D01*
X29060Y431256D01*
X29133Y431170D01*
X29202Y431080D01*
X29225Y431062D01*
X29244Y431040D01*
X29311Y430998D01*
X29429Y430910D01*
X29488Y430888D01*
X29529Y430862D01*
X32451Y429652D01*
X35952Y426151D01*
X37847Y421576D01*
X37847Y416624D01*
X36870Y414265D01*
X36869Y414264D01*
X36868Y414262D01*
X36834Y414128D01*
X36799Y413990D01*
X36799Y413988D01*
X36798Y413987D01*
X36803Y413846D01*
X36807Y413706D01*
X36807Y413704D01*
X36807Y413703D01*
X36850Y413570D01*
X36893Y413435D01*
X36894Y413434D01*
X36895Y413432D01*
X36903Y413420D01*
X37052Y413199D01*
X37075Y413179D01*
X37090Y413159D01*
X102986Y347262D01*
X103056Y347210D01*
X103120Y347150D01*
X103169Y347124D01*
X103214Y347091D01*
X103295Y347060D01*
X103373Y347020D01*
X103421Y347012D01*
X103479Y346990D01*
X103627Y346978D01*
X103704Y346965D01*
X155173Y346965D01*
X155175Y346965D01*
X155176Y346965D01*
X155315Y346985D01*
X155455Y347005D01*
X155456Y347005D01*
X155458Y347005D01*
X155583Y347062D01*
X155714Y347121D01*
X155715Y347122D01*
X155717Y347123D01*
X155824Y347214D01*
X155931Y347304D01*
X155932Y347306D01*
X155933Y347307D01*
X155941Y347320D01*
X156089Y347541D01*
X156089Y347542D01*
X156098Y347571D01*
X156111Y347591D01*
X157088Y349951D01*
X160589Y353452D01*
X161672Y353900D01*
X161746Y353944D01*
X161824Y353979D01*
X161867Y354016D01*
X161916Y354045D01*
X161975Y354107D01*
X162041Y354163D01*
X162073Y354210D01*
X162112Y354251D01*
X162151Y354328D01*
X162199Y354399D01*
X162216Y354453D01*
X162242Y354504D01*
X162258Y354588D01*
X162284Y354670D01*
X162286Y354727D01*
X162297Y354783D01*
X162289Y354868D01*
X162292Y354954D01*
X162277Y355009D01*
X162272Y355066D01*
X162242Y355147D01*
X162220Y355229D01*
X162191Y355278D01*
X162170Y355331D01*
X162118Y355400D01*
X162075Y355474D01*
X162033Y355513D01*
X161999Y355558D01*
X161930Y355610D01*
X161867Y355668D01*
X161817Y355694D01*
X161771Y355728D01*
X161691Y355759D01*
X161614Y355798D01*
X161565Y355806D01*
X161505Y355829D01*
X161360Y355840D01*
X161283Y355853D01*
X160084Y355853D01*
X155509Y357748D01*
X152008Y361249D01*
X150113Y365824D01*
X150113Y370776D01*
X152008Y375351D01*
X155509Y378852D01*
X160084Y380747D01*
X162536Y380747D01*
X162582Y380753D01*
X162628Y380751D01*
X162722Y380773D01*
X162818Y380787D01*
X162860Y380805D01*
X162905Y380816D01*
X162989Y380863D01*
X163077Y380903D01*
X163112Y380933D01*
X163153Y380955D01*
X163220Y381024D01*
X163294Y381086D01*
X163320Y381125D01*
X163352Y381158D01*
X163398Y381243D01*
X163452Y381323D01*
X163466Y381367D01*
X163488Y381408D01*
X163508Y381502D01*
X163537Y381594D01*
X163539Y381640D01*
X163548Y381685D01*
X163542Y381782D01*
X163545Y381878D01*
X163533Y381923D01*
X163530Y381969D01*
X163497Y382060D01*
X163473Y382153D01*
X163449Y382193D01*
X163434Y382237D01*
X163377Y382315D01*
X163328Y382398D01*
X163294Y382429D01*
X163267Y382467D01*
X163206Y382512D01*
X163120Y382592D01*
X163046Y382630D01*
X162997Y382667D01*
X161383Y383489D01*
X159862Y384594D01*
X158534Y385922D01*
X157429Y387443D01*
X156576Y389117D01*
X155995Y390904D01*
X155874Y391669D01*
X165609Y391669D01*
X165609Y381188D01*
X165609Y381186D01*
X165609Y381185D01*
X165630Y381036D01*
X165649Y380906D01*
X165649Y380905D01*
X165649Y380903D01*
X165708Y380775D01*
X165765Y380647D01*
X165766Y380646D01*
X165767Y380644D01*
X165858Y380537D01*
X165949Y380430D01*
X165950Y380429D01*
X165951Y380428D01*
X165964Y380420D01*
X166185Y380272D01*
X166214Y380263D01*
X166235Y380250D01*
X169611Y378852D01*
X173112Y375351D01*
X175007Y370776D01*
X175007Y365824D01*
X173112Y361249D01*
X169611Y357748D01*
X168528Y357300D01*
X168454Y357256D01*
X168376Y357221D01*
X168333Y357184D01*
X168284Y357155D01*
X168225Y357093D01*
X168159Y357037D01*
X168127Y356990D01*
X168088Y356949D01*
X168049Y356872D01*
X168001Y356801D01*
X167984Y356747D01*
X167958Y356696D01*
X167942Y356612D01*
X167916Y356530D01*
X167914Y356473D01*
X167903Y356417D01*
X167911Y356332D01*
X167908Y356246D01*
X167923Y356191D01*
X167928Y356134D01*
X167958Y356053D01*
X167980Y355971D01*
X168009Y355922D01*
X168030Y355869D01*
X168082Y355800D01*
X168125Y355726D01*
X168167Y355687D01*
X168201Y355642D01*
X168270Y355590D01*
X168333Y355532D01*
X168383Y355506D01*
X168429Y355472D01*
X168509Y355441D01*
X168586Y355402D01*
X168635Y355394D01*
X168695Y355371D01*
X168840Y355360D01*
X168917Y355347D01*
X170116Y355347D01*
X174691Y353452D01*
X178192Y349951D01*
X180087Y345376D01*
X180087Y340424D01*
X178192Y335849D01*
X174691Y332348D01*
X170116Y330453D01*
X168917Y330453D01*
X168832Y330441D01*
X168746Y330439D01*
X168692Y330421D01*
X168635Y330413D01*
X168557Y330378D01*
X168475Y330352D01*
X168428Y330320D01*
X168376Y330297D01*
X168310Y330242D01*
X168239Y330194D01*
X168202Y330150D01*
X168159Y330114D01*
X168111Y330042D01*
X168056Y329976D01*
X168033Y329924D01*
X168001Y329877D01*
X167975Y329795D01*
X167941Y329716D01*
X167933Y329660D01*
X167916Y329606D01*
X167913Y329520D01*
X167902Y329435D01*
X167910Y329379D01*
X167908Y329322D01*
X167930Y329239D01*
X167942Y329153D01*
X167966Y329102D01*
X167980Y329047D01*
X168024Y328973D01*
X168059Y328894D01*
X168096Y328851D01*
X168125Y328802D01*
X168188Y328743D01*
X168244Y328678D01*
X168286Y328652D01*
X168333Y328608D01*
X168462Y328542D01*
X168528Y328500D01*
X169611Y328052D01*
X173112Y324551D01*
X175007Y319976D01*
X175007Y315024D01*
X173112Y310449D01*
X169611Y306948D01*
X165036Y305053D01*
X160084Y305053D01*
G37*
%LPD*%
%LPC*%
G36*
X505524Y178053D02*
X505524Y178053D01*
X500949Y179948D01*
X497448Y183449D01*
X495553Y188024D01*
X495553Y192976D01*
X497448Y197551D01*
X500949Y201052D01*
X503871Y202262D01*
X503896Y202277D01*
X503924Y202286D01*
X504019Y202349D01*
X504116Y202407D01*
X504136Y202428D01*
X504161Y202444D01*
X504234Y202531D01*
X504311Y202613D01*
X504325Y202639D01*
X504344Y202662D01*
X504390Y202765D01*
X504441Y202866D01*
X504447Y202895D01*
X504459Y202922D01*
X504475Y203034D01*
X504496Y203145D01*
X504494Y203174D01*
X504498Y203203D01*
X504482Y203315D01*
X504472Y203428D01*
X504461Y203455D01*
X504457Y203485D01*
X504411Y203588D01*
X504370Y203693D01*
X504352Y203717D01*
X504340Y203744D01*
X504267Y203830D01*
X504198Y203920D01*
X504175Y203938D01*
X504156Y203960D01*
X504089Y204002D01*
X503971Y204090D01*
X503912Y204112D01*
X503871Y204138D01*
X500949Y205348D01*
X497448Y208849D01*
X495553Y213424D01*
X495553Y218376D01*
X497448Y222951D01*
X500949Y226452D01*
X503871Y227662D01*
X503896Y227677D01*
X503924Y227686D01*
X504019Y227749D01*
X504116Y227807D01*
X504136Y227828D01*
X504161Y227844D01*
X504234Y227931D01*
X504311Y228013D01*
X504325Y228039D01*
X504344Y228062D01*
X504390Y228165D01*
X504441Y228266D01*
X504447Y228295D01*
X504459Y228322D01*
X504475Y228434D01*
X504496Y228545D01*
X504494Y228574D01*
X504498Y228603D01*
X504482Y228715D01*
X504472Y228828D01*
X504461Y228855D01*
X504457Y228884D01*
X504411Y228988D01*
X504370Y229093D01*
X504352Y229117D01*
X504340Y229144D01*
X504267Y229230D01*
X504198Y229320D01*
X504175Y229338D01*
X504156Y229360D01*
X504089Y229402D01*
X503971Y229490D01*
X503912Y229512D01*
X503871Y229538D01*
X500949Y230748D01*
X497448Y234249D01*
X495553Y238824D01*
X495553Y243776D01*
X497448Y248351D01*
X500949Y251852D01*
X503871Y253062D01*
X503896Y253077D01*
X503924Y253086D01*
X504019Y253149D01*
X504116Y253207D01*
X504136Y253228D01*
X504161Y253244D01*
X504234Y253331D01*
X504311Y253413D01*
X504325Y253439D01*
X504344Y253462D01*
X504390Y253565D01*
X504441Y253666D01*
X504447Y253695D01*
X504459Y253722D01*
X504475Y253834D01*
X504496Y253945D01*
X504494Y253974D01*
X504498Y254003D01*
X504482Y254115D01*
X504472Y254228D01*
X504461Y254255D01*
X504457Y254284D01*
X504411Y254388D01*
X504370Y254493D01*
X504352Y254517D01*
X504340Y254544D01*
X504267Y254630D01*
X504198Y254720D01*
X504175Y254738D01*
X504156Y254760D01*
X504089Y254802D01*
X503971Y254890D01*
X503912Y254912D01*
X503871Y254938D01*
X500949Y256148D01*
X497448Y259649D01*
X495553Y264224D01*
X495553Y269176D01*
X497448Y273751D01*
X500949Y277252D01*
X503871Y278462D01*
X503896Y278477D01*
X503924Y278486D01*
X504019Y278549D01*
X504116Y278607D01*
X504136Y278628D01*
X504161Y278644D01*
X504234Y278731D01*
X504311Y278813D01*
X504325Y278839D01*
X504344Y278862D01*
X504390Y278965D01*
X504441Y279066D01*
X504447Y279095D01*
X504459Y279122D01*
X504475Y279234D01*
X504496Y279345D01*
X504494Y279374D01*
X504498Y279403D01*
X504482Y279515D01*
X504472Y279628D01*
X504461Y279655D01*
X504457Y279684D01*
X504411Y279788D01*
X504370Y279893D01*
X504352Y279917D01*
X504340Y279944D01*
X504267Y280030D01*
X504198Y280120D01*
X504175Y280138D01*
X504156Y280160D01*
X504089Y280202D01*
X503971Y280290D01*
X503912Y280312D01*
X503871Y280338D01*
X500949Y281548D01*
X497448Y285049D01*
X495553Y289624D01*
X495553Y294576D01*
X497448Y299151D01*
X500949Y302652D01*
X503871Y303862D01*
X503896Y303877D01*
X503924Y303886D01*
X504019Y303949D01*
X504116Y304007D01*
X504136Y304028D01*
X504161Y304044D01*
X504234Y304131D01*
X504311Y304213D01*
X504325Y304239D01*
X504344Y304262D01*
X504390Y304365D01*
X504441Y304466D01*
X504447Y304495D01*
X504459Y304522D01*
X504475Y304634D01*
X504496Y304745D01*
X504494Y304774D01*
X504498Y304803D01*
X504482Y304915D01*
X504472Y305028D01*
X504461Y305055D01*
X504457Y305084D01*
X504411Y305188D01*
X504370Y305293D01*
X504352Y305317D01*
X504340Y305344D01*
X504267Y305430D01*
X504198Y305520D01*
X504175Y305538D01*
X504156Y305560D01*
X504089Y305602D01*
X503971Y305690D01*
X503912Y305712D01*
X503871Y305738D01*
X500949Y306948D01*
X497448Y310449D01*
X495553Y315024D01*
X495553Y319976D01*
X497448Y324551D01*
X500949Y328052D01*
X503871Y329262D01*
X503896Y329277D01*
X503924Y329286D01*
X504019Y329349D01*
X504116Y329407D01*
X504136Y329428D01*
X504161Y329444D01*
X504233Y329531D01*
X504311Y329613D01*
X504325Y329639D01*
X504343Y329662D01*
X504389Y329765D01*
X504441Y329866D01*
X504447Y329895D01*
X504459Y329922D01*
X504475Y330034D01*
X504496Y330145D01*
X504494Y330174D01*
X504498Y330203D01*
X504482Y330315D01*
X504472Y330428D01*
X504461Y330455D01*
X504457Y330484D01*
X504411Y330588D01*
X504370Y330693D01*
X504352Y330717D01*
X504340Y330744D01*
X504267Y330830D01*
X504198Y330920D01*
X504175Y330938D01*
X504156Y330960D01*
X504089Y331002D01*
X503971Y331090D01*
X503912Y331112D01*
X503871Y331138D01*
X500949Y332348D01*
X497448Y335849D01*
X495553Y340424D01*
X495553Y345376D01*
X497448Y349951D01*
X500949Y353452D01*
X503871Y354662D01*
X503896Y354677D01*
X503924Y354686D01*
X504019Y354749D01*
X504116Y354807D01*
X504136Y354828D01*
X504161Y354844D01*
X504233Y354931D01*
X504311Y355013D01*
X504325Y355039D01*
X504343Y355062D01*
X504389Y355165D01*
X504441Y355266D01*
X504447Y355295D01*
X504459Y355322D01*
X504475Y355434D01*
X504496Y355545D01*
X504494Y355574D01*
X504498Y355603D01*
X504482Y355715D01*
X504472Y355828D01*
X504461Y355855D01*
X504457Y355884D01*
X504411Y355988D01*
X504370Y356093D01*
X504352Y356117D01*
X504340Y356144D01*
X504267Y356230D01*
X504198Y356320D01*
X504175Y356338D01*
X504156Y356360D01*
X504089Y356402D01*
X503971Y356490D01*
X503912Y356512D01*
X503871Y356538D01*
X500949Y357748D01*
X497448Y361249D01*
X495553Y365824D01*
X495553Y370776D01*
X497448Y375351D01*
X500949Y378852D01*
X505524Y380747D01*
X510476Y380747D01*
X515051Y378852D01*
X518552Y375351D01*
X520447Y370776D01*
X520447Y365824D01*
X518552Y361249D01*
X515051Y357748D01*
X512129Y356538D01*
X512104Y356523D01*
X512076Y356514D01*
X511981Y356451D01*
X511884Y356393D01*
X511864Y356372D01*
X511839Y356356D01*
X511766Y356269D01*
X511689Y356187D01*
X511675Y356161D01*
X511656Y356138D01*
X511610Y356035D01*
X511559Y355934D01*
X511553Y355905D01*
X511541Y355878D01*
X511525Y355766D01*
X511504Y355655D01*
X511506Y355626D01*
X511502Y355597D01*
X511518Y355485D01*
X511528Y355372D01*
X511539Y355345D01*
X511543Y355315D01*
X511589Y355212D01*
X511630Y355107D01*
X511648Y355083D01*
X511660Y355056D01*
X511733Y354970D01*
X511802Y354880D01*
X511825Y354862D01*
X511844Y354840D01*
X511911Y354798D01*
X512029Y354710D01*
X512088Y354688D01*
X512129Y354662D01*
X515051Y353452D01*
X518552Y349951D01*
X520447Y345376D01*
X520447Y340424D01*
X518552Y335849D01*
X515051Y332348D01*
X512129Y331138D01*
X512104Y331123D01*
X512076Y331114D01*
X511981Y331051D01*
X511884Y330993D01*
X511864Y330972D01*
X511839Y330956D01*
X511766Y330869D01*
X511689Y330787D01*
X511675Y330761D01*
X511656Y330738D01*
X511610Y330635D01*
X511559Y330534D01*
X511553Y330505D01*
X511541Y330478D01*
X511525Y330366D01*
X511504Y330255D01*
X511506Y330226D01*
X511502Y330197D01*
X511518Y330085D01*
X511528Y329972D01*
X511539Y329945D01*
X511543Y329915D01*
X511589Y329812D01*
X511630Y329707D01*
X511648Y329683D01*
X511660Y329656D01*
X511733Y329570D01*
X511802Y329480D01*
X511825Y329462D01*
X511844Y329440D01*
X511911Y329398D01*
X512029Y329310D01*
X512088Y329288D01*
X512129Y329262D01*
X515051Y328052D01*
X518552Y324551D01*
X520447Y319976D01*
X520447Y315024D01*
X518552Y310449D01*
X515051Y306948D01*
X512129Y305738D01*
X512104Y305723D01*
X512076Y305714D01*
X511981Y305651D01*
X511884Y305593D01*
X511864Y305572D01*
X511839Y305556D01*
X511766Y305469D01*
X511689Y305387D01*
X511675Y305361D01*
X511656Y305338D01*
X511610Y305235D01*
X511559Y305134D01*
X511553Y305105D01*
X511541Y305078D01*
X511525Y304966D01*
X511504Y304855D01*
X511506Y304826D01*
X511502Y304797D01*
X511518Y304685D01*
X511528Y304572D01*
X511539Y304545D01*
X511543Y304515D01*
X511589Y304412D01*
X511630Y304307D01*
X511648Y304283D01*
X511660Y304256D01*
X511733Y304170D01*
X511802Y304080D01*
X511825Y304062D01*
X511844Y304040D01*
X511911Y303998D01*
X512029Y303910D01*
X512088Y303888D01*
X512129Y303862D01*
X515051Y302652D01*
X518552Y299151D01*
X520447Y294576D01*
X520447Y289624D01*
X518552Y285049D01*
X515051Y281548D01*
X512129Y280338D01*
X512104Y280323D01*
X512076Y280314D01*
X511981Y280251D01*
X511884Y280193D01*
X511864Y280172D01*
X511839Y280156D01*
X511766Y280069D01*
X511689Y279987D01*
X511675Y279961D01*
X511656Y279938D01*
X511610Y279835D01*
X511559Y279734D01*
X511553Y279705D01*
X511541Y279678D01*
X511525Y279566D01*
X511504Y279455D01*
X511506Y279426D01*
X511502Y279397D01*
X511518Y279285D01*
X511528Y279172D01*
X511539Y279145D01*
X511543Y279115D01*
X511589Y279012D01*
X511630Y278907D01*
X511648Y278883D01*
X511660Y278856D01*
X511733Y278770D01*
X511802Y278680D01*
X511825Y278662D01*
X511844Y278640D01*
X511911Y278598D01*
X512029Y278510D01*
X512088Y278488D01*
X512129Y278462D01*
X515051Y277252D01*
X518552Y273751D01*
X520447Y269176D01*
X520447Y264224D01*
X518552Y259649D01*
X515051Y256148D01*
X512129Y254938D01*
X512104Y254923D01*
X512076Y254914D01*
X511981Y254851D01*
X511884Y254793D01*
X511864Y254772D01*
X511839Y254756D01*
X511766Y254669D01*
X511689Y254587D01*
X511675Y254561D01*
X511656Y254538D01*
X511610Y254435D01*
X511559Y254334D01*
X511553Y254305D01*
X511541Y254278D01*
X511525Y254166D01*
X511504Y254055D01*
X511506Y254026D01*
X511502Y253997D01*
X511518Y253885D01*
X511528Y253772D01*
X511539Y253745D01*
X511543Y253715D01*
X511589Y253612D01*
X511630Y253507D01*
X511648Y253483D01*
X511660Y253456D01*
X511733Y253370D01*
X511802Y253280D01*
X511825Y253262D01*
X511844Y253240D01*
X511911Y253198D01*
X512029Y253110D01*
X512088Y253088D01*
X512129Y253062D01*
X515051Y251852D01*
X518552Y248351D01*
X520447Y243776D01*
X520447Y238824D01*
X518552Y234249D01*
X515051Y230748D01*
X512129Y229538D01*
X512104Y229523D01*
X512076Y229514D01*
X511981Y229451D01*
X511884Y229393D01*
X511864Y229372D01*
X511839Y229356D01*
X511766Y229269D01*
X511689Y229187D01*
X511675Y229161D01*
X511656Y229138D01*
X511610Y229035D01*
X511559Y228934D01*
X511553Y228905D01*
X511541Y228878D01*
X511525Y228766D01*
X511504Y228655D01*
X511506Y228626D01*
X511502Y228597D01*
X511518Y228485D01*
X511528Y228372D01*
X511539Y228345D01*
X511543Y228315D01*
X511589Y228212D01*
X511630Y228107D01*
X511648Y228083D01*
X511660Y228056D01*
X511733Y227970D01*
X511802Y227880D01*
X511825Y227862D01*
X511844Y227840D01*
X511911Y227798D01*
X512029Y227710D01*
X512088Y227688D01*
X512129Y227662D01*
X515051Y226452D01*
X518552Y222951D01*
X520447Y218376D01*
X520447Y213424D01*
X518552Y208849D01*
X515051Y205348D01*
X512129Y204138D01*
X512104Y204123D01*
X512076Y204114D01*
X511981Y204051D01*
X511884Y203993D01*
X511864Y203972D01*
X511839Y203956D01*
X511766Y203869D01*
X511689Y203787D01*
X511675Y203761D01*
X511656Y203738D01*
X511610Y203635D01*
X511559Y203534D01*
X511553Y203505D01*
X511541Y203478D01*
X511525Y203366D01*
X511504Y203255D01*
X511506Y203226D01*
X511502Y203197D01*
X511518Y203085D01*
X511528Y202972D01*
X511539Y202945D01*
X511543Y202916D01*
X511589Y202812D01*
X511630Y202707D01*
X511648Y202683D01*
X511660Y202656D01*
X511733Y202570D01*
X511802Y202480D01*
X511825Y202462D01*
X511844Y202440D01*
X511911Y202398D01*
X512029Y202310D01*
X512088Y202288D01*
X512129Y202262D01*
X515051Y201052D01*
X518552Y197551D01*
X520447Y192976D01*
X520447Y188024D01*
X518552Y183449D01*
X515051Y179948D01*
X510476Y178053D01*
X505524Y178053D01*
G37*
%LPD*%
%LPC*%
G36*
X226624Y535053D02*
X226624Y535053D01*
X222050Y536948D01*
X218548Y540449D01*
X216653Y545024D01*
X216653Y549976D01*
X218548Y554551D01*
X222050Y558052D01*
X224971Y559262D01*
X224997Y559277D01*
X225025Y559286D01*
X225119Y559349D01*
X225216Y559407D01*
X225236Y559428D01*
X225261Y559444D01*
X225334Y559531D01*
X225411Y559613D01*
X225425Y559639D01*
X225444Y559662D01*
X225490Y559765D01*
X225542Y559866D01*
X225547Y559895D01*
X225559Y559922D01*
X225575Y560034D01*
X225597Y560145D01*
X225594Y560174D01*
X225598Y560203D01*
X225582Y560315D01*
X225572Y560428D01*
X225562Y560456D01*
X225557Y560485D01*
X225511Y560588D01*
X225470Y560693D01*
X225452Y560717D01*
X225440Y560744D01*
X225367Y560830D01*
X225299Y560920D01*
X225275Y560938D01*
X225256Y560960D01*
X225189Y561002D01*
X225071Y561090D01*
X225012Y561112D01*
X224971Y561138D01*
X222050Y562348D01*
X218548Y565849D01*
X216653Y570424D01*
X216653Y575376D01*
X218548Y579951D01*
X222050Y583452D01*
X226624Y585347D01*
X231576Y585347D01*
X236151Y583452D01*
X239652Y579951D01*
X240862Y577029D01*
X240877Y577004D01*
X240886Y576976D01*
X240949Y576881D01*
X241007Y576784D01*
X241028Y576764D01*
X241044Y576740D01*
X241131Y576667D01*
X241213Y576589D01*
X241239Y576575D01*
X241262Y576557D01*
X241366Y576510D01*
X241466Y576459D01*
X241495Y576453D01*
X241522Y576441D01*
X241634Y576426D01*
X241745Y576404D01*
X241774Y576406D01*
X241803Y576402D01*
X241916Y576418D01*
X242028Y576428D01*
X242056Y576439D01*
X242085Y576443D01*
X242188Y576489D01*
X242294Y576530D01*
X242317Y576548D01*
X242344Y576560D01*
X242430Y576633D01*
X242520Y576702D01*
X242538Y576725D01*
X242560Y576744D01*
X242602Y576811D01*
X242690Y576929D01*
X242703Y576964D01*
X242720Y576988D01*
X242727Y577011D01*
X242738Y577029D01*
X243948Y579951D01*
X247450Y583452D01*
X252024Y585347D01*
X256976Y585347D01*
X261551Y583452D01*
X265052Y579951D01*
X266262Y577029D01*
X266277Y577004D01*
X266286Y576976D01*
X266349Y576881D01*
X266407Y576784D01*
X266428Y576764D01*
X266444Y576740D01*
X266531Y576667D01*
X266613Y576589D01*
X266639Y576575D01*
X266662Y576557D01*
X266765Y576511D01*
X266866Y576459D01*
X266895Y576453D01*
X266922Y576441D01*
X267034Y576426D01*
X267145Y576404D01*
X267174Y576406D01*
X267203Y576402D01*
X267315Y576418D01*
X267428Y576428D01*
X267456Y576439D01*
X267485Y576443D01*
X267588Y576489D01*
X267694Y576530D01*
X267717Y576548D01*
X267744Y576560D01*
X267830Y576633D01*
X267920Y576702D01*
X267938Y576725D01*
X267960Y576744D01*
X268002Y576811D01*
X268090Y576929D01*
X268103Y576964D01*
X268120Y576988D01*
X268127Y577011D01*
X268138Y577029D01*
X269348Y579951D01*
X272850Y583452D01*
X277424Y585347D01*
X282376Y585347D01*
X286951Y583452D01*
X290452Y579951D01*
X292347Y575376D01*
X292347Y570424D01*
X290452Y565849D01*
X286951Y562348D01*
X284029Y561138D01*
X284004Y561123D01*
X283976Y561114D01*
X283882Y561051D01*
X283784Y560994D01*
X283764Y560972D01*
X283740Y560956D01*
X283667Y560869D01*
X283589Y560787D01*
X283576Y560761D01*
X283557Y560738D01*
X283511Y560635D01*
X283459Y560534D01*
X283453Y560505D01*
X283441Y560479D01*
X283426Y560366D01*
X283404Y560255D01*
X283406Y560226D01*
X283402Y560197D01*
X283418Y560085D01*
X283428Y559972D01*
X283439Y559945D01*
X283443Y559916D01*
X283490Y559812D01*
X283530Y559707D01*
X283548Y559683D01*
X283560Y559656D01*
X283634Y559570D01*
X283702Y559480D01*
X283725Y559462D01*
X283744Y559440D01*
X283811Y559398D01*
X283930Y559310D01*
X283988Y559288D01*
X284029Y559262D01*
X286951Y558052D01*
X290452Y554551D01*
X292347Y549976D01*
X292347Y545024D01*
X290452Y540449D01*
X286951Y536948D01*
X282376Y535053D01*
X277424Y535053D01*
X272850Y536948D01*
X269348Y540449D01*
X268138Y543371D01*
X268123Y543397D01*
X268114Y543424D01*
X268051Y543519D01*
X267994Y543616D01*
X267972Y543636D01*
X267956Y543661D01*
X267869Y543734D01*
X267787Y543811D01*
X267761Y543825D01*
X267738Y543844D01*
X267635Y543890D01*
X267534Y543941D01*
X267505Y543947D01*
X267479Y543959D01*
X267366Y543975D01*
X267255Y543997D01*
X267226Y543994D01*
X267197Y543998D01*
X267085Y543982D01*
X266972Y543972D01*
X266945Y543962D01*
X266916Y543957D01*
X266813Y543911D01*
X266707Y543870D01*
X266683Y543852D01*
X266657Y543840D01*
X266570Y543767D01*
X266480Y543698D01*
X266462Y543675D01*
X266440Y543656D01*
X266399Y543589D01*
X266310Y543471D01*
X266288Y543412D01*
X266262Y543371D01*
X265052Y540450D01*
X261551Y536948D01*
X256976Y535053D01*
X252024Y535053D01*
X247450Y536948D01*
X243948Y540449D01*
X242738Y543371D01*
X242723Y543397D01*
X242714Y543424D01*
X242651Y543519D01*
X242594Y543616D01*
X242572Y543636D01*
X242556Y543661D01*
X242469Y543734D01*
X242387Y543811D01*
X242361Y543825D01*
X242338Y543844D01*
X242235Y543890D01*
X242134Y543941D01*
X242105Y543947D01*
X242079Y543959D01*
X241966Y543975D01*
X241855Y543997D01*
X241826Y543994D01*
X241797Y543998D01*
X241685Y543982D01*
X241572Y543972D01*
X241545Y543962D01*
X241516Y543957D01*
X241413Y543911D01*
X241307Y543870D01*
X241283Y543852D01*
X241257Y543840D01*
X241170Y543767D01*
X241080Y543698D01*
X241062Y543675D01*
X241040Y543656D01*
X240999Y543589D01*
X240910Y543471D01*
X240888Y543412D01*
X240862Y543371D01*
X239652Y540450D01*
X236151Y536948D01*
X231576Y535053D01*
X226624Y535053D01*
G37*
%LPD*%
%LPC*%
G36*
X64434Y587501D02*
X64434Y587501D01*
X64555Y588266D01*
X65136Y590053D01*
X65989Y591727D01*
X67094Y593248D01*
X68422Y594576D01*
X69943Y595681D01*
X71557Y596503D01*
X71595Y596530D01*
X71637Y596549D01*
X71711Y596611D01*
X71790Y596667D01*
X71819Y596703D01*
X71854Y596733D01*
X71908Y596813D01*
X71968Y596888D01*
X71986Y596931D01*
X72012Y596969D01*
X72041Y597061D01*
X72078Y597150D01*
X72083Y597196D01*
X72097Y597240D01*
X72100Y597337D01*
X72111Y597433D01*
X72104Y597478D01*
X72105Y597524D01*
X72080Y597618D01*
X72064Y597713D01*
X72045Y597755D01*
X72033Y597799D01*
X71984Y597882D01*
X71942Y597970D01*
X71911Y598004D01*
X71888Y598044D01*
X71817Y598110D01*
X71753Y598182D01*
X71714Y598207D01*
X71680Y598238D01*
X71594Y598282D01*
X71513Y598334D01*
X71468Y598347D01*
X71427Y598368D01*
X71353Y598380D01*
X71240Y598413D01*
X71156Y598413D01*
X71096Y598423D01*
X68644Y598423D01*
X64069Y600318D01*
X60568Y603819D01*
X58673Y608394D01*
X58673Y613346D01*
X60568Y617921D01*
X64069Y621422D01*
X68644Y623317D01*
X69843Y623317D01*
X69928Y623329D01*
X70014Y623331D01*
X70068Y623349D01*
X70125Y623357D01*
X70203Y623392D01*
X70285Y623418D01*
X70332Y623450D01*
X70384Y623473D01*
X70450Y623528D01*
X70521Y623576D01*
X70558Y623620D01*
X70601Y623656D01*
X70649Y623728D01*
X70704Y623794D01*
X70727Y623846D01*
X70759Y623893D01*
X70785Y623975D01*
X70819Y624054D01*
X70827Y624110D01*
X70844Y624164D01*
X70847Y624250D01*
X70858Y624335D01*
X70850Y624391D01*
X70852Y624448D01*
X70830Y624531D01*
X70818Y624617D01*
X70794Y624668D01*
X70780Y624723D01*
X70736Y624797D01*
X70701Y624876D01*
X70664Y624919D01*
X70635Y624968D01*
X70572Y625027D01*
X70516Y625092D01*
X70474Y625118D01*
X70427Y625162D01*
X70298Y625228D01*
X70232Y625270D01*
X69149Y625718D01*
X65648Y629219D01*
X63753Y633794D01*
X63753Y638746D01*
X65648Y643321D01*
X69149Y646822D01*
X73724Y648717D01*
X78676Y648717D01*
X83251Y646822D01*
X86752Y643321D01*
X88647Y638746D01*
X88647Y633794D01*
X86752Y629219D01*
X83251Y625718D01*
X78676Y623823D01*
X77477Y623823D01*
X77392Y623811D01*
X77306Y623809D01*
X77252Y623791D01*
X77195Y623783D01*
X77117Y623748D01*
X77035Y623722D01*
X76988Y623690D01*
X76936Y623667D01*
X76870Y623612D01*
X76799Y623564D01*
X76762Y623520D01*
X76719Y623484D01*
X76671Y623412D01*
X76616Y623346D01*
X76593Y623294D01*
X76561Y623247D01*
X76535Y623165D01*
X76501Y623086D01*
X76493Y623030D01*
X76476Y622976D01*
X76473Y622890D01*
X76462Y622805D01*
X76470Y622749D01*
X76468Y622692D01*
X76490Y622609D01*
X76502Y622523D01*
X76526Y622472D01*
X76540Y622417D01*
X76584Y622343D01*
X76619Y622264D01*
X76656Y622221D01*
X76685Y622172D01*
X76748Y622113D01*
X76804Y622048D01*
X76846Y622022D01*
X76893Y621978D01*
X77022Y621912D01*
X77088Y621870D01*
X78171Y621422D01*
X81672Y617921D01*
X83567Y613346D01*
X83567Y608394D01*
X81672Y603819D01*
X78171Y600318D01*
X74795Y598920D01*
X74794Y598919D01*
X74793Y598919D01*
X74675Y598849D01*
X74551Y598776D01*
X74550Y598775D01*
X74548Y598774D01*
X74453Y598672D01*
X74355Y598569D01*
X74355Y598568D01*
X74354Y598566D01*
X74291Y598444D01*
X74225Y598316D01*
X74225Y598315D01*
X74224Y598313D01*
X74222Y598298D01*
X74170Y598037D01*
X74173Y598007D01*
X74169Y597982D01*
X74169Y587501D01*
X64434Y587501D01*
G37*
%LPD*%
%LPC*%
G36*
X391283Y576541D02*
X391283Y576541D01*
X388295Y577779D01*
X386009Y580065D01*
X384771Y583053D01*
X384771Y586287D01*
X386009Y589275D01*
X388333Y591598D01*
X388453Y591670D01*
X388454Y591671D01*
X388456Y591672D01*
X388551Y591774D01*
X388648Y591876D01*
X388649Y591878D01*
X388650Y591879D01*
X388714Y592004D01*
X388779Y592129D01*
X388779Y592131D01*
X388780Y592132D01*
X388782Y592147D01*
X388834Y592408D01*
X388831Y592439D01*
X388835Y592463D01*
X388835Y596308D01*
X388835Y596310D01*
X388835Y596311D01*
X388815Y596448D01*
X388795Y596590D01*
X388795Y596591D01*
X388795Y596593D01*
X388739Y596715D01*
X388679Y596849D01*
X388678Y596850D01*
X388677Y596852D01*
X388590Y596955D01*
X388496Y597066D01*
X388494Y597067D01*
X388493Y597068D01*
X388480Y597076D01*
X388259Y597224D01*
X388230Y597233D01*
X388209Y597246D01*
X385418Y598402D01*
X381702Y602118D01*
X379691Y606973D01*
X379691Y612227D01*
X381702Y617082D01*
X385418Y620798D01*
X390273Y622809D01*
X395527Y622809D01*
X400382Y620798D01*
X404098Y617082D01*
X406109Y612227D01*
X406109Y606973D01*
X404098Y602118D01*
X400382Y598402D01*
X397591Y597246D01*
X397590Y597245D01*
X397589Y597245D01*
X397466Y597172D01*
X397347Y597102D01*
X397346Y597101D01*
X397344Y597100D01*
X397247Y596996D01*
X397151Y596895D01*
X397151Y596894D01*
X397150Y596892D01*
X397085Y596767D01*
X397021Y596642D01*
X397021Y596641D01*
X397020Y596639D01*
X397018Y596625D01*
X396966Y596363D01*
X396969Y596333D01*
X396965Y596308D01*
X396965Y592463D01*
X396965Y592462D01*
X396965Y592460D01*
X396986Y592316D01*
X397005Y592182D01*
X397005Y592180D01*
X397005Y592179D01*
X397063Y592051D01*
X397121Y591922D01*
X397122Y591921D01*
X397123Y591920D01*
X397217Y591808D01*
X397304Y591705D01*
X397306Y591704D01*
X397307Y591703D01*
X397320Y591695D01*
X397472Y591593D01*
X399791Y589275D01*
X401029Y586287D01*
X401029Y583053D01*
X399791Y580065D01*
X397505Y577779D01*
X394517Y576541D01*
X391283Y576541D01*
G37*
%LPD*%
%LPC*%
G36*
X78231Y587501D02*
X78231Y587501D01*
X78231Y597236D01*
X78996Y597115D01*
X80783Y596534D01*
X82457Y595681D01*
X83978Y594576D01*
X85306Y593248D01*
X86411Y591727D01*
X87264Y590053D01*
X87845Y588266D01*
X87966Y587501D01*
X78231Y587501D01*
G37*
%LPD*%
%LPC*%
G36*
X78231Y583439D02*
X78231Y583439D01*
X87966Y583439D01*
X87845Y582674D01*
X87264Y580887D01*
X86411Y579213D01*
X85306Y577692D01*
X83978Y576364D01*
X82457Y575259D01*
X80783Y574406D01*
X78996Y573825D01*
X78231Y573704D01*
X78231Y583439D01*
G37*
%LPD*%
%LPC*%
G36*
X182371Y556769D02*
X182371Y556769D01*
X192106Y556769D01*
X191985Y556004D01*
X191404Y554217D01*
X190551Y552543D01*
X189446Y551022D01*
X188118Y549694D01*
X186597Y548589D01*
X184923Y547736D01*
X183136Y547155D01*
X182371Y547034D01*
X182371Y556769D01*
G37*
%LPD*%
%LPC*%
G36*
X169671Y391669D02*
X169671Y391669D01*
X179406Y391669D01*
X179285Y390904D01*
X178704Y389117D01*
X177851Y387443D01*
X176746Y385922D01*
X175418Y384594D01*
X173897Y383489D01*
X172223Y382636D01*
X170436Y382055D01*
X169671Y381934D01*
X169671Y391669D01*
G37*
%LPD*%
%LPC*%
G36*
X447801Y340869D02*
X447801Y340869D01*
X457536Y340869D01*
X457415Y340104D01*
X456834Y338317D01*
X455981Y336643D01*
X454876Y335122D01*
X453548Y333794D01*
X452027Y332689D01*
X450353Y331836D01*
X448566Y331255D01*
X447801Y331134D01*
X447801Y340869D01*
G37*
%LPD*%
%LPC*%
G36*
X292861Y201169D02*
X292861Y201169D01*
X302596Y201169D01*
X302475Y200404D01*
X301894Y198617D01*
X301041Y196943D01*
X299936Y195422D01*
X298608Y194094D01*
X297087Y192989D01*
X295413Y192136D01*
X293626Y191555D01*
X292861Y191434D01*
X292861Y201169D01*
G37*
%LPD*%
%LPC*%
G36*
X442974Y331255D02*
X442974Y331255D01*
X441187Y331836D01*
X439513Y332689D01*
X437992Y333794D01*
X436664Y335122D01*
X435559Y336643D01*
X434706Y338317D01*
X434125Y340104D01*
X434004Y340869D01*
X443739Y340869D01*
X443739Y331134D01*
X442974Y331255D01*
G37*
%LPD*%
%LPC*%
G36*
X288034Y191555D02*
X288034Y191555D01*
X286247Y192136D01*
X284573Y192989D01*
X283052Y194094D01*
X281724Y195422D01*
X280619Y196943D01*
X279766Y198617D01*
X279185Y200404D01*
X279064Y201169D01*
X288799Y201169D01*
X288799Y191434D01*
X288034Y191555D01*
G37*
%LPD*%
%LPC*%
G36*
X76199Y585469D02*
X76199Y585469D01*
X76199Y585471D01*
X76201Y585471D01*
X76201Y585469D01*
X76199Y585469D01*
G37*
%LPD*%
D10*
X508000Y241300D03*
X508000Y266700D03*
X508000Y292100D03*
X508000Y317500D03*
X508000Y342900D03*
X508000Y368300D03*
X508000Y419100D03*
X508000Y444500D03*
X508000Y469900D03*
X508000Y495300D03*
X508000Y520700D03*
X508000Y546100D03*
X25400Y546100D03*
X25400Y520700D03*
X25400Y495300D03*
X25400Y469900D03*
X25400Y444500D03*
X25400Y419100D03*
X25400Y393700D03*
X25400Y368300D03*
X25400Y327660D03*
X25400Y302260D03*
X25400Y276860D03*
X25400Y251460D03*
X25400Y226060D03*
X25400Y200660D03*
X25400Y175260D03*
X25400Y149860D03*
X25400Y124460D03*
X25400Y99060D03*
X508000Y215900D03*
X508000Y190500D03*
X229100Y547500D03*
X229100Y572900D03*
X254500Y547500D03*
X279900Y547500D03*
X254500Y572900D03*
X279900Y572900D03*
X445770Y546100D03*
X443230Y520700D03*
X445770Y495300D03*
X443230Y469900D03*
X445770Y444500D03*
X443230Y419100D03*
X445770Y393700D03*
X443230Y368300D03*
X445770Y342900D03*
X293370Y482600D03*
X290830Y457200D03*
X293370Y431800D03*
X290830Y406400D03*
X293370Y381000D03*
X290830Y355600D03*
X293370Y330200D03*
X290830Y304800D03*
X293370Y279400D03*
X290830Y254000D03*
X293370Y228600D03*
X290830Y203200D03*
X76200Y636270D03*
X71120Y610870D03*
X76200Y585470D03*
X71120Y560070D03*
X76200Y534670D03*
X71120Y509270D03*
X175260Y482600D03*
X180340Y508000D03*
X175260Y533400D03*
X180340Y558800D03*
X175260Y584200D03*
X180340Y609600D03*
X162560Y317500D03*
X167640Y342900D03*
X162560Y368300D03*
X167640Y393700D03*
X162560Y419100D03*
X167640Y444500D03*
D11*
X342900Y609600D03*
D12*
X392900Y609600D03*
D13*
X343146Y609354D02*
X342900Y609600D01*
X343146Y609354D02*
X343146Y567745D01*
X267970Y492569D01*
X267970Y469900D01*
X280670Y457200D01*
D14*
X280670Y457200D03*
D13*
X443230Y419100D02*
X508000Y419100D01*
X508000Y444500D02*
X445770Y444500D01*
X443230Y469900D02*
X508000Y469900D01*
X508000Y495300D02*
X445770Y495300D01*
X443230Y520700D02*
X508000Y520700D01*
X508000Y546100D02*
X445770Y546100D01*
X86360Y241300D02*
X25400Y302260D01*
X86360Y241300D02*
X280670Y241300D01*
D14*
X280670Y241300D03*
D13*
X94220Y258840D02*
X25400Y327660D01*
X94220Y258840D02*
X270270Y258840D01*
D14*
X270270Y258840D03*
D13*
X278130Y368300D02*
X213360Y368300D01*
X162560Y419100D01*
X278130Y368300D02*
X290830Y355600D01*
X280670Y393700D02*
X218440Y393700D01*
X167640Y444500D01*
X280670Y393700D02*
X280670Y391160D01*
D14*
X280670Y391160D03*
D13*
X278130Y406400D02*
X200660Y483870D01*
X200660Y558800D02*
X175260Y584200D01*
X200660Y558800D02*
X200660Y483870D01*
D14*
X278130Y406400D03*
D13*
X280670Y431800D02*
X205740Y506730D01*
X205740Y584200D02*
X180340Y609600D01*
X205740Y584200D02*
X205740Y506730D01*
D14*
X280670Y431800D03*
D13*
X392900Y584670D02*
X392900Y609600D01*
D14*
X392900Y584670D03*
D13*
X38100Y533400D02*
X25400Y520700D01*
X38100Y533400D02*
X39370Y534670D01*
X76200Y534670D01*
X74930Y558800D02*
X38100Y558800D01*
X25400Y546100D01*
D14*
X74930Y558800D03*
D13*
X125716Y508000D02*
X180340Y508000D01*
X125716Y508000D02*
X62858Y445142D01*
X62470Y444754D01*
X62216Y444500D01*
X38100Y444500D01*
X25400Y444500D01*
X25400Y419100D02*
X101600Y342900D01*
X167640Y342900D01*
M02*
