G04 EAGLE Gerber RS-274X export*
G75*
%MOMM*%
%FSLAX34Y34*%
%LPD*%
%INSilkscreen Top*%
%IPPOS*%
%AMOC8*
5,1,8,0,0,1.08239X$1,22.5*%
G01*
%ADD10C,0.101600*%
%ADD11C,0.203200*%
%ADD12C,0.127000*%


D10*
X95871Y631698D02*
X90678Y631698D01*
X90678Y643382D01*
X95871Y643382D01*
X94573Y638189D02*
X90678Y638189D01*
X100561Y643382D02*
X100561Y631698D01*
X107053Y631698D02*
X100561Y643382D01*
X107053Y643382D02*
X107053Y631698D01*
X90678Y615442D02*
X94573Y603758D01*
X98467Y615442D01*
X105320Y603758D02*
X107917Y603758D01*
X105320Y603758D02*
X105221Y603760D01*
X105121Y603766D01*
X105022Y603775D01*
X104924Y603788D01*
X104826Y603805D01*
X104728Y603826D01*
X104632Y603851D01*
X104537Y603879D01*
X104443Y603911D01*
X104350Y603946D01*
X104258Y603985D01*
X104168Y604028D01*
X104080Y604073D01*
X103993Y604123D01*
X103909Y604175D01*
X103826Y604231D01*
X103746Y604289D01*
X103668Y604351D01*
X103593Y604416D01*
X103520Y604484D01*
X103450Y604554D01*
X103382Y604627D01*
X103317Y604702D01*
X103255Y604780D01*
X103197Y604860D01*
X103141Y604943D01*
X103089Y605027D01*
X103039Y605114D01*
X102994Y605202D01*
X102951Y605292D01*
X102912Y605384D01*
X102877Y605477D01*
X102845Y605571D01*
X102817Y605666D01*
X102792Y605762D01*
X102771Y605860D01*
X102754Y605958D01*
X102741Y606056D01*
X102732Y606155D01*
X102726Y606255D01*
X102724Y606354D01*
X102724Y612846D01*
X102726Y612945D01*
X102732Y613045D01*
X102741Y613144D01*
X102754Y613242D01*
X102771Y613340D01*
X102792Y613438D01*
X102817Y613534D01*
X102845Y613629D01*
X102877Y613723D01*
X102912Y613816D01*
X102951Y613908D01*
X102994Y613998D01*
X103039Y614086D01*
X103089Y614173D01*
X103141Y614257D01*
X103197Y614340D01*
X103255Y614420D01*
X103317Y614498D01*
X103382Y614573D01*
X103450Y614646D01*
X103520Y614716D01*
X103593Y614784D01*
X103668Y614849D01*
X103746Y614911D01*
X103826Y614969D01*
X103909Y615025D01*
X103993Y615077D01*
X104080Y615127D01*
X104168Y615172D01*
X104258Y615215D01*
X104350Y615254D01*
X104442Y615289D01*
X104537Y615321D01*
X104632Y615349D01*
X104728Y615374D01*
X104826Y615395D01*
X104924Y615412D01*
X105022Y615425D01*
X105121Y615434D01*
X105221Y615440D01*
X105320Y615442D01*
X107917Y615442D01*
X114845Y603758D02*
X117442Y603758D01*
X114845Y603758D02*
X114746Y603760D01*
X114646Y603766D01*
X114547Y603775D01*
X114449Y603788D01*
X114351Y603805D01*
X114253Y603826D01*
X114157Y603851D01*
X114062Y603879D01*
X113968Y603911D01*
X113875Y603946D01*
X113783Y603985D01*
X113693Y604028D01*
X113605Y604073D01*
X113518Y604123D01*
X113434Y604175D01*
X113351Y604231D01*
X113271Y604289D01*
X113193Y604351D01*
X113118Y604416D01*
X113045Y604484D01*
X112975Y604554D01*
X112907Y604627D01*
X112842Y604702D01*
X112780Y604780D01*
X112722Y604860D01*
X112666Y604943D01*
X112614Y605027D01*
X112564Y605114D01*
X112519Y605202D01*
X112476Y605292D01*
X112437Y605384D01*
X112402Y605477D01*
X112370Y605571D01*
X112342Y605666D01*
X112317Y605762D01*
X112296Y605860D01*
X112279Y605958D01*
X112266Y606056D01*
X112257Y606155D01*
X112251Y606255D01*
X112249Y606354D01*
X112249Y612846D01*
X112251Y612945D01*
X112257Y613045D01*
X112266Y613144D01*
X112279Y613242D01*
X112296Y613340D01*
X112317Y613438D01*
X112342Y613534D01*
X112370Y613629D01*
X112402Y613723D01*
X112437Y613816D01*
X112476Y613908D01*
X112519Y613998D01*
X112564Y614086D01*
X112614Y614173D01*
X112666Y614257D01*
X112722Y614340D01*
X112780Y614420D01*
X112842Y614498D01*
X112907Y614573D01*
X112975Y614646D01*
X113045Y614716D01*
X113118Y614784D01*
X113193Y614849D01*
X113271Y614911D01*
X113351Y614969D01*
X113434Y615025D01*
X113518Y615077D01*
X113605Y615127D01*
X113693Y615172D01*
X113783Y615215D01*
X113875Y615254D01*
X113967Y615289D01*
X114062Y615321D01*
X114157Y615349D01*
X114253Y615374D01*
X114351Y615395D01*
X114449Y615412D01*
X114547Y615425D01*
X114646Y615434D01*
X114746Y615440D01*
X114845Y615442D01*
X117442Y615442D01*
X130831Y537972D02*
X134726Y526288D01*
X138620Y537972D01*
X145473Y526288D02*
X148070Y526288D01*
X145473Y526288D02*
X145374Y526290D01*
X145274Y526296D01*
X145175Y526305D01*
X145077Y526318D01*
X144979Y526335D01*
X144881Y526356D01*
X144785Y526381D01*
X144690Y526409D01*
X144596Y526441D01*
X144503Y526476D01*
X144411Y526515D01*
X144321Y526558D01*
X144233Y526603D01*
X144146Y526653D01*
X144062Y526705D01*
X143979Y526761D01*
X143899Y526819D01*
X143821Y526881D01*
X143746Y526946D01*
X143673Y527014D01*
X143603Y527084D01*
X143535Y527157D01*
X143470Y527232D01*
X143408Y527310D01*
X143350Y527390D01*
X143294Y527473D01*
X143242Y527557D01*
X143192Y527644D01*
X143147Y527732D01*
X143104Y527822D01*
X143065Y527914D01*
X143030Y528007D01*
X142998Y528101D01*
X142970Y528196D01*
X142945Y528292D01*
X142924Y528390D01*
X142907Y528488D01*
X142894Y528586D01*
X142885Y528685D01*
X142879Y528785D01*
X142877Y528884D01*
X142877Y535376D01*
X142879Y535475D01*
X142885Y535575D01*
X142894Y535674D01*
X142907Y535772D01*
X142924Y535870D01*
X142945Y535968D01*
X142970Y536064D01*
X142998Y536159D01*
X143030Y536253D01*
X143065Y536346D01*
X143104Y536438D01*
X143147Y536528D01*
X143192Y536616D01*
X143242Y536703D01*
X143294Y536787D01*
X143350Y536870D01*
X143408Y536950D01*
X143470Y537028D01*
X143535Y537103D01*
X143603Y537176D01*
X143673Y537246D01*
X143746Y537314D01*
X143821Y537379D01*
X143899Y537441D01*
X143979Y537499D01*
X144062Y537555D01*
X144146Y537607D01*
X144233Y537657D01*
X144321Y537702D01*
X144411Y537745D01*
X144503Y537784D01*
X144595Y537819D01*
X144690Y537851D01*
X144785Y537879D01*
X144881Y537904D01*
X144979Y537925D01*
X145077Y537942D01*
X145175Y537955D01*
X145274Y537964D01*
X145374Y537970D01*
X145473Y537972D01*
X148070Y537972D01*
X154998Y526288D02*
X157595Y526288D01*
X154998Y526288D02*
X154899Y526290D01*
X154799Y526296D01*
X154700Y526305D01*
X154602Y526318D01*
X154504Y526335D01*
X154406Y526356D01*
X154310Y526381D01*
X154215Y526409D01*
X154121Y526441D01*
X154028Y526476D01*
X153936Y526515D01*
X153846Y526558D01*
X153758Y526603D01*
X153671Y526653D01*
X153587Y526705D01*
X153504Y526761D01*
X153424Y526819D01*
X153346Y526881D01*
X153271Y526946D01*
X153198Y527014D01*
X153128Y527084D01*
X153060Y527157D01*
X152995Y527232D01*
X152933Y527310D01*
X152875Y527390D01*
X152819Y527473D01*
X152767Y527557D01*
X152717Y527644D01*
X152672Y527732D01*
X152629Y527822D01*
X152590Y527914D01*
X152555Y528007D01*
X152523Y528101D01*
X152495Y528196D01*
X152470Y528292D01*
X152449Y528390D01*
X152432Y528488D01*
X152419Y528586D01*
X152410Y528685D01*
X152404Y528785D01*
X152402Y528884D01*
X152402Y535376D01*
X152404Y535475D01*
X152410Y535575D01*
X152419Y535674D01*
X152432Y535772D01*
X152449Y535870D01*
X152470Y535968D01*
X152495Y536064D01*
X152523Y536159D01*
X152555Y536253D01*
X152590Y536346D01*
X152629Y536438D01*
X152672Y536528D01*
X152717Y536616D01*
X152767Y536703D01*
X152819Y536787D01*
X152875Y536870D01*
X152933Y536950D01*
X152995Y537028D01*
X153060Y537103D01*
X153128Y537176D01*
X153198Y537246D01*
X153271Y537314D01*
X153346Y537379D01*
X153424Y537441D01*
X153504Y537499D01*
X153587Y537555D01*
X153671Y537607D01*
X153758Y537657D01*
X153846Y537702D01*
X153936Y537745D01*
X154028Y537784D01*
X154120Y537819D01*
X154215Y537851D01*
X154310Y537879D01*
X154406Y537904D01*
X154504Y537925D01*
X154602Y537942D01*
X154700Y537955D01*
X154799Y537964D01*
X154899Y537970D01*
X154998Y537972D01*
X157595Y537972D01*
X116861Y374142D02*
X120756Y362458D01*
X124650Y374142D01*
X131503Y362458D02*
X134100Y362458D01*
X131503Y362458D02*
X131404Y362460D01*
X131304Y362466D01*
X131205Y362475D01*
X131107Y362488D01*
X131009Y362505D01*
X130911Y362526D01*
X130815Y362551D01*
X130720Y362579D01*
X130626Y362611D01*
X130533Y362646D01*
X130441Y362685D01*
X130351Y362728D01*
X130263Y362773D01*
X130176Y362823D01*
X130092Y362875D01*
X130009Y362931D01*
X129929Y362989D01*
X129851Y363051D01*
X129776Y363116D01*
X129703Y363184D01*
X129633Y363254D01*
X129565Y363327D01*
X129500Y363402D01*
X129438Y363480D01*
X129380Y363560D01*
X129324Y363643D01*
X129272Y363727D01*
X129222Y363814D01*
X129177Y363902D01*
X129134Y363992D01*
X129095Y364084D01*
X129060Y364177D01*
X129028Y364271D01*
X129000Y364366D01*
X128975Y364462D01*
X128954Y364560D01*
X128937Y364658D01*
X128924Y364756D01*
X128915Y364855D01*
X128909Y364955D01*
X128907Y365054D01*
X128907Y371546D01*
X128909Y371645D01*
X128915Y371745D01*
X128924Y371844D01*
X128937Y371942D01*
X128954Y372040D01*
X128975Y372138D01*
X129000Y372234D01*
X129028Y372329D01*
X129060Y372423D01*
X129095Y372516D01*
X129134Y372608D01*
X129177Y372698D01*
X129222Y372786D01*
X129272Y372873D01*
X129324Y372957D01*
X129380Y373040D01*
X129438Y373120D01*
X129500Y373198D01*
X129565Y373273D01*
X129633Y373346D01*
X129703Y373416D01*
X129776Y373484D01*
X129851Y373549D01*
X129929Y373611D01*
X130009Y373669D01*
X130092Y373725D01*
X130176Y373777D01*
X130263Y373827D01*
X130351Y373872D01*
X130441Y373915D01*
X130533Y373954D01*
X130625Y373989D01*
X130720Y374021D01*
X130815Y374049D01*
X130911Y374074D01*
X131009Y374095D01*
X131107Y374112D01*
X131205Y374125D01*
X131304Y374134D01*
X131404Y374140D01*
X131503Y374142D01*
X134100Y374142D01*
X141028Y362458D02*
X143625Y362458D01*
X141028Y362458D02*
X140929Y362460D01*
X140829Y362466D01*
X140730Y362475D01*
X140632Y362488D01*
X140534Y362505D01*
X140436Y362526D01*
X140340Y362551D01*
X140245Y362579D01*
X140151Y362611D01*
X140058Y362646D01*
X139966Y362685D01*
X139876Y362728D01*
X139788Y362773D01*
X139701Y362823D01*
X139617Y362875D01*
X139534Y362931D01*
X139454Y362989D01*
X139376Y363051D01*
X139301Y363116D01*
X139228Y363184D01*
X139158Y363254D01*
X139090Y363327D01*
X139025Y363402D01*
X138963Y363480D01*
X138905Y363560D01*
X138849Y363643D01*
X138797Y363727D01*
X138747Y363814D01*
X138702Y363902D01*
X138659Y363992D01*
X138620Y364084D01*
X138585Y364177D01*
X138553Y364271D01*
X138525Y364366D01*
X138500Y364462D01*
X138479Y364560D01*
X138462Y364658D01*
X138449Y364756D01*
X138440Y364855D01*
X138434Y364955D01*
X138432Y365054D01*
X138432Y371546D01*
X138434Y371645D01*
X138440Y371745D01*
X138449Y371844D01*
X138462Y371942D01*
X138479Y372040D01*
X138500Y372138D01*
X138525Y372234D01*
X138553Y372329D01*
X138585Y372423D01*
X138620Y372516D01*
X138659Y372608D01*
X138702Y372698D01*
X138747Y372786D01*
X138797Y372873D01*
X138849Y372957D01*
X138905Y373040D01*
X138963Y373120D01*
X139025Y373198D01*
X139090Y373273D01*
X139158Y373346D01*
X139228Y373416D01*
X139301Y373484D01*
X139376Y373549D01*
X139454Y373611D01*
X139534Y373669D01*
X139617Y373725D01*
X139701Y373777D01*
X139788Y373827D01*
X139876Y373872D01*
X139966Y373915D01*
X140058Y373954D01*
X140150Y373989D01*
X140245Y374021D01*
X140340Y374049D01*
X140436Y374074D01*
X140534Y374095D01*
X140632Y374112D01*
X140730Y374125D01*
X140829Y374134D01*
X140929Y374140D01*
X141028Y374142D01*
X143625Y374142D01*
X307848Y234442D02*
X311743Y222758D01*
X315637Y234442D01*
X322490Y222758D02*
X325087Y222758D01*
X322490Y222758D02*
X322391Y222760D01*
X322291Y222766D01*
X322192Y222775D01*
X322094Y222788D01*
X321996Y222805D01*
X321898Y222826D01*
X321802Y222851D01*
X321707Y222879D01*
X321613Y222911D01*
X321520Y222946D01*
X321428Y222985D01*
X321338Y223028D01*
X321250Y223073D01*
X321163Y223123D01*
X321079Y223175D01*
X320996Y223231D01*
X320916Y223289D01*
X320838Y223351D01*
X320763Y223416D01*
X320690Y223484D01*
X320620Y223554D01*
X320552Y223627D01*
X320487Y223702D01*
X320425Y223780D01*
X320367Y223860D01*
X320311Y223943D01*
X320259Y224027D01*
X320209Y224114D01*
X320164Y224202D01*
X320121Y224292D01*
X320082Y224384D01*
X320047Y224477D01*
X320015Y224571D01*
X319987Y224666D01*
X319962Y224762D01*
X319941Y224860D01*
X319924Y224958D01*
X319911Y225056D01*
X319902Y225155D01*
X319896Y225255D01*
X319894Y225354D01*
X319894Y231846D01*
X319896Y231945D01*
X319902Y232045D01*
X319911Y232144D01*
X319924Y232242D01*
X319941Y232340D01*
X319962Y232438D01*
X319987Y232534D01*
X320015Y232629D01*
X320047Y232723D01*
X320082Y232816D01*
X320121Y232908D01*
X320164Y232998D01*
X320209Y233086D01*
X320259Y233173D01*
X320311Y233257D01*
X320367Y233340D01*
X320425Y233420D01*
X320487Y233498D01*
X320552Y233573D01*
X320620Y233646D01*
X320690Y233716D01*
X320763Y233784D01*
X320838Y233849D01*
X320916Y233911D01*
X320996Y233969D01*
X321079Y234025D01*
X321163Y234077D01*
X321250Y234127D01*
X321338Y234172D01*
X321428Y234215D01*
X321520Y234254D01*
X321612Y234289D01*
X321707Y234321D01*
X321802Y234349D01*
X321898Y234374D01*
X321996Y234395D01*
X322094Y234412D01*
X322192Y234425D01*
X322291Y234434D01*
X322391Y234440D01*
X322490Y234442D01*
X325087Y234442D01*
X332015Y222758D02*
X334612Y222758D01*
X332015Y222758D02*
X331916Y222760D01*
X331816Y222766D01*
X331717Y222775D01*
X331619Y222788D01*
X331521Y222805D01*
X331423Y222826D01*
X331327Y222851D01*
X331232Y222879D01*
X331138Y222911D01*
X331045Y222946D01*
X330953Y222985D01*
X330863Y223028D01*
X330775Y223073D01*
X330688Y223123D01*
X330604Y223175D01*
X330521Y223231D01*
X330441Y223289D01*
X330363Y223351D01*
X330288Y223416D01*
X330215Y223484D01*
X330145Y223554D01*
X330077Y223627D01*
X330012Y223702D01*
X329950Y223780D01*
X329892Y223860D01*
X329836Y223943D01*
X329784Y224027D01*
X329734Y224114D01*
X329689Y224202D01*
X329646Y224292D01*
X329607Y224384D01*
X329572Y224477D01*
X329540Y224571D01*
X329512Y224666D01*
X329487Y224762D01*
X329466Y224860D01*
X329449Y224958D01*
X329436Y225056D01*
X329427Y225155D01*
X329421Y225255D01*
X329419Y225354D01*
X329419Y231846D01*
X329421Y231945D01*
X329427Y232045D01*
X329436Y232144D01*
X329449Y232242D01*
X329466Y232340D01*
X329487Y232438D01*
X329512Y232534D01*
X329540Y232629D01*
X329572Y232723D01*
X329607Y232816D01*
X329646Y232908D01*
X329689Y232998D01*
X329734Y233086D01*
X329784Y233173D01*
X329836Y233257D01*
X329892Y233340D01*
X329950Y233420D01*
X330012Y233498D01*
X330077Y233573D01*
X330145Y233646D01*
X330215Y233716D01*
X330288Y233784D01*
X330363Y233849D01*
X330441Y233911D01*
X330521Y233969D01*
X330604Y234025D01*
X330688Y234077D01*
X330775Y234127D01*
X330863Y234172D01*
X330953Y234215D01*
X331045Y234254D01*
X331137Y234289D01*
X331232Y234321D01*
X331327Y234349D01*
X331423Y234374D01*
X331521Y234395D01*
X331619Y234412D01*
X331717Y234425D01*
X331816Y234434D01*
X331916Y234440D01*
X332015Y234442D01*
X334612Y234442D01*
X397047Y363728D02*
X393152Y375412D01*
X400942Y375412D02*
X397047Y363728D01*
X407795Y363728D02*
X410391Y363728D01*
X407795Y363728D02*
X407696Y363730D01*
X407596Y363736D01*
X407497Y363745D01*
X407399Y363758D01*
X407301Y363775D01*
X407203Y363796D01*
X407107Y363821D01*
X407012Y363849D01*
X406918Y363881D01*
X406825Y363916D01*
X406733Y363955D01*
X406643Y363998D01*
X406555Y364043D01*
X406468Y364093D01*
X406384Y364145D01*
X406301Y364201D01*
X406221Y364259D01*
X406143Y364321D01*
X406068Y364386D01*
X405995Y364454D01*
X405925Y364524D01*
X405857Y364597D01*
X405792Y364672D01*
X405730Y364750D01*
X405672Y364830D01*
X405616Y364913D01*
X405564Y364997D01*
X405514Y365084D01*
X405469Y365172D01*
X405426Y365262D01*
X405387Y365354D01*
X405352Y365447D01*
X405320Y365541D01*
X405292Y365636D01*
X405267Y365732D01*
X405246Y365830D01*
X405229Y365928D01*
X405216Y366026D01*
X405207Y366125D01*
X405201Y366225D01*
X405199Y366324D01*
X405198Y366324D02*
X405198Y372816D01*
X405199Y372816D02*
X405201Y372915D01*
X405207Y373015D01*
X405216Y373114D01*
X405229Y373212D01*
X405246Y373310D01*
X405267Y373408D01*
X405292Y373504D01*
X405320Y373599D01*
X405352Y373693D01*
X405387Y373786D01*
X405426Y373878D01*
X405469Y373968D01*
X405514Y374056D01*
X405564Y374143D01*
X405616Y374227D01*
X405672Y374310D01*
X405730Y374390D01*
X405792Y374468D01*
X405857Y374543D01*
X405925Y374616D01*
X405995Y374686D01*
X406068Y374754D01*
X406143Y374819D01*
X406221Y374881D01*
X406301Y374939D01*
X406384Y374995D01*
X406468Y375047D01*
X406555Y375097D01*
X406643Y375142D01*
X406733Y375185D01*
X406825Y375224D01*
X406917Y375259D01*
X407012Y375291D01*
X407107Y375319D01*
X407203Y375344D01*
X407301Y375365D01*
X407399Y375382D01*
X407497Y375395D01*
X407596Y375404D01*
X407696Y375410D01*
X407795Y375412D01*
X410391Y375412D01*
X417320Y363728D02*
X419916Y363728D01*
X417320Y363728D02*
X417221Y363730D01*
X417121Y363736D01*
X417022Y363745D01*
X416924Y363758D01*
X416826Y363775D01*
X416728Y363796D01*
X416632Y363821D01*
X416537Y363849D01*
X416443Y363881D01*
X416350Y363916D01*
X416258Y363955D01*
X416168Y363998D01*
X416080Y364043D01*
X415993Y364093D01*
X415909Y364145D01*
X415826Y364201D01*
X415746Y364259D01*
X415668Y364321D01*
X415593Y364386D01*
X415520Y364454D01*
X415450Y364524D01*
X415382Y364597D01*
X415317Y364672D01*
X415255Y364750D01*
X415197Y364830D01*
X415141Y364913D01*
X415089Y364997D01*
X415039Y365084D01*
X414994Y365172D01*
X414951Y365262D01*
X414912Y365354D01*
X414877Y365447D01*
X414845Y365541D01*
X414817Y365636D01*
X414792Y365732D01*
X414771Y365830D01*
X414754Y365928D01*
X414741Y366026D01*
X414732Y366125D01*
X414726Y366225D01*
X414724Y366324D01*
X414723Y366324D02*
X414723Y372816D01*
X414724Y372816D02*
X414726Y372915D01*
X414732Y373015D01*
X414741Y373114D01*
X414754Y373212D01*
X414771Y373310D01*
X414792Y373408D01*
X414817Y373504D01*
X414845Y373599D01*
X414877Y373693D01*
X414912Y373786D01*
X414951Y373878D01*
X414994Y373968D01*
X415039Y374056D01*
X415089Y374143D01*
X415141Y374227D01*
X415197Y374310D01*
X415255Y374390D01*
X415317Y374468D01*
X415382Y374543D01*
X415450Y374616D01*
X415520Y374686D01*
X415593Y374754D01*
X415668Y374819D01*
X415746Y374881D01*
X415826Y374939D01*
X415909Y374995D01*
X415993Y375047D01*
X416080Y375097D01*
X416168Y375142D01*
X416258Y375185D01*
X416350Y375224D01*
X416442Y375259D01*
X416537Y375291D01*
X416632Y375319D01*
X416728Y375344D01*
X416826Y375365D01*
X416924Y375382D01*
X417022Y375395D01*
X417121Y375404D01*
X417221Y375410D01*
X417320Y375412D01*
X419916Y375412D01*
X397591Y344819D02*
X395643Y344819D01*
X397591Y344819D02*
X397591Y338328D01*
X393696Y338328D01*
X393597Y338330D01*
X393497Y338336D01*
X393398Y338345D01*
X393300Y338358D01*
X393202Y338375D01*
X393104Y338396D01*
X393008Y338421D01*
X392913Y338449D01*
X392819Y338481D01*
X392726Y338516D01*
X392634Y338555D01*
X392544Y338598D01*
X392456Y338643D01*
X392369Y338693D01*
X392285Y338745D01*
X392202Y338801D01*
X392122Y338859D01*
X392044Y338921D01*
X391969Y338986D01*
X391896Y339054D01*
X391826Y339124D01*
X391758Y339197D01*
X391693Y339272D01*
X391631Y339350D01*
X391573Y339430D01*
X391517Y339513D01*
X391465Y339597D01*
X391415Y339684D01*
X391370Y339772D01*
X391327Y339862D01*
X391288Y339954D01*
X391253Y340047D01*
X391221Y340141D01*
X391193Y340236D01*
X391168Y340332D01*
X391147Y340430D01*
X391130Y340528D01*
X391117Y340626D01*
X391108Y340725D01*
X391102Y340825D01*
X391100Y340924D01*
X391099Y340924D02*
X391099Y347416D01*
X391100Y347416D02*
X391102Y347515D01*
X391108Y347615D01*
X391117Y347714D01*
X391130Y347812D01*
X391147Y347910D01*
X391168Y348008D01*
X391193Y348104D01*
X391221Y348199D01*
X391253Y348293D01*
X391288Y348386D01*
X391327Y348478D01*
X391370Y348568D01*
X391415Y348656D01*
X391465Y348743D01*
X391517Y348827D01*
X391573Y348910D01*
X391631Y348990D01*
X391693Y349068D01*
X391758Y349143D01*
X391826Y349216D01*
X391896Y349286D01*
X391969Y349354D01*
X392044Y349419D01*
X392122Y349481D01*
X392202Y349539D01*
X392285Y349595D01*
X392369Y349647D01*
X392456Y349697D01*
X392544Y349742D01*
X392634Y349785D01*
X392726Y349824D01*
X392818Y349859D01*
X392913Y349891D01*
X393008Y349919D01*
X393104Y349944D01*
X393202Y349965D01*
X393300Y349982D01*
X393398Y349995D01*
X393497Y350004D01*
X393597Y350010D01*
X393696Y350012D01*
X397591Y350012D01*
X403291Y350012D02*
X403291Y338328D01*
X409783Y338328D02*
X403291Y350012D01*
X409783Y350012D02*
X409783Y338328D01*
X415483Y338328D02*
X415483Y350012D01*
X418729Y350012D01*
X418842Y350010D01*
X418955Y350004D01*
X419068Y349994D01*
X419181Y349980D01*
X419293Y349963D01*
X419404Y349941D01*
X419514Y349916D01*
X419624Y349886D01*
X419732Y349853D01*
X419839Y349816D01*
X419945Y349776D01*
X420049Y349731D01*
X420152Y349683D01*
X420253Y349632D01*
X420352Y349577D01*
X420449Y349519D01*
X420544Y349457D01*
X420637Y349392D01*
X420727Y349324D01*
X420815Y349253D01*
X420901Y349178D01*
X420984Y349101D01*
X421064Y349021D01*
X421141Y348938D01*
X421216Y348852D01*
X421287Y348764D01*
X421355Y348674D01*
X421420Y348581D01*
X421482Y348486D01*
X421540Y348389D01*
X421595Y348290D01*
X421646Y348189D01*
X421694Y348086D01*
X421739Y347982D01*
X421779Y347876D01*
X421816Y347769D01*
X421849Y347661D01*
X421879Y347551D01*
X421904Y347441D01*
X421926Y347330D01*
X421943Y347218D01*
X421957Y347105D01*
X421967Y346992D01*
X421973Y346879D01*
X421975Y346766D01*
X421974Y346766D02*
X421974Y341574D01*
X421975Y341574D02*
X421973Y341461D01*
X421967Y341348D01*
X421957Y341235D01*
X421943Y341122D01*
X421926Y341010D01*
X421904Y340899D01*
X421879Y340789D01*
X421849Y340679D01*
X421816Y340571D01*
X421779Y340464D01*
X421739Y340358D01*
X421694Y340254D01*
X421646Y340151D01*
X421595Y340050D01*
X421540Y339951D01*
X421482Y339854D01*
X421420Y339759D01*
X421355Y339666D01*
X421287Y339576D01*
X421216Y339488D01*
X421141Y339402D01*
X421064Y339319D01*
X420984Y339239D01*
X420901Y339162D01*
X420815Y339087D01*
X420727Y339016D01*
X420637Y338948D01*
X420544Y338883D01*
X420449Y338821D01*
X420352Y338763D01*
X420253Y338708D01*
X420152Y338657D01*
X420049Y338609D01*
X419945Y338564D01*
X419839Y338524D01*
X419732Y338487D01*
X419624Y338454D01*
X419514Y338424D01*
X419404Y338399D01*
X419293Y338377D01*
X419181Y338360D01*
X419068Y338346D01*
X418955Y338336D01*
X418842Y338330D01*
X418729Y338328D01*
X415483Y338328D01*
X314339Y203849D02*
X312392Y203849D01*
X314339Y203849D02*
X314339Y197358D01*
X310444Y197358D01*
X310345Y197360D01*
X310245Y197366D01*
X310146Y197375D01*
X310048Y197388D01*
X309950Y197405D01*
X309852Y197426D01*
X309756Y197451D01*
X309661Y197479D01*
X309567Y197511D01*
X309474Y197546D01*
X309382Y197585D01*
X309292Y197628D01*
X309204Y197673D01*
X309117Y197723D01*
X309033Y197775D01*
X308950Y197831D01*
X308870Y197889D01*
X308792Y197951D01*
X308717Y198016D01*
X308644Y198084D01*
X308574Y198154D01*
X308506Y198227D01*
X308441Y198302D01*
X308379Y198380D01*
X308321Y198460D01*
X308265Y198543D01*
X308213Y198627D01*
X308163Y198714D01*
X308118Y198802D01*
X308075Y198892D01*
X308036Y198984D01*
X308001Y199077D01*
X307969Y199171D01*
X307941Y199266D01*
X307916Y199362D01*
X307895Y199460D01*
X307878Y199558D01*
X307865Y199656D01*
X307856Y199755D01*
X307850Y199855D01*
X307848Y199954D01*
X307848Y206446D01*
X307850Y206545D01*
X307856Y206645D01*
X307865Y206744D01*
X307878Y206842D01*
X307895Y206940D01*
X307916Y207038D01*
X307941Y207134D01*
X307969Y207229D01*
X308001Y207323D01*
X308036Y207416D01*
X308075Y207508D01*
X308118Y207598D01*
X308163Y207686D01*
X308213Y207773D01*
X308265Y207857D01*
X308321Y207940D01*
X308379Y208020D01*
X308441Y208098D01*
X308506Y208173D01*
X308574Y208246D01*
X308644Y208316D01*
X308717Y208384D01*
X308792Y208449D01*
X308870Y208511D01*
X308950Y208569D01*
X309033Y208625D01*
X309117Y208677D01*
X309204Y208727D01*
X309292Y208772D01*
X309382Y208815D01*
X309474Y208854D01*
X309566Y208889D01*
X309661Y208921D01*
X309756Y208949D01*
X309852Y208974D01*
X309950Y208995D01*
X310048Y209012D01*
X310146Y209025D01*
X310245Y209034D01*
X310345Y209040D01*
X310444Y209042D01*
X314339Y209042D01*
X320040Y209042D02*
X320040Y197358D01*
X326531Y197358D02*
X320040Y209042D01*
X326531Y209042D02*
X326531Y197358D01*
X332232Y197358D02*
X332232Y209042D01*
X335477Y209042D01*
X335590Y209040D01*
X335703Y209034D01*
X335816Y209024D01*
X335929Y209010D01*
X336041Y208993D01*
X336152Y208971D01*
X336262Y208946D01*
X336372Y208916D01*
X336480Y208883D01*
X336587Y208846D01*
X336693Y208806D01*
X336797Y208761D01*
X336900Y208713D01*
X337001Y208662D01*
X337100Y208607D01*
X337197Y208549D01*
X337292Y208487D01*
X337385Y208422D01*
X337475Y208354D01*
X337563Y208283D01*
X337649Y208208D01*
X337732Y208131D01*
X337812Y208051D01*
X337889Y207968D01*
X337964Y207882D01*
X338035Y207794D01*
X338103Y207704D01*
X338168Y207611D01*
X338230Y207516D01*
X338288Y207419D01*
X338343Y207320D01*
X338394Y207219D01*
X338442Y207116D01*
X338487Y207012D01*
X338527Y206906D01*
X338564Y206799D01*
X338597Y206691D01*
X338627Y206581D01*
X338652Y206471D01*
X338674Y206360D01*
X338691Y206248D01*
X338705Y206135D01*
X338715Y206022D01*
X338721Y205909D01*
X338723Y205796D01*
X338723Y200604D01*
X338724Y200604D02*
X338722Y200491D01*
X338716Y200378D01*
X338706Y200265D01*
X338692Y200152D01*
X338675Y200040D01*
X338653Y199929D01*
X338628Y199819D01*
X338598Y199709D01*
X338565Y199601D01*
X338528Y199494D01*
X338488Y199388D01*
X338443Y199284D01*
X338395Y199181D01*
X338344Y199080D01*
X338289Y198981D01*
X338231Y198884D01*
X338169Y198789D01*
X338104Y198696D01*
X338036Y198606D01*
X337965Y198518D01*
X337890Y198432D01*
X337813Y198349D01*
X337733Y198269D01*
X337650Y198192D01*
X337564Y198117D01*
X337476Y198046D01*
X337386Y197978D01*
X337293Y197913D01*
X337198Y197851D01*
X337101Y197793D01*
X337002Y197738D01*
X336901Y197687D01*
X336798Y197639D01*
X336694Y197594D01*
X336588Y197554D01*
X336481Y197517D01*
X336373Y197484D01*
X336263Y197454D01*
X336153Y197429D01*
X336042Y197407D01*
X335930Y197390D01*
X335817Y197376D01*
X335704Y197366D01*
X335591Y197360D01*
X335478Y197358D01*
X335477Y197358D02*
X332232Y197358D01*
X122569Y393079D02*
X120622Y393079D01*
X122569Y393079D02*
X122569Y386588D01*
X118674Y386588D01*
X118575Y386590D01*
X118475Y386596D01*
X118376Y386605D01*
X118278Y386618D01*
X118180Y386635D01*
X118082Y386656D01*
X117986Y386681D01*
X117891Y386709D01*
X117797Y386741D01*
X117704Y386776D01*
X117612Y386815D01*
X117522Y386858D01*
X117434Y386903D01*
X117347Y386953D01*
X117263Y387005D01*
X117180Y387061D01*
X117100Y387119D01*
X117022Y387181D01*
X116947Y387246D01*
X116874Y387314D01*
X116804Y387384D01*
X116736Y387457D01*
X116671Y387532D01*
X116609Y387610D01*
X116551Y387690D01*
X116495Y387773D01*
X116443Y387857D01*
X116393Y387944D01*
X116348Y388032D01*
X116305Y388122D01*
X116266Y388214D01*
X116231Y388307D01*
X116199Y388401D01*
X116171Y388496D01*
X116146Y388592D01*
X116125Y388690D01*
X116108Y388788D01*
X116095Y388886D01*
X116086Y388985D01*
X116080Y389085D01*
X116078Y389184D01*
X116078Y395676D01*
X116080Y395775D01*
X116086Y395875D01*
X116095Y395974D01*
X116108Y396072D01*
X116125Y396170D01*
X116146Y396268D01*
X116171Y396364D01*
X116199Y396459D01*
X116231Y396553D01*
X116266Y396646D01*
X116305Y396738D01*
X116348Y396828D01*
X116393Y396916D01*
X116443Y397003D01*
X116495Y397087D01*
X116551Y397170D01*
X116609Y397250D01*
X116671Y397328D01*
X116736Y397403D01*
X116804Y397476D01*
X116874Y397546D01*
X116947Y397614D01*
X117022Y397679D01*
X117100Y397741D01*
X117180Y397799D01*
X117263Y397855D01*
X117347Y397907D01*
X117434Y397957D01*
X117522Y398002D01*
X117612Y398045D01*
X117704Y398084D01*
X117796Y398119D01*
X117891Y398151D01*
X117986Y398179D01*
X118082Y398204D01*
X118180Y398225D01*
X118278Y398242D01*
X118376Y398255D01*
X118475Y398264D01*
X118575Y398270D01*
X118674Y398272D01*
X122569Y398272D01*
X128270Y398272D02*
X128270Y386588D01*
X134761Y386588D02*
X128270Y398272D01*
X134761Y398272D02*
X134761Y386588D01*
X140462Y386588D02*
X140462Y398272D01*
X143707Y398272D01*
X143820Y398270D01*
X143933Y398264D01*
X144046Y398254D01*
X144159Y398240D01*
X144271Y398223D01*
X144382Y398201D01*
X144492Y398176D01*
X144602Y398146D01*
X144710Y398113D01*
X144817Y398076D01*
X144923Y398036D01*
X145027Y397991D01*
X145130Y397943D01*
X145231Y397892D01*
X145330Y397837D01*
X145427Y397779D01*
X145522Y397717D01*
X145615Y397652D01*
X145705Y397584D01*
X145793Y397513D01*
X145879Y397438D01*
X145962Y397361D01*
X146042Y397281D01*
X146119Y397198D01*
X146194Y397112D01*
X146265Y397024D01*
X146333Y396934D01*
X146398Y396841D01*
X146460Y396746D01*
X146518Y396649D01*
X146573Y396550D01*
X146624Y396449D01*
X146672Y396346D01*
X146717Y396242D01*
X146757Y396136D01*
X146794Y396029D01*
X146827Y395921D01*
X146857Y395811D01*
X146882Y395701D01*
X146904Y395590D01*
X146921Y395478D01*
X146935Y395365D01*
X146945Y395252D01*
X146951Y395139D01*
X146953Y395026D01*
X146953Y389834D01*
X146954Y389834D02*
X146952Y389721D01*
X146946Y389608D01*
X146936Y389495D01*
X146922Y389382D01*
X146905Y389270D01*
X146883Y389159D01*
X146858Y389049D01*
X146828Y388939D01*
X146795Y388831D01*
X146758Y388724D01*
X146718Y388618D01*
X146673Y388514D01*
X146625Y388411D01*
X146574Y388310D01*
X146519Y388211D01*
X146461Y388114D01*
X146399Y388019D01*
X146334Y387926D01*
X146266Y387836D01*
X146195Y387748D01*
X146120Y387662D01*
X146043Y387579D01*
X145963Y387499D01*
X145880Y387422D01*
X145794Y387347D01*
X145706Y387276D01*
X145616Y387208D01*
X145523Y387143D01*
X145428Y387081D01*
X145331Y387023D01*
X145232Y386968D01*
X145131Y386917D01*
X145028Y386869D01*
X144924Y386824D01*
X144818Y386784D01*
X144711Y386747D01*
X144603Y386714D01*
X144493Y386684D01*
X144383Y386659D01*
X144272Y386637D01*
X144160Y386620D01*
X144047Y386606D01*
X143934Y386596D01*
X143821Y386590D01*
X143708Y386588D01*
X143707Y386588D02*
X140462Y386588D01*
X136539Y555639D02*
X134592Y555639D01*
X136539Y555639D02*
X136539Y549148D01*
X132644Y549148D01*
X132545Y549150D01*
X132445Y549156D01*
X132346Y549165D01*
X132248Y549178D01*
X132150Y549195D01*
X132052Y549216D01*
X131956Y549241D01*
X131861Y549269D01*
X131767Y549301D01*
X131674Y549336D01*
X131582Y549375D01*
X131492Y549418D01*
X131404Y549463D01*
X131317Y549513D01*
X131233Y549565D01*
X131150Y549621D01*
X131070Y549679D01*
X130992Y549741D01*
X130917Y549806D01*
X130844Y549874D01*
X130774Y549944D01*
X130706Y550017D01*
X130641Y550092D01*
X130579Y550170D01*
X130521Y550250D01*
X130465Y550333D01*
X130413Y550417D01*
X130363Y550504D01*
X130318Y550592D01*
X130275Y550682D01*
X130236Y550774D01*
X130201Y550867D01*
X130169Y550961D01*
X130141Y551056D01*
X130116Y551152D01*
X130095Y551250D01*
X130078Y551348D01*
X130065Y551446D01*
X130056Y551545D01*
X130050Y551645D01*
X130048Y551744D01*
X130048Y558236D01*
X130050Y558335D01*
X130056Y558435D01*
X130065Y558534D01*
X130078Y558632D01*
X130095Y558730D01*
X130116Y558828D01*
X130141Y558924D01*
X130169Y559019D01*
X130201Y559113D01*
X130236Y559206D01*
X130275Y559298D01*
X130318Y559388D01*
X130363Y559476D01*
X130413Y559563D01*
X130465Y559647D01*
X130521Y559730D01*
X130579Y559810D01*
X130641Y559888D01*
X130706Y559963D01*
X130774Y560036D01*
X130844Y560106D01*
X130917Y560174D01*
X130992Y560239D01*
X131070Y560301D01*
X131150Y560359D01*
X131233Y560415D01*
X131317Y560467D01*
X131404Y560517D01*
X131492Y560562D01*
X131582Y560605D01*
X131674Y560644D01*
X131766Y560679D01*
X131861Y560711D01*
X131956Y560739D01*
X132052Y560764D01*
X132150Y560785D01*
X132248Y560802D01*
X132346Y560815D01*
X132445Y560824D01*
X132545Y560830D01*
X132644Y560832D01*
X136539Y560832D01*
X142240Y560832D02*
X142240Y549148D01*
X148731Y549148D02*
X142240Y560832D01*
X148731Y560832D02*
X148731Y549148D01*
X154432Y549148D02*
X154432Y560832D01*
X157677Y560832D01*
X157790Y560830D01*
X157903Y560824D01*
X158016Y560814D01*
X158129Y560800D01*
X158241Y560783D01*
X158352Y560761D01*
X158462Y560736D01*
X158572Y560706D01*
X158680Y560673D01*
X158787Y560636D01*
X158893Y560596D01*
X158997Y560551D01*
X159100Y560503D01*
X159201Y560452D01*
X159300Y560397D01*
X159397Y560339D01*
X159492Y560277D01*
X159585Y560212D01*
X159675Y560144D01*
X159763Y560073D01*
X159849Y559998D01*
X159932Y559921D01*
X160012Y559841D01*
X160089Y559758D01*
X160164Y559672D01*
X160235Y559584D01*
X160303Y559494D01*
X160368Y559401D01*
X160430Y559306D01*
X160488Y559209D01*
X160543Y559110D01*
X160594Y559009D01*
X160642Y558906D01*
X160687Y558802D01*
X160727Y558696D01*
X160764Y558589D01*
X160797Y558481D01*
X160827Y558371D01*
X160852Y558261D01*
X160874Y558150D01*
X160891Y558038D01*
X160905Y557925D01*
X160915Y557812D01*
X160921Y557699D01*
X160923Y557586D01*
X160923Y552394D01*
X160924Y552394D02*
X160922Y552281D01*
X160916Y552168D01*
X160906Y552055D01*
X160892Y551942D01*
X160875Y551830D01*
X160853Y551719D01*
X160828Y551609D01*
X160798Y551499D01*
X160765Y551391D01*
X160728Y551284D01*
X160688Y551178D01*
X160643Y551074D01*
X160595Y550971D01*
X160544Y550870D01*
X160489Y550771D01*
X160431Y550674D01*
X160369Y550579D01*
X160304Y550486D01*
X160236Y550396D01*
X160165Y550308D01*
X160090Y550222D01*
X160013Y550139D01*
X159933Y550059D01*
X159850Y549982D01*
X159764Y549907D01*
X159676Y549836D01*
X159586Y549768D01*
X159493Y549703D01*
X159398Y549641D01*
X159301Y549583D01*
X159202Y549528D01*
X159101Y549477D01*
X158998Y549429D01*
X158894Y549384D01*
X158788Y549344D01*
X158681Y549307D01*
X158573Y549274D01*
X158463Y549244D01*
X158353Y549219D01*
X158242Y549197D01*
X158130Y549180D01*
X158017Y549166D01*
X157904Y549156D01*
X157791Y549150D01*
X157678Y549148D01*
X157677Y549148D02*
X154432Y549148D01*
X97169Y584849D02*
X95222Y584849D01*
X97169Y584849D02*
X97169Y578358D01*
X93274Y578358D01*
X93175Y578360D01*
X93075Y578366D01*
X92976Y578375D01*
X92878Y578388D01*
X92780Y578405D01*
X92682Y578426D01*
X92586Y578451D01*
X92491Y578479D01*
X92397Y578511D01*
X92304Y578546D01*
X92212Y578585D01*
X92122Y578628D01*
X92034Y578673D01*
X91947Y578723D01*
X91863Y578775D01*
X91780Y578831D01*
X91700Y578889D01*
X91622Y578951D01*
X91547Y579016D01*
X91474Y579084D01*
X91404Y579154D01*
X91336Y579227D01*
X91271Y579302D01*
X91209Y579380D01*
X91151Y579460D01*
X91095Y579543D01*
X91043Y579627D01*
X90993Y579714D01*
X90948Y579802D01*
X90905Y579892D01*
X90866Y579984D01*
X90831Y580077D01*
X90799Y580171D01*
X90771Y580266D01*
X90746Y580362D01*
X90725Y580460D01*
X90708Y580558D01*
X90695Y580656D01*
X90686Y580755D01*
X90680Y580855D01*
X90678Y580954D01*
X90678Y587446D01*
X90680Y587545D01*
X90686Y587645D01*
X90695Y587744D01*
X90708Y587842D01*
X90725Y587940D01*
X90746Y588038D01*
X90771Y588134D01*
X90799Y588229D01*
X90831Y588323D01*
X90866Y588416D01*
X90905Y588508D01*
X90948Y588598D01*
X90993Y588686D01*
X91043Y588773D01*
X91095Y588857D01*
X91151Y588940D01*
X91209Y589020D01*
X91271Y589098D01*
X91336Y589173D01*
X91404Y589246D01*
X91474Y589316D01*
X91547Y589384D01*
X91622Y589449D01*
X91700Y589511D01*
X91780Y589569D01*
X91863Y589625D01*
X91947Y589677D01*
X92034Y589727D01*
X92122Y589772D01*
X92212Y589815D01*
X92304Y589854D01*
X92396Y589889D01*
X92491Y589921D01*
X92586Y589949D01*
X92682Y589974D01*
X92780Y589995D01*
X92878Y590012D01*
X92976Y590025D01*
X93075Y590034D01*
X93175Y590040D01*
X93274Y590042D01*
X97169Y590042D01*
X102870Y590042D02*
X102870Y578358D01*
X109361Y578358D02*
X102870Y590042D01*
X109361Y590042D02*
X109361Y578358D01*
X115062Y578358D02*
X115062Y590042D01*
X118307Y590042D01*
X118420Y590040D01*
X118533Y590034D01*
X118646Y590024D01*
X118759Y590010D01*
X118871Y589993D01*
X118982Y589971D01*
X119092Y589946D01*
X119202Y589916D01*
X119310Y589883D01*
X119417Y589846D01*
X119523Y589806D01*
X119627Y589761D01*
X119730Y589713D01*
X119831Y589662D01*
X119930Y589607D01*
X120027Y589549D01*
X120122Y589487D01*
X120215Y589422D01*
X120305Y589354D01*
X120393Y589283D01*
X120479Y589208D01*
X120562Y589131D01*
X120642Y589051D01*
X120719Y588968D01*
X120794Y588882D01*
X120865Y588794D01*
X120933Y588704D01*
X120998Y588611D01*
X121060Y588516D01*
X121118Y588419D01*
X121173Y588320D01*
X121224Y588219D01*
X121272Y588116D01*
X121317Y588012D01*
X121357Y587906D01*
X121394Y587799D01*
X121427Y587691D01*
X121457Y587581D01*
X121482Y587471D01*
X121504Y587360D01*
X121521Y587248D01*
X121535Y587135D01*
X121545Y587022D01*
X121551Y586909D01*
X121553Y586796D01*
X121553Y581604D01*
X121554Y581604D02*
X121552Y581491D01*
X121546Y581378D01*
X121536Y581265D01*
X121522Y581152D01*
X121505Y581040D01*
X121483Y580929D01*
X121458Y580819D01*
X121428Y580709D01*
X121395Y580601D01*
X121358Y580494D01*
X121318Y580388D01*
X121273Y580284D01*
X121225Y580181D01*
X121174Y580080D01*
X121119Y579981D01*
X121061Y579884D01*
X120999Y579789D01*
X120934Y579696D01*
X120866Y579606D01*
X120795Y579518D01*
X120720Y579432D01*
X120643Y579349D01*
X120563Y579269D01*
X120480Y579192D01*
X120394Y579117D01*
X120306Y579046D01*
X120216Y578978D01*
X120123Y578913D01*
X120028Y578851D01*
X119931Y578793D01*
X119832Y578738D01*
X119731Y578687D01*
X119628Y578639D01*
X119524Y578594D01*
X119418Y578554D01*
X119311Y578517D01*
X119203Y578484D01*
X119093Y578454D01*
X118983Y578429D01*
X118872Y578407D01*
X118760Y578390D01*
X118647Y578376D01*
X118534Y578366D01*
X118421Y578360D01*
X118308Y578358D01*
X118307Y578358D02*
X115062Y578358D01*
X93924Y564642D02*
X93924Y552958D01*
X90678Y564642D02*
X97169Y564642D01*
X108486Y564642D02*
X100697Y552958D01*
X108486Y552958D02*
X100697Y564642D01*
X311094Y285242D02*
X311094Y273558D01*
X307848Y285242D02*
X314339Y285242D01*
X325656Y285242D02*
X317867Y273558D01*
X325656Y273558D02*
X317867Y285242D01*
X307848Y259842D02*
X307848Y248158D01*
X307848Y259842D02*
X311094Y259842D01*
X311207Y259840D01*
X311320Y259834D01*
X311433Y259824D01*
X311546Y259810D01*
X311658Y259793D01*
X311769Y259771D01*
X311879Y259746D01*
X311989Y259716D01*
X312097Y259683D01*
X312204Y259646D01*
X312310Y259606D01*
X312414Y259561D01*
X312517Y259513D01*
X312618Y259462D01*
X312717Y259407D01*
X312814Y259349D01*
X312909Y259287D01*
X313002Y259222D01*
X313092Y259154D01*
X313180Y259083D01*
X313266Y259008D01*
X313349Y258931D01*
X313429Y258851D01*
X313506Y258768D01*
X313581Y258682D01*
X313652Y258594D01*
X313720Y258504D01*
X313785Y258411D01*
X313847Y258316D01*
X313905Y258219D01*
X313960Y258120D01*
X314011Y258019D01*
X314059Y257916D01*
X314104Y257812D01*
X314144Y257706D01*
X314181Y257599D01*
X314214Y257491D01*
X314244Y257381D01*
X314269Y257271D01*
X314291Y257160D01*
X314308Y257048D01*
X314322Y256935D01*
X314332Y256822D01*
X314338Y256709D01*
X314340Y256596D01*
X314338Y256483D01*
X314332Y256370D01*
X314322Y256257D01*
X314308Y256144D01*
X314291Y256032D01*
X314269Y255921D01*
X314244Y255811D01*
X314214Y255701D01*
X314181Y255593D01*
X314144Y255486D01*
X314104Y255380D01*
X314059Y255276D01*
X314011Y255173D01*
X313960Y255072D01*
X313905Y254973D01*
X313847Y254876D01*
X313785Y254781D01*
X313720Y254688D01*
X313652Y254598D01*
X313581Y254510D01*
X313506Y254424D01*
X313429Y254341D01*
X313349Y254261D01*
X313266Y254184D01*
X313180Y254109D01*
X313092Y254038D01*
X313002Y253970D01*
X312909Y253905D01*
X312814Y253843D01*
X312717Y253785D01*
X312618Y253730D01*
X312517Y253679D01*
X312414Y253631D01*
X312310Y253586D01*
X312204Y253546D01*
X312097Y253509D01*
X311989Y253476D01*
X311879Y253446D01*
X311769Y253421D01*
X311658Y253399D01*
X311546Y253382D01*
X311433Y253368D01*
X311320Y253358D01*
X311207Y253352D01*
X311094Y253350D01*
X311094Y253351D02*
X307848Y253351D01*
X311743Y253351D02*
X314339Y248158D01*
X318555Y248158D02*
X326345Y259842D01*
X318555Y259842D02*
X326345Y248158D01*
X90678Y527558D02*
X90678Y539242D01*
X93924Y539242D01*
X94037Y539240D01*
X94150Y539234D01*
X94263Y539224D01*
X94376Y539210D01*
X94488Y539193D01*
X94599Y539171D01*
X94709Y539146D01*
X94819Y539116D01*
X94927Y539083D01*
X95034Y539046D01*
X95140Y539006D01*
X95244Y538961D01*
X95347Y538913D01*
X95448Y538862D01*
X95547Y538807D01*
X95644Y538749D01*
X95739Y538687D01*
X95832Y538622D01*
X95922Y538554D01*
X96010Y538483D01*
X96096Y538408D01*
X96179Y538331D01*
X96259Y538251D01*
X96336Y538168D01*
X96411Y538082D01*
X96482Y537994D01*
X96550Y537904D01*
X96615Y537811D01*
X96677Y537716D01*
X96735Y537619D01*
X96790Y537520D01*
X96841Y537419D01*
X96889Y537316D01*
X96934Y537212D01*
X96974Y537106D01*
X97011Y536999D01*
X97044Y536891D01*
X97074Y536781D01*
X97099Y536671D01*
X97121Y536560D01*
X97138Y536448D01*
X97152Y536335D01*
X97162Y536222D01*
X97168Y536109D01*
X97170Y535996D01*
X97168Y535883D01*
X97162Y535770D01*
X97152Y535657D01*
X97138Y535544D01*
X97121Y535432D01*
X97099Y535321D01*
X97074Y535211D01*
X97044Y535101D01*
X97011Y534993D01*
X96974Y534886D01*
X96934Y534780D01*
X96889Y534676D01*
X96841Y534573D01*
X96790Y534472D01*
X96735Y534373D01*
X96677Y534276D01*
X96615Y534181D01*
X96550Y534088D01*
X96482Y533998D01*
X96411Y533910D01*
X96336Y533824D01*
X96259Y533741D01*
X96179Y533661D01*
X96096Y533584D01*
X96010Y533509D01*
X95922Y533438D01*
X95832Y533370D01*
X95739Y533305D01*
X95644Y533243D01*
X95547Y533185D01*
X95448Y533130D01*
X95347Y533079D01*
X95244Y533031D01*
X95140Y532986D01*
X95034Y532946D01*
X94927Y532909D01*
X94819Y532876D01*
X94709Y532846D01*
X94599Y532821D01*
X94488Y532799D01*
X94376Y532782D01*
X94263Y532768D01*
X94150Y532758D01*
X94037Y532752D01*
X93924Y532750D01*
X93924Y532751D02*
X90678Y532751D01*
X94573Y532751D02*
X97169Y527558D01*
X101385Y527558D02*
X109175Y539242D01*
X101385Y539242D02*
X109175Y527558D01*
X155888Y515112D02*
X151993Y503428D01*
X159782Y503428D02*
X155888Y515112D01*
X158809Y506349D02*
X152967Y506349D01*
X143188Y350012D02*
X139293Y338328D01*
X147082Y338328D02*
X143188Y350012D01*
X146109Y341249D02*
X140267Y341249D01*
X151993Y483249D02*
X155239Y483249D01*
X155239Y483250D02*
X155352Y483248D01*
X155465Y483242D01*
X155578Y483232D01*
X155691Y483218D01*
X155803Y483201D01*
X155914Y483179D01*
X156024Y483154D01*
X156134Y483124D01*
X156242Y483091D01*
X156349Y483054D01*
X156455Y483014D01*
X156559Y482969D01*
X156662Y482921D01*
X156763Y482870D01*
X156862Y482815D01*
X156959Y482757D01*
X157054Y482695D01*
X157147Y482630D01*
X157237Y482562D01*
X157325Y482491D01*
X157411Y482416D01*
X157494Y482339D01*
X157574Y482259D01*
X157651Y482176D01*
X157726Y482090D01*
X157797Y482002D01*
X157865Y481912D01*
X157930Y481819D01*
X157992Y481724D01*
X158050Y481627D01*
X158105Y481528D01*
X158156Y481427D01*
X158204Y481324D01*
X158249Y481220D01*
X158289Y481114D01*
X158326Y481007D01*
X158359Y480899D01*
X158389Y480789D01*
X158414Y480679D01*
X158436Y480568D01*
X158453Y480456D01*
X158467Y480343D01*
X158477Y480230D01*
X158483Y480117D01*
X158485Y480004D01*
X158483Y479891D01*
X158477Y479778D01*
X158467Y479665D01*
X158453Y479552D01*
X158436Y479440D01*
X158414Y479329D01*
X158389Y479219D01*
X158359Y479109D01*
X158326Y479001D01*
X158289Y478894D01*
X158249Y478788D01*
X158204Y478684D01*
X158156Y478581D01*
X158105Y478480D01*
X158050Y478381D01*
X157992Y478284D01*
X157930Y478189D01*
X157865Y478096D01*
X157797Y478006D01*
X157726Y477918D01*
X157651Y477832D01*
X157574Y477749D01*
X157494Y477669D01*
X157411Y477592D01*
X157325Y477517D01*
X157237Y477446D01*
X157147Y477378D01*
X157054Y477313D01*
X156959Y477251D01*
X156862Y477193D01*
X156763Y477138D01*
X156662Y477087D01*
X156559Y477039D01*
X156455Y476994D01*
X156349Y476954D01*
X156242Y476917D01*
X156134Y476884D01*
X156024Y476854D01*
X155914Y476829D01*
X155803Y476807D01*
X155691Y476790D01*
X155578Y476776D01*
X155465Y476766D01*
X155352Y476760D01*
X155239Y476758D01*
X151993Y476758D01*
X151993Y488442D01*
X155239Y488442D01*
X155340Y488440D01*
X155440Y488434D01*
X155540Y488424D01*
X155640Y488411D01*
X155739Y488393D01*
X155838Y488372D01*
X155935Y488347D01*
X156032Y488318D01*
X156127Y488285D01*
X156221Y488249D01*
X156313Y488209D01*
X156404Y488166D01*
X156493Y488119D01*
X156580Y488069D01*
X156666Y488015D01*
X156749Y487958D01*
X156829Y487898D01*
X156908Y487835D01*
X156984Y487768D01*
X157057Y487699D01*
X157127Y487627D01*
X157195Y487553D01*
X157260Y487476D01*
X157321Y487396D01*
X157380Y487314D01*
X157435Y487230D01*
X157487Y487144D01*
X157536Y487056D01*
X157581Y486966D01*
X157623Y486874D01*
X157661Y486781D01*
X157695Y486686D01*
X157726Y486591D01*
X157753Y486494D01*
X157776Y486396D01*
X157796Y486297D01*
X157811Y486197D01*
X157823Y486097D01*
X157831Y485997D01*
X157835Y485896D01*
X157835Y485796D01*
X157831Y485695D01*
X157823Y485595D01*
X157811Y485495D01*
X157796Y485395D01*
X157776Y485296D01*
X157753Y485198D01*
X157726Y485101D01*
X157695Y485006D01*
X157661Y484911D01*
X157623Y484818D01*
X157581Y484726D01*
X157536Y484636D01*
X157487Y484548D01*
X157435Y484462D01*
X157380Y484378D01*
X157321Y484296D01*
X157260Y484216D01*
X157195Y484139D01*
X157127Y484065D01*
X157057Y483993D01*
X156984Y483924D01*
X156908Y483857D01*
X156829Y483794D01*
X156749Y483734D01*
X156666Y483677D01*
X156580Y483623D01*
X156493Y483573D01*
X156404Y483526D01*
X156313Y483483D01*
X156221Y483443D01*
X156127Y483407D01*
X156032Y483374D01*
X155935Y483345D01*
X155838Y483320D01*
X155739Y483299D01*
X155640Y483281D01*
X155540Y483268D01*
X155440Y483258D01*
X155340Y483252D01*
X155239Y483250D01*
X142539Y318149D02*
X139293Y318149D01*
X142539Y318150D02*
X142652Y318148D01*
X142765Y318142D01*
X142878Y318132D01*
X142991Y318118D01*
X143103Y318101D01*
X143214Y318079D01*
X143324Y318054D01*
X143434Y318024D01*
X143542Y317991D01*
X143649Y317954D01*
X143755Y317914D01*
X143859Y317869D01*
X143962Y317821D01*
X144063Y317770D01*
X144162Y317715D01*
X144259Y317657D01*
X144354Y317595D01*
X144447Y317530D01*
X144537Y317462D01*
X144625Y317391D01*
X144711Y317316D01*
X144794Y317239D01*
X144874Y317159D01*
X144951Y317076D01*
X145026Y316990D01*
X145097Y316902D01*
X145165Y316812D01*
X145230Y316719D01*
X145292Y316624D01*
X145350Y316527D01*
X145405Y316428D01*
X145456Y316327D01*
X145504Y316224D01*
X145549Y316120D01*
X145589Y316014D01*
X145626Y315907D01*
X145659Y315799D01*
X145689Y315689D01*
X145714Y315579D01*
X145736Y315468D01*
X145753Y315356D01*
X145767Y315243D01*
X145777Y315130D01*
X145783Y315017D01*
X145785Y314904D01*
X145783Y314791D01*
X145777Y314678D01*
X145767Y314565D01*
X145753Y314452D01*
X145736Y314340D01*
X145714Y314229D01*
X145689Y314119D01*
X145659Y314009D01*
X145626Y313901D01*
X145589Y313794D01*
X145549Y313688D01*
X145504Y313584D01*
X145456Y313481D01*
X145405Y313380D01*
X145350Y313281D01*
X145292Y313184D01*
X145230Y313089D01*
X145165Y312996D01*
X145097Y312906D01*
X145026Y312818D01*
X144951Y312732D01*
X144874Y312649D01*
X144794Y312569D01*
X144711Y312492D01*
X144625Y312417D01*
X144537Y312346D01*
X144447Y312278D01*
X144354Y312213D01*
X144259Y312151D01*
X144162Y312093D01*
X144063Y312038D01*
X143962Y311987D01*
X143859Y311939D01*
X143755Y311894D01*
X143649Y311854D01*
X143542Y311817D01*
X143434Y311784D01*
X143324Y311754D01*
X143214Y311729D01*
X143103Y311707D01*
X142991Y311690D01*
X142878Y311676D01*
X142765Y311666D01*
X142652Y311660D01*
X142539Y311658D01*
X139293Y311658D01*
X139293Y323342D01*
X142539Y323342D01*
X142640Y323340D01*
X142740Y323334D01*
X142840Y323324D01*
X142940Y323311D01*
X143039Y323293D01*
X143138Y323272D01*
X143235Y323247D01*
X143332Y323218D01*
X143427Y323185D01*
X143521Y323149D01*
X143613Y323109D01*
X143704Y323066D01*
X143793Y323019D01*
X143880Y322969D01*
X143966Y322915D01*
X144049Y322858D01*
X144129Y322798D01*
X144208Y322735D01*
X144284Y322668D01*
X144357Y322599D01*
X144427Y322527D01*
X144495Y322453D01*
X144560Y322376D01*
X144621Y322296D01*
X144680Y322214D01*
X144735Y322130D01*
X144787Y322044D01*
X144836Y321956D01*
X144881Y321866D01*
X144923Y321774D01*
X144961Y321681D01*
X144995Y321586D01*
X145026Y321491D01*
X145053Y321394D01*
X145076Y321296D01*
X145096Y321197D01*
X145111Y321097D01*
X145123Y320997D01*
X145131Y320897D01*
X145135Y320796D01*
X145135Y320696D01*
X145131Y320595D01*
X145123Y320495D01*
X145111Y320395D01*
X145096Y320295D01*
X145076Y320196D01*
X145053Y320098D01*
X145026Y320001D01*
X144995Y319906D01*
X144961Y319811D01*
X144923Y319718D01*
X144881Y319626D01*
X144836Y319536D01*
X144787Y319448D01*
X144735Y319362D01*
X144680Y319278D01*
X144621Y319196D01*
X144560Y319116D01*
X144495Y319039D01*
X144427Y318965D01*
X144357Y318893D01*
X144284Y318824D01*
X144208Y318757D01*
X144129Y318694D01*
X144049Y318634D01*
X143966Y318577D01*
X143880Y318523D01*
X143793Y318473D01*
X143704Y318426D01*
X143613Y318383D01*
X143521Y318343D01*
X143427Y318307D01*
X143332Y318274D01*
X143235Y318245D01*
X143138Y318220D01*
X143039Y318199D01*
X142940Y318181D01*
X142840Y318168D01*
X142740Y318158D01*
X142640Y318152D01*
X142539Y318150D01*
X150256Y603758D02*
X150256Y615442D01*
X148958Y603758D02*
X151555Y603758D01*
X151555Y615442D02*
X148958Y615442D01*
X157129Y613819D02*
X157030Y613611D01*
X156937Y613401D01*
X156849Y613189D01*
X156766Y612975D01*
X156688Y612758D01*
X156615Y612540D01*
X156547Y612321D01*
X156485Y612099D01*
X156428Y611877D01*
X156376Y611653D01*
X156330Y611428D01*
X156289Y611202D01*
X156254Y610974D01*
X156224Y610747D01*
X156199Y610518D01*
X156180Y610289D01*
X156166Y610060D01*
X156158Y609830D01*
X156155Y609600D01*
X157128Y613819D02*
X157161Y613909D01*
X157197Y613998D01*
X157237Y614086D01*
X157281Y614171D01*
X157328Y614255D01*
X157378Y614337D01*
X157432Y614417D01*
X157488Y614494D01*
X157548Y614570D01*
X157611Y614643D01*
X157676Y614713D01*
X157745Y614781D01*
X157816Y614845D01*
X157889Y614907D01*
X157965Y614966D01*
X158043Y615022D01*
X158124Y615075D01*
X158206Y615124D01*
X158290Y615170D01*
X158377Y615213D01*
X158464Y615252D01*
X158554Y615288D01*
X158644Y615320D01*
X158736Y615348D01*
X158829Y615373D01*
X158923Y615394D01*
X159017Y615411D01*
X159112Y615425D01*
X159208Y615434D01*
X159304Y615440D01*
X159400Y615442D01*
X159496Y615440D01*
X159592Y615434D01*
X159688Y615425D01*
X159783Y615411D01*
X159877Y615394D01*
X159971Y615373D01*
X160064Y615348D01*
X160156Y615320D01*
X160246Y615288D01*
X160336Y615252D01*
X160423Y615213D01*
X160510Y615170D01*
X160594Y615124D01*
X160676Y615075D01*
X160757Y615022D01*
X160835Y614966D01*
X160911Y614907D01*
X160984Y614845D01*
X161055Y614781D01*
X161124Y614713D01*
X161189Y614643D01*
X161252Y614570D01*
X161312Y614494D01*
X161368Y614417D01*
X161422Y614337D01*
X161472Y614255D01*
X161519Y614171D01*
X161563Y614086D01*
X161603Y613998D01*
X161639Y613909D01*
X161672Y613819D01*
X161771Y613612D01*
X161864Y613402D01*
X161952Y613189D01*
X162035Y612975D01*
X162113Y612759D01*
X162186Y612541D01*
X162254Y612321D01*
X162316Y612100D01*
X162373Y611877D01*
X162425Y611653D01*
X162471Y611428D01*
X162512Y611202D01*
X162547Y610975D01*
X162577Y610747D01*
X162602Y610518D01*
X162621Y610289D01*
X162635Y610060D01*
X162643Y609830D01*
X162646Y609600D01*
X156155Y609600D02*
X156158Y609370D01*
X156166Y609140D01*
X156180Y608911D01*
X156199Y608682D01*
X156224Y608453D01*
X156254Y608225D01*
X156289Y607998D01*
X156330Y607772D01*
X156376Y607547D01*
X156428Y607323D01*
X156485Y607100D01*
X156547Y606879D01*
X156615Y606659D01*
X156688Y606441D01*
X156766Y606225D01*
X156849Y606011D01*
X156937Y605799D01*
X157030Y605588D01*
X157129Y605381D01*
X157128Y605381D02*
X157161Y605291D01*
X157197Y605202D01*
X157238Y605114D01*
X157281Y605029D01*
X157328Y604945D01*
X157378Y604863D01*
X157432Y604783D01*
X157488Y604706D01*
X157548Y604630D01*
X157611Y604557D01*
X157676Y604487D01*
X157745Y604419D01*
X157816Y604355D01*
X157889Y604293D01*
X157965Y604234D01*
X158043Y604178D01*
X158124Y604125D01*
X158206Y604076D01*
X158290Y604030D01*
X158377Y603987D01*
X158464Y603948D01*
X158554Y603912D01*
X158644Y603880D01*
X158736Y603852D01*
X158829Y603827D01*
X158923Y603806D01*
X159017Y603789D01*
X159112Y603775D01*
X159208Y603766D01*
X159304Y603760D01*
X159400Y603758D01*
X161672Y605381D02*
X161771Y605588D01*
X161864Y605799D01*
X161952Y606011D01*
X162035Y606225D01*
X162113Y606441D01*
X162186Y606659D01*
X162254Y606879D01*
X162316Y607100D01*
X162373Y607323D01*
X162425Y607547D01*
X162471Y607772D01*
X162512Y607998D01*
X162547Y608225D01*
X162577Y608453D01*
X162602Y608682D01*
X162621Y608911D01*
X162635Y609140D01*
X162643Y609370D01*
X162646Y609600D01*
X161672Y605381D02*
X161639Y605291D01*
X161603Y605202D01*
X161563Y605114D01*
X161519Y605029D01*
X161472Y604945D01*
X161422Y604863D01*
X161368Y604783D01*
X161312Y604706D01*
X161252Y604630D01*
X161189Y604557D01*
X161124Y604487D01*
X161055Y604419D01*
X160984Y604355D01*
X160911Y604293D01*
X160835Y604234D01*
X160757Y604178D01*
X160676Y604125D01*
X160594Y604076D01*
X160510Y604030D01*
X160423Y603987D01*
X160336Y603948D01*
X160246Y603912D01*
X160156Y603880D01*
X160064Y603852D01*
X159971Y603827D01*
X159877Y603806D01*
X159783Y603789D01*
X159688Y603775D01*
X159592Y603766D01*
X159496Y603760D01*
X159400Y603758D01*
X156804Y606354D02*
X161997Y612846D01*
X137556Y450342D02*
X137556Y438658D01*
X136258Y438658D02*
X138855Y438658D01*
X138855Y450342D02*
X136258Y450342D01*
X144429Y448719D02*
X144330Y448511D01*
X144237Y448301D01*
X144149Y448089D01*
X144066Y447875D01*
X143988Y447658D01*
X143915Y447440D01*
X143847Y447221D01*
X143785Y446999D01*
X143728Y446777D01*
X143676Y446553D01*
X143630Y446328D01*
X143589Y446102D01*
X143554Y445874D01*
X143524Y445647D01*
X143499Y445418D01*
X143480Y445189D01*
X143466Y444960D01*
X143458Y444730D01*
X143455Y444500D01*
X144428Y448719D02*
X144461Y448809D01*
X144497Y448898D01*
X144537Y448986D01*
X144581Y449071D01*
X144628Y449155D01*
X144678Y449237D01*
X144732Y449317D01*
X144788Y449394D01*
X144848Y449470D01*
X144911Y449543D01*
X144976Y449613D01*
X145045Y449681D01*
X145116Y449745D01*
X145189Y449807D01*
X145265Y449866D01*
X145343Y449922D01*
X145424Y449975D01*
X145506Y450024D01*
X145590Y450070D01*
X145677Y450113D01*
X145764Y450152D01*
X145854Y450188D01*
X145944Y450220D01*
X146036Y450248D01*
X146129Y450273D01*
X146223Y450294D01*
X146317Y450311D01*
X146412Y450325D01*
X146508Y450334D01*
X146604Y450340D01*
X146700Y450342D01*
X146796Y450340D01*
X146892Y450334D01*
X146988Y450325D01*
X147083Y450311D01*
X147177Y450294D01*
X147271Y450273D01*
X147364Y450248D01*
X147456Y450220D01*
X147546Y450188D01*
X147636Y450152D01*
X147723Y450113D01*
X147810Y450070D01*
X147894Y450024D01*
X147976Y449975D01*
X148057Y449922D01*
X148135Y449866D01*
X148211Y449807D01*
X148284Y449745D01*
X148355Y449681D01*
X148424Y449613D01*
X148489Y449543D01*
X148552Y449470D01*
X148612Y449394D01*
X148668Y449317D01*
X148722Y449237D01*
X148772Y449155D01*
X148819Y449071D01*
X148863Y448986D01*
X148903Y448898D01*
X148939Y448809D01*
X148972Y448719D01*
X149071Y448512D01*
X149164Y448302D01*
X149252Y448089D01*
X149335Y447875D01*
X149413Y447659D01*
X149486Y447441D01*
X149554Y447221D01*
X149616Y447000D01*
X149673Y446777D01*
X149725Y446553D01*
X149771Y446328D01*
X149812Y446102D01*
X149847Y445875D01*
X149877Y445647D01*
X149902Y445418D01*
X149921Y445189D01*
X149935Y444960D01*
X149943Y444730D01*
X149946Y444500D01*
X143455Y444500D02*
X143458Y444270D01*
X143466Y444040D01*
X143480Y443811D01*
X143499Y443582D01*
X143524Y443353D01*
X143554Y443125D01*
X143589Y442898D01*
X143630Y442672D01*
X143676Y442447D01*
X143728Y442223D01*
X143785Y442000D01*
X143847Y441779D01*
X143915Y441559D01*
X143988Y441341D01*
X144066Y441125D01*
X144149Y440911D01*
X144237Y440699D01*
X144330Y440488D01*
X144429Y440281D01*
X144428Y440281D02*
X144461Y440191D01*
X144497Y440102D01*
X144538Y440014D01*
X144581Y439929D01*
X144628Y439845D01*
X144678Y439763D01*
X144732Y439683D01*
X144788Y439606D01*
X144848Y439530D01*
X144911Y439457D01*
X144976Y439387D01*
X145045Y439319D01*
X145116Y439255D01*
X145189Y439193D01*
X145265Y439134D01*
X145343Y439078D01*
X145424Y439025D01*
X145506Y438976D01*
X145590Y438930D01*
X145677Y438887D01*
X145764Y438848D01*
X145854Y438812D01*
X145944Y438780D01*
X146036Y438752D01*
X146129Y438727D01*
X146223Y438706D01*
X146317Y438689D01*
X146412Y438675D01*
X146508Y438666D01*
X146604Y438660D01*
X146700Y438658D01*
X148972Y440281D02*
X149071Y440488D01*
X149164Y440699D01*
X149252Y440911D01*
X149335Y441125D01*
X149413Y441341D01*
X149486Y441559D01*
X149554Y441779D01*
X149616Y442000D01*
X149673Y442223D01*
X149725Y442447D01*
X149771Y442672D01*
X149812Y442898D01*
X149847Y443125D01*
X149877Y443353D01*
X149902Y443582D01*
X149921Y443811D01*
X149935Y444040D01*
X149943Y444270D01*
X149946Y444500D01*
X148972Y440281D02*
X148939Y440191D01*
X148903Y440102D01*
X148863Y440014D01*
X148819Y439929D01*
X148772Y439845D01*
X148722Y439763D01*
X148668Y439683D01*
X148612Y439606D01*
X148552Y439530D01*
X148489Y439457D01*
X148424Y439387D01*
X148355Y439319D01*
X148284Y439255D01*
X148211Y439193D01*
X148135Y439134D01*
X148057Y439078D01*
X147976Y439025D01*
X147894Y438976D01*
X147810Y438930D01*
X147723Y438887D01*
X147636Y438848D01*
X147546Y438812D01*
X147456Y438780D01*
X147364Y438752D01*
X147271Y438727D01*
X147177Y438706D01*
X147083Y438689D01*
X146988Y438675D01*
X146892Y438666D01*
X146796Y438660D01*
X146700Y438658D01*
X144104Y441254D02*
X149297Y447746D01*
X150256Y580898D02*
X150256Y592582D01*
X148958Y580898D02*
X151555Y580898D01*
X151555Y592582D02*
X148958Y592582D01*
X156155Y589986D02*
X159400Y592582D01*
X159400Y580898D01*
X156155Y580898D02*
X162646Y580898D01*
X137556Y426212D02*
X137556Y414528D01*
X136258Y414528D02*
X138855Y414528D01*
X138855Y426212D02*
X136258Y426212D01*
X143455Y423616D02*
X146700Y426212D01*
X146700Y414528D01*
X143455Y414528D02*
X149946Y414528D01*
X94573Y502158D02*
X94672Y502160D01*
X94772Y502166D01*
X94871Y502175D01*
X94969Y502188D01*
X95067Y502205D01*
X95165Y502226D01*
X95261Y502251D01*
X95356Y502279D01*
X95450Y502311D01*
X95543Y502346D01*
X95635Y502385D01*
X95725Y502428D01*
X95813Y502473D01*
X95900Y502523D01*
X95984Y502575D01*
X96067Y502631D01*
X96147Y502689D01*
X96225Y502751D01*
X96300Y502816D01*
X96373Y502884D01*
X96443Y502954D01*
X96511Y503027D01*
X96576Y503102D01*
X96638Y503180D01*
X96696Y503260D01*
X96752Y503343D01*
X96804Y503427D01*
X96854Y503514D01*
X96899Y503602D01*
X96942Y503692D01*
X96981Y503784D01*
X97016Y503877D01*
X97048Y503971D01*
X97076Y504066D01*
X97101Y504162D01*
X97122Y504260D01*
X97139Y504358D01*
X97152Y504456D01*
X97161Y504555D01*
X97167Y504655D01*
X97169Y504754D01*
X94573Y502158D02*
X94429Y502160D01*
X94284Y502166D01*
X94140Y502175D01*
X93997Y502188D01*
X93853Y502205D01*
X93710Y502226D01*
X93568Y502251D01*
X93427Y502279D01*
X93286Y502311D01*
X93146Y502347D01*
X93007Y502386D01*
X92869Y502429D01*
X92733Y502476D01*
X92597Y502526D01*
X92463Y502580D01*
X92331Y502637D01*
X92200Y502698D01*
X92071Y502762D01*
X91943Y502830D01*
X91817Y502900D01*
X91693Y502975D01*
X91572Y503052D01*
X91452Y503133D01*
X91334Y503216D01*
X91219Y503303D01*
X91106Y503393D01*
X90995Y503486D01*
X90887Y503581D01*
X90781Y503680D01*
X90678Y503781D01*
X91003Y511246D02*
X91005Y511345D01*
X91011Y511445D01*
X91020Y511544D01*
X91033Y511642D01*
X91050Y511740D01*
X91071Y511838D01*
X91096Y511934D01*
X91124Y512029D01*
X91156Y512123D01*
X91191Y512216D01*
X91230Y512308D01*
X91273Y512398D01*
X91318Y512486D01*
X91368Y512573D01*
X91420Y512657D01*
X91476Y512740D01*
X91534Y512820D01*
X91596Y512898D01*
X91661Y512973D01*
X91729Y513046D01*
X91799Y513116D01*
X91872Y513184D01*
X91947Y513249D01*
X92025Y513311D01*
X92105Y513369D01*
X92188Y513425D01*
X92272Y513477D01*
X92359Y513527D01*
X92447Y513572D01*
X92537Y513615D01*
X92629Y513654D01*
X92722Y513689D01*
X92816Y513721D01*
X92911Y513749D01*
X93008Y513774D01*
X93105Y513795D01*
X93203Y513812D01*
X93301Y513825D01*
X93400Y513834D01*
X93500Y513840D01*
X93599Y513842D01*
X93735Y513840D01*
X93871Y513834D01*
X94007Y513825D01*
X94143Y513812D01*
X94278Y513794D01*
X94412Y513774D01*
X94546Y513749D01*
X94680Y513721D01*
X94812Y513688D01*
X94943Y513653D01*
X95074Y513613D01*
X95203Y513570D01*
X95331Y513524D01*
X95457Y513473D01*
X95583Y513420D01*
X95706Y513362D01*
X95828Y513302D01*
X95948Y513238D01*
X96067Y513170D01*
X96183Y513100D01*
X96297Y513026D01*
X96410Y512949D01*
X96520Y512868D01*
X92301Y508974D02*
X92215Y509027D01*
X92131Y509084D01*
X92049Y509143D01*
X91969Y509206D01*
X91892Y509272D01*
X91817Y509340D01*
X91745Y509412D01*
X91676Y509486D01*
X91610Y509563D01*
X91547Y509642D01*
X91487Y509724D01*
X91430Y509808D01*
X91376Y509894D01*
X91326Y509982D01*
X91279Y510072D01*
X91235Y510163D01*
X91196Y510257D01*
X91159Y510351D01*
X91127Y510447D01*
X91098Y510545D01*
X91073Y510643D01*
X91052Y510742D01*
X91034Y510842D01*
X91021Y510942D01*
X91011Y511043D01*
X91005Y511145D01*
X91003Y511246D01*
X95871Y507026D02*
X95957Y506973D01*
X96041Y506916D01*
X96123Y506857D01*
X96203Y506794D01*
X96280Y506728D01*
X96355Y506660D01*
X96427Y506588D01*
X96496Y506514D01*
X96562Y506437D01*
X96625Y506358D01*
X96685Y506276D01*
X96742Y506192D01*
X96796Y506106D01*
X96846Y506018D01*
X96893Y505928D01*
X96937Y505837D01*
X96976Y505743D01*
X97013Y505649D01*
X97045Y505553D01*
X97074Y505455D01*
X97099Y505357D01*
X97120Y505258D01*
X97138Y505158D01*
X97151Y505058D01*
X97161Y504957D01*
X97167Y504855D01*
X97169Y504754D01*
X95871Y507026D02*
X92301Y508974D01*
X104211Y513842D02*
X104211Y502158D01*
X100965Y513842D02*
X107456Y513842D01*
X39314Y622949D02*
X36068Y622949D01*
X39314Y622950D02*
X39427Y622948D01*
X39540Y622942D01*
X39653Y622932D01*
X39766Y622918D01*
X39878Y622901D01*
X39989Y622879D01*
X40099Y622854D01*
X40209Y622824D01*
X40317Y622791D01*
X40424Y622754D01*
X40530Y622714D01*
X40634Y622669D01*
X40737Y622621D01*
X40838Y622570D01*
X40937Y622515D01*
X41034Y622457D01*
X41129Y622395D01*
X41222Y622330D01*
X41312Y622262D01*
X41400Y622191D01*
X41486Y622116D01*
X41569Y622039D01*
X41649Y621959D01*
X41726Y621876D01*
X41801Y621790D01*
X41872Y621702D01*
X41940Y621612D01*
X42005Y621519D01*
X42067Y621424D01*
X42125Y621327D01*
X42180Y621228D01*
X42231Y621127D01*
X42279Y621024D01*
X42324Y620920D01*
X42364Y620814D01*
X42401Y620707D01*
X42434Y620599D01*
X42464Y620489D01*
X42489Y620379D01*
X42511Y620268D01*
X42528Y620156D01*
X42542Y620043D01*
X42552Y619930D01*
X42558Y619817D01*
X42560Y619704D01*
X42558Y619591D01*
X42552Y619478D01*
X42542Y619365D01*
X42528Y619252D01*
X42511Y619140D01*
X42489Y619029D01*
X42464Y618919D01*
X42434Y618809D01*
X42401Y618701D01*
X42364Y618594D01*
X42324Y618488D01*
X42279Y618384D01*
X42231Y618281D01*
X42180Y618180D01*
X42125Y618081D01*
X42067Y617984D01*
X42005Y617889D01*
X41940Y617796D01*
X41872Y617706D01*
X41801Y617618D01*
X41726Y617532D01*
X41649Y617449D01*
X41569Y617369D01*
X41486Y617292D01*
X41400Y617217D01*
X41312Y617146D01*
X41222Y617078D01*
X41129Y617013D01*
X41034Y616951D01*
X40937Y616893D01*
X40838Y616838D01*
X40737Y616787D01*
X40634Y616739D01*
X40530Y616694D01*
X40424Y616654D01*
X40317Y616617D01*
X40209Y616584D01*
X40099Y616554D01*
X39989Y616529D01*
X39878Y616507D01*
X39766Y616490D01*
X39653Y616476D01*
X39540Y616466D01*
X39427Y616460D01*
X39314Y616458D01*
X36068Y616458D01*
X36068Y628142D01*
X39314Y628142D01*
X39415Y628140D01*
X39515Y628134D01*
X39615Y628124D01*
X39715Y628111D01*
X39814Y628093D01*
X39913Y628072D01*
X40010Y628047D01*
X40107Y628018D01*
X40202Y627985D01*
X40296Y627949D01*
X40388Y627909D01*
X40479Y627866D01*
X40568Y627819D01*
X40655Y627769D01*
X40741Y627715D01*
X40824Y627658D01*
X40904Y627598D01*
X40983Y627535D01*
X41059Y627468D01*
X41132Y627399D01*
X41202Y627327D01*
X41270Y627253D01*
X41335Y627176D01*
X41396Y627096D01*
X41455Y627014D01*
X41510Y626930D01*
X41562Y626844D01*
X41611Y626756D01*
X41656Y626666D01*
X41698Y626574D01*
X41736Y626481D01*
X41770Y626386D01*
X41801Y626291D01*
X41828Y626194D01*
X41851Y626096D01*
X41871Y625997D01*
X41886Y625897D01*
X41898Y625797D01*
X41906Y625697D01*
X41910Y625596D01*
X41910Y625496D01*
X41906Y625395D01*
X41898Y625295D01*
X41886Y625195D01*
X41871Y625095D01*
X41851Y624996D01*
X41828Y624898D01*
X41801Y624801D01*
X41770Y624706D01*
X41736Y624611D01*
X41698Y624518D01*
X41656Y624426D01*
X41611Y624336D01*
X41562Y624248D01*
X41510Y624162D01*
X41455Y624078D01*
X41396Y623996D01*
X41335Y623916D01*
X41270Y623839D01*
X41202Y623765D01*
X41132Y623693D01*
X41059Y623624D01*
X40983Y623557D01*
X40904Y623494D01*
X40824Y623434D01*
X40741Y623377D01*
X40655Y623323D01*
X40568Y623273D01*
X40479Y623226D01*
X40388Y623183D01*
X40296Y623143D01*
X40202Y623107D01*
X40107Y623074D01*
X40010Y623045D01*
X39913Y623020D01*
X39814Y622999D01*
X39715Y622981D01*
X39615Y622968D01*
X39515Y622958D01*
X39415Y622952D01*
X39314Y622950D01*
X49431Y628142D02*
X49431Y616458D01*
X46186Y628142D02*
X52677Y628142D01*
X166878Y626618D02*
X166878Y638302D01*
X170773Y631811D01*
X174667Y638302D01*
X174667Y626618D01*
X180101Y632460D02*
X180104Y632690D01*
X180112Y632920D01*
X180126Y633149D01*
X180145Y633378D01*
X180170Y633607D01*
X180200Y633834D01*
X180235Y634062D01*
X180276Y634288D01*
X180322Y634513D01*
X180374Y634737D01*
X180431Y634959D01*
X180493Y635181D01*
X180561Y635400D01*
X180634Y635618D01*
X180712Y635835D01*
X180795Y636049D01*
X180883Y636261D01*
X180976Y636471D01*
X181075Y636679D01*
X181074Y636679D02*
X181107Y636769D01*
X181143Y636858D01*
X181183Y636946D01*
X181227Y637031D01*
X181274Y637115D01*
X181324Y637197D01*
X181378Y637277D01*
X181434Y637354D01*
X181494Y637430D01*
X181557Y637503D01*
X181622Y637573D01*
X181691Y637641D01*
X181762Y637705D01*
X181835Y637767D01*
X181911Y637826D01*
X181989Y637882D01*
X182070Y637935D01*
X182152Y637984D01*
X182236Y638030D01*
X182323Y638073D01*
X182410Y638112D01*
X182500Y638148D01*
X182590Y638180D01*
X182682Y638208D01*
X182775Y638233D01*
X182869Y638254D01*
X182963Y638271D01*
X183058Y638285D01*
X183154Y638294D01*
X183250Y638300D01*
X183346Y638302D01*
X183442Y638300D01*
X183538Y638294D01*
X183634Y638285D01*
X183729Y638271D01*
X183823Y638254D01*
X183917Y638233D01*
X184010Y638208D01*
X184102Y638180D01*
X184192Y638148D01*
X184282Y638112D01*
X184369Y638073D01*
X184456Y638030D01*
X184540Y637984D01*
X184622Y637935D01*
X184703Y637882D01*
X184781Y637826D01*
X184857Y637767D01*
X184930Y637705D01*
X185001Y637641D01*
X185070Y637573D01*
X185135Y637503D01*
X185198Y637430D01*
X185258Y637354D01*
X185314Y637277D01*
X185368Y637197D01*
X185418Y637115D01*
X185465Y637031D01*
X185509Y636946D01*
X185549Y636858D01*
X185585Y636769D01*
X185618Y636679D01*
X185717Y636472D01*
X185810Y636262D01*
X185898Y636049D01*
X185981Y635835D01*
X186059Y635619D01*
X186132Y635401D01*
X186200Y635181D01*
X186262Y634960D01*
X186319Y634737D01*
X186371Y634513D01*
X186417Y634288D01*
X186458Y634062D01*
X186493Y633835D01*
X186523Y633607D01*
X186548Y633378D01*
X186567Y633149D01*
X186581Y632920D01*
X186589Y632690D01*
X186592Y632460D01*
X180100Y632460D02*
X180103Y632230D01*
X180111Y632000D01*
X180125Y631771D01*
X180144Y631542D01*
X180169Y631313D01*
X180199Y631085D01*
X180234Y630858D01*
X180275Y630632D01*
X180321Y630407D01*
X180373Y630183D01*
X180430Y629960D01*
X180492Y629739D01*
X180560Y629519D01*
X180633Y629301D01*
X180711Y629085D01*
X180794Y628871D01*
X180882Y628659D01*
X180975Y628448D01*
X181074Y628241D01*
X181107Y628151D01*
X181143Y628062D01*
X181184Y627974D01*
X181227Y627889D01*
X181274Y627805D01*
X181324Y627723D01*
X181378Y627643D01*
X181434Y627566D01*
X181494Y627490D01*
X181557Y627417D01*
X181622Y627347D01*
X181691Y627279D01*
X181762Y627215D01*
X181835Y627153D01*
X181911Y627094D01*
X181989Y627038D01*
X182070Y626985D01*
X182152Y626936D01*
X182236Y626890D01*
X182323Y626847D01*
X182410Y626808D01*
X182500Y626772D01*
X182590Y626740D01*
X182682Y626712D01*
X182775Y626687D01*
X182869Y626666D01*
X182963Y626649D01*
X183058Y626635D01*
X183154Y626626D01*
X183250Y626620D01*
X183346Y626618D01*
X185617Y628241D02*
X185716Y628448D01*
X185809Y628659D01*
X185897Y628871D01*
X185980Y629085D01*
X186058Y629301D01*
X186131Y629519D01*
X186199Y629739D01*
X186261Y629960D01*
X186318Y630183D01*
X186370Y630407D01*
X186416Y630632D01*
X186457Y630858D01*
X186492Y631085D01*
X186522Y631313D01*
X186547Y631542D01*
X186566Y631771D01*
X186580Y632000D01*
X186588Y632230D01*
X186591Y632460D01*
X185618Y628241D02*
X185585Y628151D01*
X185549Y628062D01*
X185509Y627974D01*
X185465Y627889D01*
X185418Y627805D01*
X185368Y627723D01*
X185314Y627643D01*
X185258Y627566D01*
X185198Y627490D01*
X185135Y627417D01*
X185070Y627347D01*
X185001Y627279D01*
X184930Y627215D01*
X184857Y627153D01*
X184781Y627094D01*
X184703Y627038D01*
X184622Y626985D01*
X184540Y626936D01*
X184456Y626890D01*
X184369Y626847D01*
X184282Y626808D01*
X184192Y626772D01*
X184102Y626740D01*
X184010Y626712D01*
X183917Y626687D01*
X183823Y626666D01*
X183729Y626649D01*
X183634Y626635D01*
X183538Y626626D01*
X183442Y626620D01*
X183346Y626618D01*
X180749Y629214D02*
X185942Y635706D01*
X154178Y301752D02*
X154178Y290068D01*
X158073Y295261D02*
X154178Y301752D01*
X158073Y295261D02*
X161967Y301752D01*
X161967Y290068D01*
X167400Y299156D02*
X170646Y301752D01*
X170646Y290068D01*
X173891Y290068D02*
X167400Y290068D01*
X262128Y183642D02*
X262128Y171958D01*
X266023Y177151D02*
X262128Y183642D01*
X266023Y177151D02*
X269917Y183642D01*
X269917Y171958D01*
X284009Y171958D02*
X286606Y171958D01*
X284009Y171958D02*
X283910Y171960D01*
X283810Y171966D01*
X283711Y171975D01*
X283613Y171988D01*
X283515Y172005D01*
X283417Y172026D01*
X283321Y172051D01*
X283226Y172079D01*
X283132Y172111D01*
X283039Y172146D01*
X282947Y172185D01*
X282857Y172228D01*
X282769Y172273D01*
X282682Y172323D01*
X282598Y172375D01*
X282515Y172431D01*
X282435Y172489D01*
X282357Y172551D01*
X282282Y172616D01*
X282209Y172684D01*
X282139Y172754D01*
X282071Y172827D01*
X282006Y172902D01*
X281944Y172980D01*
X281886Y173060D01*
X281830Y173143D01*
X281778Y173227D01*
X281728Y173314D01*
X281683Y173402D01*
X281640Y173492D01*
X281601Y173584D01*
X281566Y173677D01*
X281534Y173771D01*
X281506Y173866D01*
X281481Y173962D01*
X281460Y174060D01*
X281443Y174158D01*
X281430Y174256D01*
X281421Y174355D01*
X281415Y174455D01*
X281413Y174554D01*
X281413Y181046D01*
X281415Y181145D01*
X281421Y181245D01*
X281430Y181344D01*
X281443Y181442D01*
X281460Y181540D01*
X281481Y181638D01*
X281506Y181734D01*
X281534Y181829D01*
X281566Y181923D01*
X281601Y182016D01*
X281640Y182108D01*
X281683Y182198D01*
X281728Y182286D01*
X281778Y182373D01*
X281830Y182457D01*
X281886Y182540D01*
X281944Y182620D01*
X282006Y182698D01*
X282071Y182773D01*
X282139Y182846D01*
X282209Y182916D01*
X282282Y182984D01*
X282357Y183049D01*
X282435Y183111D01*
X282515Y183169D01*
X282598Y183225D01*
X282682Y183277D01*
X282769Y183327D01*
X282857Y183372D01*
X282947Y183415D01*
X283039Y183454D01*
X283131Y183489D01*
X283226Y183521D01*
X283321Y183549D01*
X283417Y183574D01*
X283515Y183595D01*
X283613Y183612D01*
X283711Y183625D01*
X283810Y183634D01*
X283910Y183640D01*
X284009Y183642D01*
X286606Y183642D01*
X293455Y183642D02*
X293455Y171958D01*
X290209Y183642D02*
X296700Y183642D01*
X301332Y183642D02*
X301332Y171958D01*
X301332Y183642D02*
X304577Y183642D01*
X304690Y183640D01*
X304803Y183634D01*
X304916Y183624D01*
X305029Y183610D01*
X305141Y183593D01*
X305252Y183571D01*
X305362Y183546D01*
X305472Y183516D01*
X305580Y183483D01*
X305687Y183446D01*
X305793Y183406D01*
X305897Y183361D01*
X306000Y183313D01*
X306101Y183262D01*
X306200Y183207D01*
X306297Y183149D01*
X306392Y183087D01*
X306485Y183022D01*
X306575Y182954D01*
X306663Y182883D01*
X306749Y182808D01*
X306832Y182731D01*
X306912Y182651D01*
X306989Y182568D01*
X307064Y182482D01*
X307135Y182394D01*
X307203Y182304D01*
X307268Y182211D01*
X307330Y182116D01*
X307388Y182019D01*
X307443Y181920D01*
X307494Y181819D01*
X307542Y181716D01*
X307587Y181612D01*
X307627Y181506D01*
X307664Y181399D01*
X307697Y181291D01*
X307727Y181181D01*
X307752Y181071D01*
X307774Y180960D01*
X307791Y180848D01*
X307805Y180735D01*
X307815Y180622D01*
X307821Y180509D01*
X307823Y180396D01*
X307821Y180283D01*
X307815Y180170D01*
X307805Y180057D01*
X307791Y179944D01*
X307774Y179832D01*
X307752Y179721D01*
X307727Y179611D01*
X307697Y179501D01*
X307664Y179393D01*
X307627Y179286D01*
X307587Y179180D01*
X307542Y179076D01*
X307494Y178973D01*
X307443Y178872D01*
X307388Y178773D01*
X307330Y178676D01*
X307268Y178581D01*
X307203Y178488D01*
X307135Y178398D01*
X307064Y178310D01*
X306989Y178224D01*
X306912Y178141D01*
X306832Y178061D01*
X306749Y177984D01*
X306663Y177909D01*
X306575Y177838D01*
X306485Y177770D01*
X306392Y177705D01*
X306297Y177643D01*
X306200Y177585D01*
X306101Y177530D01*
X306000Y177479D01*
X305897Y177431D01*
X305793Y177386D01*
X305687Y177346D01*
X305580Y177309D01*
X305472Y177276D01*
X305362Y177246D01*
X305252Y177221D01*
X305141Y177199D01*
X305029Y177182D01*
X304916Y177168D01*
X304803Y177158D01*
X304690Y177152D01*
X304577Y177150D01*
X304577Y177151D02*
X301332Y177151D01*
X305226Y177151D02*
X307823Y171958D01*
X313092Y171958D02*
X313092Y183642D01*
X313092Y171958D02*
X318285Y171958D01*
X438686Y312928D02*
X438686Y324612D01*
X437388Y312928D02*
X439984Y312928D01*
X439984Y324612D02*
X437388Y324612D01*
X445039Y324612D02*
X445039Y312928D01*
X445039Y324612D02*
X448285Y324612D01*
X448398Y324610D01*
X448511Y324604D01*
X448624Y324594D01*
X448737Y324580D01*
X448849Y324563D01*
X448960Y324541D01*
X449070Y324516D01*
X449180Y324486D01*
X449288Y324453D01*
X449395Y324416D01*
X449501Y324376D01*
X449605Y324331D01*
X449708Y324283D01*
X449809Y324232D01*
X449908Y324177D01*
X450005Y324119D01*
X450100Y324057D01*
X450193Y323992D01*
X450283Y323924D01*
X450371Y323853D01*
X450457Y323778D01*
X450540Y323701D01*
X450620Y323621D01*
X450697Y323538D01*
X450772Y323452D01*
X450843Y323364D01*
X450911Y323274D01*
X450976Y323181D01*
X451038Y323086D01*
X451096Y322989D01*
X451151Y322890D01*
X451202Y322789D01*
X451250Y322686D01*
X451295Y322582D01*
X451335Y322476D01*
X451372Y322369D01*
X451405Y322261D01*
X451435Y322151D01*
X451460Y322041D01*
X451482Y321930D01*
X451499Y321818D01*
X451513Y321705D01*
X451523Y321592D01*
X451529Y321479D01*
X451531Y321366D01*
X451529Y321253D01*
X451523Y321140D01*
X451513Y321027D01*
X451499Y320914D01*
X451482Y320802D01*
X451460Y320691D01*
X451435Y320581D01*
X451405Y320471D01*
X451372Y320363D01*
X451335Y320256D01*
X451295Y320150D01*
X451250Y320046D01*
X451202Y319943D01*
X451151Y319842D01*
X451096Y319743D01*
X451038Y319646D01*
X450976Y319551D01*
X450911Y319458D01*
X450843Y319368D01*
X450772Y319280D01*
X450697Y319194D01*
X450620Y319111D01*
X450540Y319031D01*
X450457Y318954D01*
X450371Y318879D01*
X450283Y318808D01*
X450193Y318740D01*
X450100Y318675D01*
X450005Y318613D01*
X449908Y318555D01*
X449809Y318500D01*
X449708Y318449D01*
X449605Y318401D01*
X449501Y318356D01*
X449395Y318316D01*
X449288Y318279D01*
X449180Y318246D01*
X449070Y318216D01*
X448960Y318191D01*
X448849Y318169D01*
X448737Y318152D01*
X448624Y318138D01*
X448511Y318128D01*
X448398Y318122D01*
X448285Y318120D01*
X448285Y318121D02*
X445039Y318121D01*
X448934Y318121D02*
X451530Y312928D01*
X307848Y311912D02*
X307848Y300228D01*
X307848Y311912D02*
X311094Y311912D01*
X311207Y311910D01*
X311320Y311904D01*
X311433Y311894D01*
X311546Y311880D01*
X311658Y311863D01*
X311769Y311841D01*
X311879Y311816D01*
X311989Y311786D01*
X312097Y311753D01*
X312204Y311716D01*
X312310Y311676D01*
X312414Y311631D01*
X312517Y311583D01*
X312618Y311532D01*
X312717Y311477D01*
X312814Y311419D01*
X312909Y311357D01*
X313002Y311292D01*
X313092Y311224D01*
X313180Y311153D01*
X313266Y311078D01*
X313349Y311001D01*
X313429Y310921D01*
X313506Y310838D01*
X313581Y310752D01*
X313652Y310664D01*
X313720Y310574D01*
X313785Y310481D01*
X313847Y310386D01*
X313905Y310289D01*
X313960Y310190D01*
X314011Y310089D01*
X314059Y309986D01*
X314104Y309882D01*
X314144Y309776D01*
X314181Y309669D01*
X314214Y309561D01*
X314244Y309451D01*
X314269Y309341D01*
X314291Y309230D01*
X314308Y309118D01*
X314322Y309005D01*
X314332Y308892D01*
X314338Y308779D01*
X314340Y308666D01*
X314338Y308553D01*
X314332Y308440D01*
X314322Y308327D01*
X314308Y308214D01*
X314291Y308102D01*
X314269Y307991D01*
X314244Y307881D01*
X314214Y307771D01*
X314181Y307663D01*
X314144Y307556D01*
X314104Y307450D01*
X314059Y307346D01*
X314011Y307243D01*
X313960Y307142D01*
X313905Y307043D01*
X313847Y306946D01*
X313785Y306851D01*
X313720Y306758D01*
X313652Y306668D01*
X313581Y306580D01*
X313506Y306494D01*
X313429Y306411D01*
X313349Y306331D01*
X313266Y306254D01*
X313180Y306179D01*
X313092Y306108D01*
X313002Y306040D01*
X312909Y305975D01*
X312814Y305913D01*
X312717Y305855D01*
X312618Y305800D01*
X312517Y305749D01*
X312414Y305701D01*
X312310Y305656D01*
X312204Y305616D01*
X312097Y305579D01*
X311989Y305546D01*
X311879Y305516D01*
X311769Y305491D01*
X311658Y305469D01*
X311546Y305452D01*
X311433Y305438D01*
X311320Y305428D01*
X311207Y305422D01*
X311094Y305420D01*
X311094Y305421D02*
X307848Y305421D01*
X311743Y305421D02*
X314339Y300228D01*
X322718Y300228D02*
X322817Y300230D01*
X322917Y300236D01*
X323016Y300245D01*
X323114Y300258D01*
X323212Y300275D01*
X323310Y300296D01*
X323406Y300321D01*
X323501Y300349D01*
X323595Y300381D01*
X323688Y300416D01*
X323780Y300455D01*
X323870Y300498D01*
X323958Y300543D01*
X324045Y300593D01*
X324129Y300645D01*
X324212Y300701D01*
X324292Y300759D01*
X324370Y300821D01*
X324445Y300886D01*
X324518Y300954D01*
X324588Y301024D01*
X324656Y301097D01*
X324721Y301172D01*
X324783Y301250D01*
X324841Y301330D01*
X324897Y301413D01*
X324949Y301497D01*
X324999Y301584D01*
X325044Y301672D01*
X325087Y301762D01*
X325126Y301854D01*
X325161Y301947D01*
X325193Y302041D01*
X325221Y302136D01*
X325246Y302232D01*
X325267Y302330D01*
X325284Y302428D01*
X325297Y302526D01*
X325306Y302625D01*
X325312Y302725D01*
X325314Y302824D01*
X322718Y300228D02*
X322574Y300230D01*
X322429Y300236D01*
X322285Y300245D01*
X322142Y300258D01*
X321998Y300275D01*
X321855Y300296D01*
X321713Y300321D01*
X321572Y300349D01*
X321431Y300381D01*
X321291Y300417D01*
X321152Y300456D01*
X321014Y300499D01*
X320878Y300546D01*
X320742Y300596D01*
X320608Y300650D01*
X320476Y300707D01*
X320345Y300768D01*
X320216Y300832D01*
X320088Y300900D01*
X319962Y300970D01*
X319838Y301045D01*
X319717Y301122D01*
X319597Y301203D01*
X319479Y301286D01*
X319364Y301373D01*
X319251Y301463D01*
X319140Y301556D01*
X319032Y301651D01*
X318926Y301750D01*
X318823Y301851D01*
X319148Y309316D02*
X319150Y309415D01*
X319156Y309515D01*
X319165Y309614D01*
X319178Y309712D01*
X319195Y309810D01*
X319216Y309908D01*
X319241Y310004D01*
X319269Y310099D01*
X319301Y310193D01*
X319336Y310286D01*
X319375Y310378D01*
X319418Y310468D01*
X319463Y310556D01*
X319513Y310643D01*
X319565Y310727D01*
X319621Y310810D01*
X319679Y310890D01*
X319741Y310968D01*
X319806Y311043D01*
X319874Y311116D01*
X319944Y311186D01*
X320017Y311254D01*
X320092Y311319D01*
X320170Y311381D01*
X320250Y311439D01*
X320333Y311495D01*
X320417Y311547D01*
X320504Y311597D01*
X320592Y311642D01*
X320682Y311685D01*
X320774Y311724D01*
X320867Y311759D01*
X320961Y311791D01*
X321056Y311819D01*
X321153Y311844D01*
X321250Y311865D01*
X321348Y311882D01*
X321446Y311895D01*
X321545Y311904D01*
X321645Y311910D01*
X321744Y311912D01*
X321880Y311910D01*
X322016Y311904D01*
X322152Y311895D01*
X322288Y311882D01*
X322423Y311864D01*
X322557Y311844D01*
X322691Y311819D01*
X322825Y311791D01*
X322957Y311758D01*
X323088Y311723D01*
X323219Y311683D01*
X323348Y311640D01*
X323476Y311594D01*
X323602Y311543D01*
X323728Y311490D01*
X323851Y311432D01*
X323973Y311372D01*
X324093Y311308D01*
X324212Y311240D01*
X324328Y311170D01*
X324442Y311096D01*
X324555Y311019D01*
X324665Y310938D01*
X320446Y307044D02*
X320360Y307097D01*
X320276Y307154D01*
X320194Y307213D01*
X320114Y307276D01*
X320037Y307342D01*
X319962Y307410D01*
X319890Y307482D01*
X319821Y307556D01*
X319755Y307633D01*
X319692Y307712D01*
X319632Y307794D01*
X319575Y307878D01*
X319521Y307964D01*
X319471Y308052D01*
X319424Y308142D01*
X319380Y308233D01*
X319341Y308327D01*
X319304Y308421D01*
X319272Y308517D01*
X319243Y308615D01*
X319218Y308713D01*
X319197Y308812D01*
X319179Y308912D01*
X319166Y309012D01*
X319156Y309113D01*
X319150Y309215D01*
X319148Y309316D01*
X324016Y305096D02*
X324102Y305043D01*
X324186Y304986D01*
X324268Y304927D01*
X324348Y304864D01*
X324425Y304798D01*
X324500Y304730D01*
X324572Y304658D01*
X324641Y304584D01*
X324707Y304507D01*
X324770Y304428D01*
X324830Y304346D01*
X324887Y304262D01*
X324941Y304176D01*
X324991Y304088D01*
X325038Y303998D01*
X325082Y303907D01*
X325121Y303813D01*
X325158Y303719D01*
X325190Y303623D01*
X325219Y303525D01*
X325244Y303427D01*
X325265Y303328D01*
X325283Y303228D01*
X325296Y303128D01*
X325306Y303027D01*
X325312Y302925D01*
X325314Y302824D01*
X324016Y305096D02*
X320446Y307044D01*
X332356Y311912D02*
X332356Y300228D01*
X329110Y311912D02*
X335601Y311912D01*
X313041Y325628D02*
X307848Y325628D01*
X307848Y337312D01*
X313041Y337312D01*
X311743Y332119D02*
X307848Y332119D01*
X317805Y337312D02*
X317805Y325628D01*
X317805Y337312D02*
X321051Y337312D01*
X321164Y337310D01*
X321277Y337304D01*
X321390Y337294D01*
X321503Y337280D01*
X321615Y337263D01*
X321726Y337241D01*
X321836Y337216D01*
X321946Y337186D01*
X322054Y337153D01*
X322161Y337116D01*
X322267Y337076D01*
X322371Y337031D01*
X322474Y336983D01*
X322575Y336932D01*
X322674Y336877D01*
X322771Y336819D01*
X322866Y336757D01*
X322959Y336692D01*
X323049Y336624D01*
X323137Y336553D01*
X323223Y336478D01*
X323306Y336401D01*
X323386Y336321D01*
X323463Y336238D01*
X323538Y336152D01*
X323609Y336064D01*
X323677Y335974D01*
X323742Y335881D01*
X323804Y335786D01*
X323862Y335689D01*
X323917Y335590D01*
X323968Y335489D01*
X324016Y335386D01*
X324061Y335282D01*
X324101Y335176D01*
X324138Y335069D01*
X324171Y334961D01*
X324201Y334851D01*
X324226Y334741D01*
X324248Y334630D01*
X324265Y334518D01*
X324279Y334405D01*
X324289Y334292D01*
X324295Y334179D01*
X324297Y334066D01*
X324295Y333953D01*
X324289Y333840D01*
X324279Y333727D01*
X324265Y333614D01*
X324248Y333502D01*
X324226Y333391D01*
X324201Y333281D01*
X324171Y333171D01*
X324138Y333063D01*
X324101Y332956D01*
X324061Y332850D01*
X324016Y332746D01*
X323968Y332643D01*
X323917Y332542D01*
X323862Y332443D01*
X323804Y332346D01*
X323742Y332251D01*
X323677Y332158D01*
X323609Y332068D01*
X323538Y331980D01*
X323463Y331894D01*
X323386Y331811D01*
X323306Y331731D01*
X323223Y331654D01*
X323137Y331579D01*
X323049Y331508D01*
X322959Y331440D01*
X322866Y331375D01*
X322771Y331313D01*
X322674Y331255D01*
X322575Y331200D01*
X322474Y331149D01*
X322371Y331101D01*
X322267Y331056D01*
X322161Y331016D01*
X322054Y330979D01*
X321946Y330946D01*
X321836Y330916D01*
X321726Y330891D01*
X321615Y330869D01*
X321503Y330852D01*
X321390Y330838D01*
X321277Y330828D01*
X321164Y330822D01*
X321051Y330820D01*
X321051Y330821D02*
X317805Y330821D01*
X321700Y330821D02*
X324296Y325628D01*
X329616Y325628D02*
X329616Y337312D01*
X332862Y337312D01*
X332975Y337310D01*
X333088Y337304D01*
X333201Y337294D01*
X333314Y337280D01*
X333426Y337263D01*
X333537Y337241D01*
X333647Y337216D01*
X333757Y337186D01*
X333865Y337153D01*
X333972Y337116D01*
X334078Y337076D01*
X334182Y337031D01*
X334285Y336983D01*
X334386Y336932D01*
X334485Y336877D01*
X334582Y336819D01*
X334677Y336757D01*
X334770Y336692D01*
X334860Y336624D01*
X334948Y336553D01*
X335034Y336478D01*
X335117Y336401D01*
X335197Y336321D01*
X335274Y336238D01*
X335349Y336152D01*
X335420Y336064D01*
X335488Y335974D01*
X335553Y335881D01*
X335615Y335786D01*
X335673Y335689D01*
X335728Y335590D01*
X335779Y335489D01*
X335827Y335386D01*
X335872Y335282D01*
X335912Y335176D01*
X335949Y335069D01*
X335982Y334961D01*
X336012Y334851D01*
X336037Y334741D01*
X336059Y334630D01*
X336076Y334518D01*
X336090Y334405D01*
X336100Y334292D01*
X336106Y334179D01*
X336108Y334066D01*
X336106Y333953D01*
X336100Y333840D01*
X336090Y333727D01*
X336076Y333614D01*
X336059Y333502D01*
X336037Y333391D01*
X336012Y333281D01*
X335982Y333171D01*
X335949Y333063D01*
X335912Y332956D01*
X335872Y332850D01*
X335827Y332746D01*
X335779Y332643D01*
X335728Y332542D01*
X335673Y332443D01*
X335615Y332346D01*
X335553Y332251D01*
X335488Y332158D01*
X335420Y332068D01*
X335349Y331980D01*
X335274Y331894D01*
X335197Y331811D01*
X335117Y331731D01*
X335034Y331654D01*
X334948Y331579D01*
X334860Y331508D01*
X334770Y331440D01*
X334677Y331375D01*
X334582Y331313D01*
X334485Y331255D01*
X334386Y331200D01*
X334285Y331149D01*
X334182Y331101D01*
X334078Y331056D01*
X333972Y331016D01*
X333865Y330979D01*
X333757Y330946D01*
X333647Y330916D01*
X333537Y330891D01*
X333426Y330869D01*
X333314Y330852D01*
X333201Y330838D01*
X333088Y330828D01*
X332975Y330822D01*
X332862Y330820D01*
X332862Y330821D02*
X329616Y330821D01*
X333511Y330821D02*
X336107Y325628D01*
X319278Y414528D02*
X319278Y426212D01*
X323173Y419721D01*
X327067Y426212D01*
X327067Y414528D01*
X332501Y420370D02*
X332504Y420600D01*
X332512Y420830D01*
X332526Y421059D01*
X332545Y421288D01*
X332570Y421517D01*
X332600Y421744D01*
X332635Y421972D01*
X332676Y422198D01*
X332722Y422423D01*
X332774Y422647D01*
X332831Y422869D01*
X332893Y423091D01*
X332961Y423310D01*
X333034Y423528D01*
X333112Y423745D01*
X333195Y423959D01*
X333283Y424171D01*
X333376Y424381D01*
X333475Y424589D01*
X333474Y424589D02*
X333507Y424679D01*
X333543Y424768D01*
X333583Y424856D01*
X333627Y424941D01*
X333674Y425025D01*
X333724Y425107D01*
X333778Y425187D01*
X333834Y425264D01*
X333894Y425340D01*
X333957Y425413D01*
X334022Y425483D01*
X334091Y425551D01*
X334162Y425615D01*
X334235Y425677D01*
X334311Y425736D01*
X334389Y425792D01*
X334470Y425845D01*
X334552Y425894D01*
X334636Y425940D01*
X334723Y425983D01*
X334810Y426022D01*
X334900Y426058D01*
X334990Y426090D01*
X335082Y426118D01*
X335175Y426143D01*
X335269Y426164D01*
X335363Y426181D01*
X335458Y426195D01*
X335554Y426204D01*
X335650Y426210D01*
X335746Y426212D01*
X335842Y426210D01*
X335938Y426204D01*
X336034Y426195D01*
X336129Y426181D01*
X336223Y426164D01*
X336317Y426143D01*
X336410Y426118D01*
X336502Y426090D01*
X336592Y426058D01*
X336682Y426022D01*
X336769Y425983D01*
X336856Y425940D01*
X336940Y425894D01*
X337022Y425845D01*
X337103Y425792D01*
X337181Y425736D01*
X337257Y425677D01*
X337330Y425615D01*
X337401Y425551D01*
X337470Y425483D01*
X337535Y425413D01*
X337598Y425340D01*
X337658Y425264D01*
X337714Y425187D01*
X337768Y425107D01*
X337818Y425025D01*
X337865Y424941D01*
X337909Y424856D01*
X337949Y424768D01*
X337985Y424679D01*
X338018Y424589D01*
X338117Y424382D01*
X338210Y424172D01*
X338298Y423959D01*
X338381Y423745D01*
X338459Y423529D01*
X338532Y423311D01*
X338600Y423091D01*
X338662Y422870D01*
X338719Y422647D01*
X338771Y422423D01*
X338817Y422198D01*
X338858Y421972D01*
X338893Y421745D01*
X338923Y421517D01*
X338948Y421288D01*
X338967Y421059D01*
X338981Y420830D01*
X338989Y420600D01*
X338992Y420370D01*
X332500Y420370D02*
X332503Y420140D01*
X332511Y419910D01*
X332525Y419681D01*
X332544Y419452D01*
X332569Y419223D01*
X332599Y418995D01*
X332634Y418768D01*
X332675Y418542D01*
X332721Y418317D01*
X332773Y418093D01*
X332830Y417870D01*
X332892Y417649D01*
X332960Y417429D01*
X333033Y417211D01*
X333111Y416995D01*
X333194Y416781D01*
X333282Y416569D01*
X333375Y416358D01*
X333474Y416151D01*
X333507Y416061D01*
X333543Y415972D01*
X333584Y415884D01*
X333627Y415799D01*
X333674Y415715D01*
X333724Y415633D01*
X333778Y415553D01*
X333834Y415476D01*
X333894Y415400D01*
X333957Y415327D01*
X334022Y415257D01*
X334091Y415189D01*
X334162Y415125D01*
X334235Y415063D01*
X334311Y415004D01*
X334389Y414948D01*
X334470Y414895D01*
X334552Y414846D01*
X334636Y414800D01*
X334723Y414757D01*
X334810Y414718D01*
X334900Y414682D01*
X334990Y414650D01*
X335082Y414622D01*
X335175Y414597D01*
X335269Y414576D01*
X335363Y414559D01*
X335458Y414545D01*
X335554Y414536D01*
X335650Y414530D01*
X335746Y414528D01*
X338017Y416151D02*
X338116Y416358D01*
X338209Y416569D01*
X338297Y416781D01*
X338380Y416995D01*
X338458Y417211D01*
X338531Y417429D01*
X338599Y417649D01*
X338661Y417870D01*
X338718Y418093D01*
X338770Y418317D01*
X338816Y418542D01*
X338857Y418768D01*
X338892Y418995D01*
X338922Y419223D01*
X338947Y419452D01*
X338966Y419681D01*
X338980Y419910D01*
X338988Y420140D01*
X338991Y420370D01*
X338018Y416151D02*
X337985Y416061D01*
X337949Y415972D01*
X337909Y415884D01*
X337865Y415799D01*
X337818Y415715D01*
X337768Y415633D01*
X337714Y415553D01*
X337658Y415476D01*
X337598Y415400D01*
X337535Y415327D01*
X337470Y415257D01*
X337401Y415189D01*
X337330Y415125D01*
X337257Y415063D01*
X337181Y415004D01*
X337103Y414948D01*
X337022Y414895D01*
X336940Y414846D01*
X336856Y414800D01*
X336769Y414757D01*
X336682Y414718D01*
X336592Y414682D01*
X336502Y414650D01*
X336410Y414622D01*
X336317Y414597D01*
X336223Y414576D01*
X336129Y414559D01*
X336034Y414545D01*
X335938Y414536D01*
X335842Y414530D01*
X335746Y414528D01*
X333149Y417124D02*
X338342Y423616D01*
X319278Y374142D02*
X319278Y362458D01*
X323173Y367651D02*
X319278Y374142D01*
X323173Y367651D02*
X327067Y374142D01*
X327067Y362458D01*
X332500Y371546D02*
X335746Y374142D01*
X335746Y362458D01*
X338991Y362458D02*
X332500Y362458D01*
X307848Y452628D02*
X307848Y464312D01*
X311743Y457821D01*
X315637Y464312D01*
X315637Y452628D01*
X332091Y459119D02*
X334038Y459119D01*
X334038Y452628D01*
X330144Y452628D01*
X330045Y452630D01*
X329945Y452636D01*
X329846Y452645D01*
X329748Y452658D01*
X329650Y452675D01*
X329552Y452696D01*
X329456Y452721D01*
X329361Y452749D01*
X329267Y452781D01*
X329174Y452816D01*
X329082Y452855D01*
X328992Y452898D01*
X328904Y452943D01*
X328817Y452993D01*
X328733Y453045D01*
X328650Y453101D01*
X328570Y453159D01*
X328492Y453221D01*
X328417Y453286D01*
X328344Y453354D01*
X328274Y453424D01*
X328206Y453497D01*
X328141Y453572D01*
X328079Y453650D01*
X328021Y453730D01*
X327965Y453813D01*
X327913Y453897D01*
X327863Y453984D01*
X327818Y454072D01*
X327775Y454162D01*
X327736Y454254D01*
X327701Y454347D01*
X327669Y454441D01*
X327641Y454536D01*
X327616Y454632D01*
X327595Y454730D01*
X327578Y454828D01*
X327565Y454926D01*
X327556Y455025D01*
X327550Y455125D01*
X327548Y455224D01*
X327547Y455224D02*
X327547Y461716D01*
X327548Y461716D02*
X327550Y461815D01*
X327556Y461915D01*
X327565Y462014D01*
X327578Y462112D01*
X327595Y462210D01*
X327616Y462308D01*
X327641Y462404D01*
X327669Y462499D01*
X327701Y462593D01*
X327736Y462686D01*
X327775Y462778D01*
X327818Y462868D01*
X327863Y462956D01*
X327913Y463043D01*
X327965Y463127D01*
X328021Y463210D01*
X328079Y463290D01*
X328141Y463368D01*
X328206Y463443D01*
X328274Y463516D01*
X328344Y463586D01*
X328417Y463654D01*
X328492Y463719D01*
X328570Y463781D01*
X328650Y463839D01*
X328733Y463895D01*
X328817Y463947D01*
X328904Y463997D01*
X328992Y464042D01*
X329082Y464085D01*
X329174Y464124D01*
X329266Y464159D01*
X329361Y464191D01*
X329456Y464219D01*
X329552Y464244D01*
X329650Y464265D01*
X329748Y464282D01*
X329846Y464295D01*
X329945Y464304D01*
X330045Y464310D01*
X330144Y464312D01*
X334038Y464312D01*
X339739Y464312D02*
X339739Y452628D01*
X346230Y452628D02*
X339739Y464312D01*
X346230Y464312D02*
X346230Y452628D01*
X351931Y452628D02*
X351931Y464312D01*
X355177Y464312D01*
X355290Y464310D01*
X355403Y464304D01*
X355516Y464294D01*
X355629Y464280D01*
X355741Y464263D01*
X355852Y464241D01*
X355962Y464216D01*
X356072Y464186D01*
X356180Y464153D01*
X356287Y464116D01*
X356393Y464076D01*
X356497Y464031D01*
X356600Y463983D01*
X356701Y463932D01*
X356800Y463877D01*
X356897Y463819D01*
X356992Y463757D01*
X357085Y463692D01*
X357175Y463624D01*
X357263Y463553D01*
X357349Y463478D01*
X357432Y463401D01*
X357512Y463321D01*
X357589Y463238D01*
X357664Y463152D01*
X357735Y463064D01*
X357803Y462974D01*
X357868Y462881D01*
X357930Y462786D01*
X357988Y462689D01*
X358043Y462590D01*
X358094Y462489D01*
X358142Y462386D01*
X358187Y462282D01*
X358227Y462176D01*
X358264Y462069D01*
X358297Y461961D01*
X358327Y461851D01*
X358352Y461741D01*
X358374Y461630D01*
X358391Y461518D01*
X358405Y461405D01*
X358415Y461292D01*
X358421Y461179D01*
X358423Y461066D01*
X358422Y461066D02*
X358422Y455874D01*
X358423Y455874D02*
X358421Y455761D01*
X358415Y455648D01*
X358405Y455535D01*
X358391Y455422D01*
X358374Y455310D01*
X358352Y455199D01*
X358327Y455089D01*
X358297Y454979D01*
X358264Y454871D01*
X358227Y454764D01*
X358187Y454658D01*
X358142Y454554D01*
X358094Y454451D01*
X358043Y454350D01*
X357988Y454251D01*
X357930Y454154D01*
X357868Y454059D01*
X357803Y453966D01*
X357735Y453876D01*
X357664Y453788D01*
X357589Y453702D01*
X357512Y453619D01*
X357432Y453539D01*
X357349Y453462D01*
X357263Y453387D01*
X357175Y453316D01*
X357085Y453248D01*
X356992Y453183D01*
X356897Y453121D01*
X356800Y453063D01*
X356701Y453008D01*
X356600Y452957D01*
X356497Y452909D01*
X356393Y452864D01*
X356287Y452824D01*
X356180Y452787D01*
X356072Y452754D01*
X355962Y452724D01*
X355852Y452699D01*
X355741Y452677D01*
X355629Y452660D01*
X355516Y452646D01*
X355403Y452636D01*
X355290Y452630D01*
X355177Y452628D01*
X351931Y452628D01*
X307848Y478028D02*
X307848Y489712D01*
X311743Y483221D01*
X315637Y489712D01*
X315637Y478028D01*
X330412Y478028D02*
X326517Y489712D01*
X334306Y489712D02*
X330412Y478028D01*
X341159Y478028D02*
X343756Y478028D01*
X341159Y478028D02*
X341060Y478030D01*
X340960Y478036D01*
X340861Y478045D01*
X340763Y478058D01*
X340665Y478075D01*
X340567Y478096D01*
X340471Y478121D01*
X340376Y478149D01*
X340282Y478181D01*
X340189Y478216D01*
X340097Y478255D01*
X340007Y478298D01*
X339919Y478343D01*
X339832Y478393D01*
X339748Y478445D01*
X339665Y478501D01*
X339585Y478559D01*
X339507Y478621D01*
X339432Y478686D01*
X339359Y478754D01*
X339289Y478824D01*
X339221Y478897D01*
X339156Y478972D01*
X339094Y479050D01*
X339036Y479130D01*
X338980Y479213D01*
X338928Y479297D01*
X338878Y479384D01*
X338833Y479472D01*
X338790Y479562D01*
X338751Y479654D01*
X338716Y479747D01*
X338684Y479841D01*
X338656Y479936D01*
X338631Y480032D01*
X338610Y480130D01*
X338593Y480228D01*
X338580Y480326D01*
X338571Y480425D01*
X338565Y480525D01*
X338563Y480624D01*
X338563Y487116D01*
X338565Y487215D01*
X338571Y487315D01*
X338580Y487414D01*
X338593Y487512D01*
X338610Y487610D01*
X338631Y487708D01*
X338656Y487804D01*
X338684Y487899D01*
X338716Y487993D01*
X338751Y488086D01*
X338790Y488178D01*
X338833Y488268D01*
X338878Y488356D01*
X338928Y488443D01*
X338980Y488527D01*
X339036Y488610D01*
X339094Y488690D01*
X339156Y488768D01*
X339221Y488843D01*
X339289Y488916D01*
X339359Y488986D01*
X339432Y489054D01*
X339507Y489119D01*
X339585Y489181D01*
X339665Y489239D01*
X339748Y489295D01*
X339832Y489347D01*
X339919Y489397D01*
X340007Y489442D01*
X340097Y489485D01*
X340189Y489524D01*
X340281Y489559D01*
X340376Y489591D01*
X340471Y489619D01*
X340567Y489644D01*
X340665Y489665D01*
X340763Y489682D01*
X340861Y489695D01*
X340960Y489704D01*
X341060Y489710D01*
X341159Y489712D01*
X343756Y489712D01*
X350684Y478028D02*
X353281Y478028D01*
X350684Y478028D02*
X350585Y478030D01*
X350485Y478036D01*
X350386Y478045D01*
X350288Y478058D01*
X350190Y478075D01*
X350092Y478096D01*
X349996Y478121D01*
X349901Y478149D01*
X349807Y478181D01*
X349714Y478216D01*
X349622Y478255D01*
X349532Y478298D01*
X349444Y478343D01*
X349357Y478393D01*
X349273Y478445D01*
X349190Y478501D01*
X349110Y478559D01*
X349032Y478621D01*
X348957Y478686D01*
X348884Y478754D01*
X348814Y478824D01*
X348746Y478897D01*
X348681Y478972D01*
X348619Y479050D01*
X348561Y479130D01*
X348505Y479213D01*
X348453Y479297D01*
X348403Y479384D01*
X348358Y479472D01*
X348315Y479562D01*
X348276Y479654D01*
X348241Y479747D01*
X348209Y479841D01*
X348181Y479936D01*
X348156Y480032D01*
X348135Y480130D01*
X348118Y480228D01*
X348105Y480326D01*
X348096Y480425D01*
X348090Y480525D01*
X348088Y480624D01*
X348088Y487116D01*
X348090Y487215D01*
X348096Y487315D01*
X348105Y487414D01*
X348118Y487512D01*
X348135Y487610D01*
X348156Y487708D01*
X348181Y487804D01*
X348209Y487899D01*
X348241Y487993D01*
X348276Y488086D01*
X348315Y488178D01*
X348358Y488268D01*
X348403Y488356D01*
X348453Y488443D01*
X348505Y488527D01*
X348561Y488610D01*
X348619Y488690D01*
X348681Y488768D01*
X348746Y488843D01*
X348814Y488916D01*
X348884Y488986D01*
X348957Y489054D01*
X349032Y489119D01*
X349110Y489181D01*
X349190Y489239D01*
X349273Y489295D01*
X349357Y489347D01*
X349444Y489397D01*
X349532Y489442D01*
X349622Y489485D01*
X349714Y489524D01*
X349806Y489559D01*
X349901Y489591D01*
X349996Y489619D01*
X350092Y489644D01*
X350190Y489665D01*
X350288Y489682D01*
X350386Y489695D01*
X350485Y489704D01*
X350585Y489710D01*
X350684Y489712D01*
X353281Y489712D01*
D11*
X419100Y546100D02*
X431800Y546100D01*
X419100Y546100D02*
X419100Y419100D01*
X431800Y419100D01*
D10*
X389156Y478028D02*
X389156Y489712D01*
X387858Y478028D02*
X390454Y478028D01*
X390454Y489712D02*
X387858Y489712D01*
X395509Y489712D02*
X395509Y478028D01*
X395509Y489712D02*
X398755Y489712D01*
X398868Y489710D01*
X398981Y489704D01*
X399094Y489694D01*
X399207Y489680D01*
X399319Y489663D01*
X399430Y489641D01*
X399540Y489616D01*
X399650Y489586D01*
X399758Y489553D01*
X399865Y489516D01*
X399971Y489476D01*
X400075Y489431D01*
X400178Y489383D01*
X400279Y489332D01*
X400378Y489277D01*
X400475Y489219D01*
X400570Y489157D01*
X400663Y489092D01*
X400753Y489024D01*
X400841Y488953D01*
X400927Y488878D01*
X401010Y488801D01*
X401090Y488721D01*
X401167Y488638D01*
X401242Y488552D01*
X401313Y488464D01*
X401381Y488374D01*
X401446Y488281D01*
X401508Y488186D01*
X401566Y488089D01*
X401621Y487990D01*
X401672Y487889D01*
X401720Y487786D01*
X401765Y487682D01*
X401805Y487576D01*
X401842Y487469D01*
X401875Y487361D01*
X401905Y487251D01*
X401930Y487141D01*
X401952Y487030D01*
X401969Y486918D01*
X401983Y486805D01*
X401993Y486692D01*
X401999Y486579D01*
X402001Y486466D01*
X401999Y486353D01*
X401993Y486240D01*
X401983Y486127D01*
X401969Y486014D01*
X401952Y485902D01*
X401930Y485791D01*
X401905Y485681D01*
X401875Y485571D01*
X401842Y485463D01*
X401805Y485356D01*
X401765Y485250D01*
X401720Y485146D01*
X401672Y485043D01*
X401621Y484942D01*
X401566Y484843D01*
X401508Y484746D01*
X401446Y484651D01*
X401381Y484558D01*
X401313Y484468D01*
X401242Y484380D01*
X401167Y484294D01*
X401090Y484211D01*
X401010Y484131D01*
X400927Y484054D01*
X400841Y483979D01*
X400753Y483908D01*
X400663Y483840D01*
X400570Y483775D01*
X400475Y483713D01*
X400378Y483655D01*
X400279Y483600D01*
X400178Y483549D01*
X400075Y483501D01*
X399971Y483456D01*
X399865Y483416D01*
X399758Y483379D01*
X399650Y483346D01*
X399540Y483316D01*
X399430Y483291D01*
X399319Y483269D01*
X399207Y483252D01*
X399094Y483238D01*
X398981Y483228D01*
X398868Y483222D01*
X398755Y483220D01*
X398755Y483221D02*
X395509Y483221D01*
X399404Y483221D02*
X402000Y478028D01*
X407726Y482572D02*
X410972Y481274D01*
X407726Y482571D02*
X407651Y482604D01*
X407577Y482640D01*
X407505Y482679D01*
X407435Y482722D01*
X407368Y482768D01*
X407302Y482818D01*
X407240Y482870D01*
X407179Y482926D01*
X407122Y482984D01*
X407067Y483045D01*
X407016Y483109D01*
X406968Y483175D01*
X406923Y483244D01*
X406881Y483314D01*
X406843Y483387D01*
X406808Y483461D01*
X406777Y483537D01*
X406750Y483614D01*
X406727Y483693D01*
X406707Y483772D01*
X406692Y483853D01*
X406680Y483934D01*
X406672Y484016D01*
X406668Y484097D01*
X406669Y484179D01*
X406673Y484261D01*
X406681Y484343D01*
X406693Y484424D01*
X406709Y484504D01*
X406729Y484584D01*
X406753Y484662D01*
X406781Y484739D01*
X406812Y484815D01*
X406847Y484889D01*
X406885Y484961D01*
X406927Y485032D01*
X406973Y485100D01*
X407021Y485166D01*
X407073Y485229D01*
X407128Y485290D01*
X407186Y485348D01*
X407246Y485404D01*
X407309Y485456D01*
X407375Y485505D01*
X407443Y485551D01*
X407513Y485593D01*
X407585Y485633D01*
X407659Y485668D01*
X407734Y485700D01*
X407811Y485728D01*
X407889Y485752D01*
X407969Y485773D01*
X408049Y485790D01*
X408130Y485802D01*
X408211Y485811D01*
X408293Y485816D01*
X408375Y485817D01*
X408552Y485813D01*
X408729Y485804D01*
X408906Y485790D01*
X409083Y485773D01*
X409258Y485751D01*
X409434Y485726D01*
X409608Y485695D01*
X409782Y485661D01*
X409955Y485623D01*
X410127Y485580D01*
X410298Y485533D01*
X410468Y485483D01*
X410637Y485428D01*
X410804Y485369D01*
X410969Y485306D01*
X411134Y485239D01*
X411296Y485168D01*
X410972Y481274D02*
X411047Y481241D01*
X411121Y481205D01*
X411193Y481166D01*
X411263Y481123D01*
X411330Y481077D01*
X411396Y481027D01*
X411458Y480975D01*
X411519Y480919D01*
X411576Y480861D01*
X411631Y480800D01*
X411682Y480736D01*
X411730Y480670D01*
X411775Y480601D01*
X411817Y480531D01*
X411855Y480458D01*
X411890Y480384D01*
X411921Y480308D01*
X411948Y480231D01*
X411971Y480152D01*
X411991Y480073D01*
X412006Y479992D01*
X412018Y479911D01*
X412026Y479829D01*
X412030Y479748D01*
X412029Y479666D01*
X412025Y479584D01*
X412017Y479502D01*
X412005Y479421D01*
X411989Y479341D01*
X411969Y479261D01*
X411945Y479183D01*
X411917Y479106D01*
X411886Y479030D01*
X411851Y478956D01*
X411813Y478884D01*
X411771Y478813D01*
X411725Y478745D01*
X411677Y478679D01*
X411625Y478616D01*
X411570Y478555D01*
X411512Y478497D01*
X411452Y478441D01*
X411389Y478389D01*
X411323Y478340D01*
X411255Y478294D01*
X411185Y478252D01*
X411113Y478212D01*
X411039Y478177D01*
X410964Y478145D01*
X410887Y478117D01*
X410809Y478093D01*
X410729Y478072D01*
X410649Y478055D01*
X410568Y478043D01*
X410487Y478034D01*
X410405Y478029D01*
X410323Y478028D01*
X410063Y478035D01*
X409803Y478048D01*
X409543Y478067D01*
X409284Y478092D01*
X409025Y478124D01*
X408768Y478161D01*
X408511Y478205D01*
X408255Y478254D01*
X408001Y478310D01*
X407748Y478371D01*
X407497Y478439D01*
X407247Y478513D01*
X406999Y478592D01*
X406753Y478677D01*
X389241Y387858D02*
X386644Y387858D01*
X386545Y387860D01*
X386445Y387866D01*
X386346Y387875D01*
X386248Y387888D01*
X386150Y387905D01*
X386052Y387926D01*
X385956Y387951D01*
X385861Y387979D01*
X385767Y388011D01*
X385674Y388046D01*
X385582Y388085D01*
X385492Y388128D01*
X385404Y388173D01*
X385317Y388223D01*
X385233Y388275D01*
X385150Y388331D01*
X385070Y388389D01*
X384992Y388451D01*
X384917Y388516D01*
X384844Y388584D01*
X384774Y388654D01*
X384706Y388727D01*
X384641Y388802D01*
X384579Y388880D01*
X384521Y388960D01*
X384465Y389043D01*
X384413Y389127D01*
X384363Y389214D01*
X384318Y389302D01*
X384275Y389392D01*
X384236Y389484D01*
X384201Y389577D01*
X384169Y389671D01*
X384141Y389766D01*
X384116Y389862D01*
X384095Y389960D01*
X384078Y390058D01*
X384065Y390156D01*
X384056Y390255D01*
X384050Y390355D01*
X384048Y390454D01*
X384048Y396946D01*
X384050Y397045D01*
X384056Y397145D01*
X384065Y397244D01*
X384078Y397342D01*
X384095Y397440D01*
X384116Y397538D01*
X384141Y397634D01*
X384169Y397729D01*
X384201Y397823D01*
X384236Y397916D01*
X384275Y398008D01*
X384318Y398098D01*
X384363Y398186D01*
X384413Y398273D01*
X384465Y398357D01*
X384521Y398440D01*
X384579Y398520D01*
X384641Y398598D01*
X384706Y398673D01*
X384774Y398746D01*
X384844Y398816D01*
X384917Y398884D01*
X384992Y398949D01*
X385070Y399011D01*
X385150Y399069D01*
X385233Y399125D01*
X385317Y399177D01*
X385404Y399227D01*
X385492Y399272D01*
X385582Y399315D01*
X385674Y399354D01*
X385766Y399389D01*
X385861Y399421D01*
X385956Y399449D01*
X386052Y399474D01*
X386150Y399495D01*
X386248Y399512D01*
X386346Y399525D01*
X386445Y399534D01*
X386545Y399540D01*
X386644Y399542D01*
X389241Y399542D01*
X396090Y399542D02*
X396090Y387858D01*
X392844Y399542D02*
X399335Y399542D01*
X403967Y399542D02*
X403967Y387858D01*
X403967Y399542D02*
X407212Y399542D01*
X407325Y399540D01*
X407438Y399534D01*
X407551Y399524D01*
X407664Y399510D01*
X407776Y399493D01*
X407887Y399471D01*
X407997Y399446D01*
X408107Y399416D01*
X408215Y399383D01*
X408322Y399346D01*
X408428Y399306D01*
X408532Y399261D01*
X408635Y399213D01*
X408736Y399162D01*
X408835Y399107D01*
X408932Y399049D01*
X409027Y398987D01*
X409120Y398922D01*
X409210Y398854D01*
X409298Y398783D01*
X409384Y398708D01*
X409467Y398631D01*
X409547Y398551D01*
X409624Y398468D01*
X409699Y398382D01*
X409770Y398294D01*
X409838Y398204D01*
X409903Y398111D01*
X409965Y398016D01*
X410023Y397919D01*
X410078Y397820D01*
X410129Y397719D01*
X410177Y397616D01*
X410222Y397512D01*
X410262Y397406D01*
X410299Y397299D01*
X410332Y397191D01*
X410362Y397081D01*
X410387Y396971D01*
X410409Y396860D01*
X410426Y396748D01*
X410440Y396635D01*
X410450Y396522D01*
X410456Y396409D01*
X410458Y396296D01*
X410456Y396183D01*
X410450Y396070D01*
X410440Y395957D01*
X410426Y395844D01*
X410409Y395732D01*
X410387Y395621D01*
X410362Y395511D01*
X410332Y395401D01*
X410299Y395293D01*
X410262Y395186D01*
X410222Y395080D01*
X410177Y394976D01*
X410129Y394873D01*
X410078Y394772D01*
X410023Y394673D01*
X409965Y394576D01*
X409903Y394481D01*
X409838Y394388D01*
X409770Y394298D01*
X409699Y394210D01*
X409624Y394124D01*
X409547Y394041D01*
X409467Y393961D01*
X409384Y393884D01*
X409298Y393809D01*
X409210Y393738D01*
X409120Y393670D01*
X409027Y393605D01*
X408932Y393543D01*
X408835Y393485D01*
X408736Y393430D01*
X408635Y393379D01*
X408532Y393331D01*
X408428Y393286D01*
X408322Y393246D01*
X408215Y393209D01*
X408107Y393176D01*
X407997Y393146D01*
X407887Y393121D01*
X407776Y393099D01*
X407664Y393082D01*
X407551Y393068D01*
X407438Y393058D01*
X407325Y393052D01*
X407212Y393050D01*
X407212Y393051D02*
X403967Y393051D01*
X407861Y393051D02*
X410458Y387858D01*
X415727Y387858D02*
X415727Y399542D01*
X415727Y387858D02*
X420920Y387858D01*
D11*
X312420Y431800D02*
X304800Y431800D01*
X312420Y431800D02*
X312420Y406400D01*
X304800Y406400D01*
X304800Y381000D02*
X312420Y381000D01*
X312420Y355600D01*
X304800Y355600D01*
X109107Y125984D02*
X109107Y102616D01*
X102616Y125984D02*
X115598Y125984D01*
X122705Y125984D02*
X122705Y102616D01*
X122705Y118195D02*
X129196Y118195D01*
X129318Y118193D01*
X129441Y118187D01*
X129563Y118178D01*
X129684Y118164D01*
X129805Y118147D01*
X129926Y118126D01*
X130046Y118101D01*
X130165Y118073D01*
X130283Y118040D01*
X130400Y118004D01*
X130515Y117965D01*
X130630Y117921D01*
X130743Y117875D01*
X130854Y117824D01*
X130964Y117770D01*
X131072Y117713D01*
X131179Y117653D01*
X131283Y117589D01*
X131385Y117521D01*
X131485Y117451D01*
X131583Y117378D01*
X131679Y117301D01*
X131772Y117222D01*
X131862Y117139D01*
X131950Y117054D01*
X132035Y116966D01*
X132118Y116876D01*
X132197Y116783D01*
X132274Y116687D01*
X132347Y116589D01*
X132417Y116489D01*
X132485Y116387D01*
X132549Y116283D01*
X132609Y116176D01*
X132666Y116068D01*
X132720Y115958D01*
X132771Y115847D01*
X132817Y115734D01*
X132861Y115619D01*
X132900Y115504D01*
X132936Y115387D01*
X132969Y115269D01*
X132997Y115150D01*
X133022Y115030D01*
X133043Y114909D01*
X133060Y114788D01*
X133074Y114667D01*
X133083Y114545D01*
X133089Y114422D01*
X133091Y114300D01*
X133091Y102616D01*
X145391Y102616D02*
X151882Y102616D01*
X145391Y102616D02*
X145269Y102618D01*
X145146Y102624D01*
X145024Y102633D01*
X144903Y102647D01*
X144782Y102664D01*
X144661Y102685D01*
X144541Y102710D01*
X144422Y102738D01*
X144304Y102771D01*
X144187Y102807D01*
X144072Y102846D01*
X143957Y102890D01*
X143844Y102936D01*
X143733Y102987D01*
X143623Y103041D01*
X143515Y103098D01*
X143408Y103158D01*
X143304Y103222D01*
X143202Y103290D01*
X143102Y103360D01*
X143004Y103433D01*
X142908Y103510D01*
X142815Y103589D01*
X142725Y103672D01*
X142637Y103757D01*
X142552Y103845D01*
X142469Y103935D01*
X142390Y104028D01*
X142313Y104124D01*
X142240Y104222D01*
X142170Y104322D01*
X142102Y104424D01*
X142038Y104528D01*
X141978Y104635D01*
X141921Y104743D01*
X141867Y104853D01*
X141816Y104964D01*
X141770Y105077D01*
X141726Y105192D01*
X141687Y105307D01*
X141651Y105424D01*
X141618Y105542D01*
X141590Y105661D01*
X141565Y105781D01*
X141544Y105902D01*
X141527Y106023D01*
X141513Y106144D01*
X141504Y106266D01*
X141498Y106389D01*
X141496Y106511D01*
X141496Y113002D01*
X141498Y113145D01*
X141504Y113288D01*
X141514Y113431D01*
X141528Y113573D01*
X141545Y113715D01*
X141567Y113857D01*
X141592Y113998D01*
X141622Y114138D01*
X141655Y114277D01*
X141692Y114415D01*
X141733Y114552D01*
X141777Y114688D01*
X141826Y114823D01*
X141878Y114956D01*
X141933Y115088D01*
X141993Y115218D01*
X142056Y115347D01*
X142122Y115474D01*
X142192Y115599D01*
X142265Y115721D01*
X142342Y115842D01*
X142422Y115961D01*
X142505Y116077D01*
X142591Y116192D01*
X142680Y116303D01*
X142773Y116413D01*
X142868Y116519D01*
X142967Y116623D01*
X143068Y116724D01*
X143172Y116823D01*
X143278Y116918D01*
X143388Y117011D01*
X143499Y117100D01*
X143614Y117186D01*
X143730Y117269D01*
X143849Y117349D01*
X143970Y117426D01*
X144093Y117499D01*
X144217Y117569D01*
X144344Y117635D01*
X144473Y117698D01*
X144603Y117758D01*
X144735Y117813D01*
X144868Y117865D01*
X145003Y117914D01*
X145139Y117958D01*
X145276Y117999D01*
X145414Y118036D01*
X145553Y118069D01*
X145693Y118099D01*
X145834Y118124D01*
X145976Y118146D01*
X146118Y118163D01*
X146260Y118177D01*
X146403Y118187D01*
X146546Y118193D01*
X146689Y118195D01*
X146832Y118193D01*
X146975Y118187D01*
X147118Y118177D01*
X147260Y118163D01*
X147402Y118146D01*
X147544Y118124D01*
X147685Y118099D01*
X147825Y118069D01*
X147964Y118036D01*
X148102Y117999D01*
X148239Y117958D01*
X148375Y117914D01*
X148510Y117865D01*
X148643Y117813D01*
X148775Y117758D01*
X148905Y117698D01*
X149034Y117635D01*
X149161Y117569D01*
X149286Y117499D01*
X149408Y117426D01*
X149529Y117349D01*
X149648Y117269D01*
X149764Y117186D01*
X149879Y117100D01*
X149990Y117011D01*
X150100Y116918D01*
X150206Y116823D01*
X150310Y116724D01*
X150411Y116623D01*
X150510Y116519D01*
X150605Y116413D01*
X150698Y116303D01*
X150787Y116192D01*
X150873Y116077D01*
X150956Y115961D01*
X151036Y115842D01*
X151113Y115721D01*
X151186Y115599D01*
X151256Y115474D01*
X151322Y115347D01*
X151385Y115218D01*
X151445Y115088D01*
X151500Y114956D01*
X151552Y114823D01*
X151601Y114688D01*
X151645Y114552D01*
X151686Y114415D01*
X151723Y114277D01*
X151756Y114138D01*
X151786Y113998D01*
X151811Y113857D01*
X151833Y113715D01*
X151850Y113573D01*
X151864Y113431D01*
X151874Y113288D01*
X151880Y113145D01*
X151882Y113002D01*
X151882Y110405D01*
X141496Y110405D01*
X171663Y102616D02*
X171663Y125984D01*
X178155Y125984D01*
X178314Y125982D01*
X178473Y125976D01*
X178633Y125966D01*
X178791Y125953D01*
X178950Y125935D01*
X179107Y125914D01*
X179265Y125888D01*
X179421Y125859D01*
X179577Y125826D01*
X179732Y125789D01*
X179886Y125749D01*
X180039Y125704D01*
X180191Y125656D01*
X180342Y125605D01*
X180491Y125549D01*
X180639Y125490D01*
X180785Y125427D01*
X180930Y125361D01*
X181073Y125291D01*
X181215Y125218D01*
X181354Y125141D01*
X181492Y125061D01*
X181628Y124977D01*
X181761Y124890D01*
X181893Y124800D01*
X182022Y124707D01*
X182148Y124610D01*
X182273Y124511D01*
X182395Y124408D01*
X182514Y124303D01*
X182631Y124194D01*
X182745Y124083D01*
X182856Y123969D01*
X182965Y123852D01*
X183070Y123733D01*
X183173Y123611D01*
X183272Y123486D01*
X183369Y123360D01*
X183462Y123231D01*
X183552Y123099D01*
X183639Y122966D01*
X183723Y122830D01*
X183803Y122692D01*
X183880Y122553D01*
X183953Y122411D01*
X184023Y122268D01*
X184089Y122123D01*
X184152Y121977D01*
X184211Y121829D01*
X184267Y121680D01*
X184318Y121529D01*
X184366Y121377D01*
X184411Y121224D01*
X184451Y121070D01*
X184488Y120915D01*
X184521Y120759D01*
X184550Y120603D01*
X184576Y120445D01*
X184597Y120288D01*
X184615Y120129D01*
X184628Y119971D01*
X184638Y119811D01*
X184644Y119652D01*
X184646Y119493D01*
X184644Y119334D01*
X184638Y119175D01*
X184628Y119015D01*
X184615Y118857D01*
X184597Y118698D01*
X184576Y118541D01*
X184550Y118383D01*
X184521Y118227D01*
X184488Y118071D01*
X184451Y117916D01*
X184411Y117762D01*
X184366Y117609D01*
X184318Y117457D01*
X184267Y117306D01*
X184211Y117157D01*
X184152Y117009D01*
X184089Y116863D01*
X184023Y116718D01*
X183953Y116575D01*
X183880Y116433D01*
X183803Y116294D01*
X183723Y116156D01*
X183639Y116020D01*
X183552Y115887D01*
X183462Y115755D01*
X183369Y115626D01*
X183272Y115500D01*
X183173Y115375D01*
X183070Y115253D01*
X182965Y115134D01*
X182856Y115017D01*
X182745Y114903D01*
X182631Y114792D01*
X182514Y114683D01*
X182395Y114578D01*
X182273Y114475D01*
X182148Y114376D01*
X182022Y114279D01*
X181893Y114186D01*
X181761Y114096D01*
X181628Y114009D01*
X181492Y113925D01*
X181354Y113845D01*
X181215Y113768D01*
X181073Y113695D01*
X180930Y113625D01*
X180785Y113559D01*
X180639Y113496D01*
X180491Y113437D01*
X180342Y113381D01*
X180191Y113330D01*
X180039Y113282D01*
X179886Y113237D01*
X179732Y113197D01*
X179577Y113160D01*
X179421Y113127D01*
X179265Y113098D01*
X179107Y113072D01*
X178950Y113051D01*
X178791Y113033D01*
X178633Y113020D01*
X178473Y113010D01*
X178314Y113004D01*
X178155Y113002D01*
X171663Y113002D01*
X191926Y118195D02*
X191926Y102616D01*
X191277Y124686D02*
X191277Y125984D01*
X192575Y125984D01*
X192575Y124686D01*
X191277Y124686D01*
X200652Y118195D02*
X200652Y102616D01*
X200652Y118195D02*
X207143Y118195D01*
X207265Y118193D01*
X207388Y118187D01*
X207510Y118178D01*
X207631Y118164D01*
X207752Y118147D01*
X207873Y118126D01*
X207993Y118101D01*
X208112Y118073D01*
X208230Y118040D01*
X208347Y118004D01*
X208462Y117965D01*
X208577Y117921D01*
X208690Y117875D01*
X208801Y117824D01*
X208911Y117770D01*
X209019Y117713D01*
X209126Y117653D01*
X209230Y117589D01*
X209332Y117521D01*
X209432Y117451D01*
X209530Y117378D01*
X209626Y117301D01*
X209719Y117222D01*
X209809Y117139D01*
X209897Y117054D01*
X209982Y116966D01*
X210065Y116876D01*
X210144Y116783D01*
X210221Y116687D01*
X210294Y116589D01*
X210364Y116489D01*
X210432Y116387D01*
X210496Y116283D01*
X210556Y116176D01*
X210613Y116068D01*
X210667Y115958D01*
X210718Y115847D01*
X210764Y115734D01*
X210808Y115619D01*
X210847Y115504D01*
X210883Y115387D01*
X210916Y115269D01*
X210944Y115150D01*
X210969Y115030D01*
X210990Y114909D01*
X211007Y114788D01*
X211021Y114667D01*
X211030Y114545D01*
X211036Y114422D01*
X211038Y114300D01*
X211038Y102616D01*
X220257Y102616D02*
X220257Y125984D01*
X230643Y118195D02*
X220257Y110405D01*
X224801Y113651D02*
X230643Y102616D01*
X249527Y102616D02*
X249527Y125984D01*
X256018Y125984D01*
X256177Y125982D01*
X256336Y125976D01*
X256496Y125966D01*
X256654Y125953D01*
X256813Y125935D01*
X256970Y125914D01*
X257128Y125888D01*
X257284Y125859D01*
X257440Y125826D01*
X257595Y125789D01*
X257749Y125749D01*
X257902Y125704D01*
X258054Y125656D01*
X258205Y125605D01*
X258354Y125549D01*
X258502Y125490D01*
X258648Y125427D01*
X258793Y125361D01*
X258936Y125291D01*
X259078Y125218D01*
X259217Y125141D01*
X259355Y125061D01*
X259491Y124977D01*
X259624Y124890D01*
X259756Y124800D01*
X259885Y124707D01*
X260011Y124610D01*
X260136Y124511D01*
X260258Y124408D01*
X260377Y124303D01*
X260494Y124194D01*
X260608Y124083D01*
X260719Y123969D01*
X260828Y123852D01*
X260933Y123733D01*
X261036Y123611D01*
X261135Y123486D01*
X261232Y123360D01*
X261325Y123231D01*
X261415Y123099D01*
X261502Y122966D01*
X261586Y122830D01*
X261666Y122692D01*
X261743Y122553D01*
X261816Y122411D01*
X261886Y122268D01*
X261952Y122123D01*
X262015Y121977D01*
X262074Y121829D01*
X262130Y121680D01*
X262181Y121529D01*
X262229Y121377D01*
X262274Y121224D01*
X262314Y121070D01*
X262351Y120915D01*
X262384Y120759D01*
X262413Y120603D01*
X262439Y120445D01*
X262460Y120288D01*
X262478Y120129D01*
X262491Y119971D01*
X262501Y119811D01*
X262507Y119652D01*
X262509Y119493D01*
X262507Y119334D01*
X262501Y119175D01*
X262491Y119015D01*
X262478Y118857D01*
X262460Y118698D01*
X262439Y118541D01*
X262413Y118383D01*
X262384Y118227D01*
X262351Y118071D01*
X262314Y117916D01*
X262274Y117762D01*
X262229Y117609D01*
X262181Y117457D01*
X262130Y117306D01*
X262074Y117157D01*
X262015Y117009D01*
X261952Y116863D01*
X261886Y116718D01*
X261816Y116575D01*
X261743Y116433D01*
X261666Y116294D01*
X261586Y116156D01*
X261502Y116020D01*
X261415Y115887D01*
X261325Y115755D01*
X261232Y115626D01*
X261135Y115500D01*
X261036Y115375D01*
X260933Y115253D01*
X260828Y115134D01*
X260719Y115017D01*
X260608Y114903D01*
X260494Y114792D01*
X260377Y114683D01*
X260258Y114578D01*
X260136Y114475D01*
X260011Y114376D01*
X259885Y114279D01*
X259756Y114186D01*
X259624Y114096D01*
X259491Y114009D01*
X259355Y113925D01*
X259217Y113845D01*
X259078Y113768D01*
X258936Y113695D01*
X258793Y113625D01*
X258648Y113559D01*
X258502Y113496D01*
X258354Y113437D01*
X258205Y113381D01*
X258054Y113330D01*
X257902Y113282D01*
X257749Y113237D01*
X257595Y113197D01*
X257440Y113160D01*
X257284Y113127D01*
X257128Y113098D01*
X256970Y113072D01*
X256813Y113051D01*
X256654Y113033D01*
X256496Y113020D01*
X256336Y113010D01*
X256177Y113004D01*
X256018Y113002D01*
X249527Y113002D01*
X257316Y113002D02*
X262509Y102616D01*
X274143Y102616D02*
X280634Y102616D01*
X274143Y102616D02*
X274021Y102618D01*
X273898Y102624D01*
X273776Y102633D01*
X273655Y102647D01*
X273534Y102664D01*
X273413Y102685D01*
X273293Y102710D01*
X273174Y102738D01*
X273056Y102771D01*
X272939Y102807D01*
X272824Y102846D01*
X272709Y102890D01*
X272596Y102936D01*
X272485Y102987D01*
X272375Y103041D01*
X272267Y103098D01*
X272160Y103158D01*
X272056Y103222D01*
X271954Y103290D01*
X271854Y103360D01*
X271756Y103433D01*
X271660Y103510D01*
X271567Y103589D01*
X271477Y103672D01*
X271389Y103757D01*
X271304Y103845D01*
X271221Y103935D01*
X271142Y104028D01*
X271065Y104124D01*
X270992Y104222D01*
X270922Y104322D01*
X270854Y104424D01*
X270790Y104528D01*
X270730Y104635D01*
X270673Y104743D01*
X270619Y104853D01*
X270568Y104964D01*
X270522Y105077D01*
X270478Y105192D01*
X270439Y105307D01*
X270403Y105424D01*
X270370Y105542D01*
X270342Y105661D01*
X270317Y105781D01*
X270296Y105902D01*
X270279Y106023D01*
X270265Y106144D01*
X270256Y106266D01*
X270250Y106389D01*
X270248Y106511D01*
X270248Y113002D01*
X270250Y113145D01*
X270256Y113288D01*
X270266Y113431D01*
X270280Y113573D01*
X270297Y113715D01*
X270319Y113857D01*
X270344Y113998D01*
X270374Y114138D01*
X270407Y114277D01*
X270444Y114415D01*
X270485Y114552D01*
X270529Y114688D01*
X270578Y114823D01*
X270630Y114956D01*
X270685Y115088D01*
X270745Y115218D01*
X270808Y115347D01*
X270874Y115474D01*
X270944Y115599D01*
X271017Y115721D01*
X271094Y115842D01*
X271174Y115961D01*
X271257Y116077D01*
X271343Y116192D01*
X271432Y116303D01*
X271525Y116413D01*
X271620Y116519D01*
X271719Y116623D01*
X271820Y116724D01*
X271924Y116823D01*
X272030Y116918D01*
X272140Y117011D01*
X272251Y117100D01*
X272366Y117186D01*
X272482Y117269D01*
X272601Y117349D01*
X272722Y117426D01*
X272845Y117499D01*
X272969Y117569D01*
X273096Y117635D01*
X273225Y117698D01*
X273355Y117758D01*
X273487Y117813D01*
X273620Y117865D01*
X273755Y117914D01*
X273891Y117958D01*
X274028Y117999D01*
X274166Y118036D01*
X274305Y118069D01*
X274445Y118099D01*
X274586Y118124D01*
X274728Y118146D01*
X274870Y118163D01*
X275012Y118177D01*
X275155Y118187D01*
X275298Y118193D01*
X275441Y118195D01*
X275584Y118193D01*
X275727Y118187D01*
X275870Y118177D01*
X276012Y118163D01*
X276154Y118146D01*
X276296Y118124D01*
X276437Y118099D01*
X276577Y118069D01*
X276716Y118036D01*
X276854Y117999D01*
X276991Y117958D01*
X277127Y117914D01*
X277262Y117865D01*
X277395Y117813D01*
X277527Y117758D01*
X277657Y117698D01*
X277786Y117635D01*
X277913Y117569D01*
X278038Y117499D01*
X278160Y117426D01*
X278281Y117349D01*
X278400Y117269D01*
X278516Y117186D01*
X278631Y117100D01*
X278742Y117011D01*
X278852Y116918D01*
X278958Y116823D01*
X279062Y116724D01*
X279163Y116623D01*
X279262Y116519D01*
X279357Y116413D01*
X279450Y116303D01*
X279539Y116192D01*
X279625Y116077D01*
X279708Y115961D01*
X279788Y115842D01*
X279865Y115721D01*
X279938Y115599D01*
X280008Y115474D01*
X280074Y115347D01*
X280137Y115218D01*
X280197Y115088D01*
X280252Y114956D01*
X280304Y114823D01*
X280353Y114688D01*
X280397Y114552D01*
X280438Y114415D01*
X280475Y114277D01*
X280508Y114138D01*
X280538Y113998D01*
X280563Y113857D01*
X280585Y113715D01*
X280602Y113573D01*
X280616Y113431D01*
X280626Y113288D01*
X280632Y113145D01*
X280634Y113002D01*
X280634Y110405D01*
X270248Y110405D01*
X298678Y118195D02*
X298678Y94827D01*
X298678Y118195D02*
X292187Y118195D01*
X292065Y118193D01*
X291942Y118187D01*
X291820Y118178D01*
X291699Y118164D01*
X291578Y118147D01*
X291457Y118126D01*
X291337Y118101D01*
X291218Y118073D01*
X291100Y118040D01*
X290983Y118004D01*
X290868Y117965D01*
X290753Y117921D01*
X290640Y117875D01*
X290529Y117824D01*
X290419Y117770D01*
X290311Y117713D01*
X290204Y117653D01*
X290100Y117589D01*
X289998Y117521D01*
X289898Y117451D01*
X289800Y117378D01*
X289704Y117301D01*
X289611Y117222D01*
X289521Y117139D01*
X289433Y117054D01*
X289348Y116966D01*
X289265Y116876D01*
X289186Y116783D01*
X289109Y116687D01*
X289036Y116589D01*
X288966Y116489D01*
X288898Y116387D01*
X288834Y116283D01*
X288774Y116176D01*
X288717Y116068D01*
X288663Y115958D01*
X288612Y115847D01*
X288566Y115734D01*
X288522Y115619D01*
X288483Y115504D01*
X288447Y115387D01*
X288414Y115269D01*
X288386Y115150D01*
X288361Y115030D01*
X288340Y114909D01*
X288323Y114788D01*
X288309Y114667D01*
X288300Y114545D01*
X288294Y114422D01*
X288292Y114300D01*
X288292Y106511D01*
X288294Y106389D01*
X288300Y106266D01*
X288309Y106144D01*
X288323Y106023D01*
X288340Y105902D01*
X288361Y105781D01*
X288386Y105661D01*
X288414Y105542D01*
X288447Y105424D01*
X288483Y105307D01*
X288522Y105192D01*
X288566Y105077D01*
X288612Y104964D01*
X288663Y104853D01*
X288717Y104743D01*
X288774Y104635D01*
X288834Y104528D01*
X288898Y104424D01*
X288966Y104322D01*
X289036Y104222D01*
X289109Y104124D01*
X289186Y104028D01*
X289265Y103935D01*
X289348Y103845D01*
X289433Y103757D01*
X289521Y103672D01*
X289611Y103589D01*
X289704Y103510D01*
X289800Y103433D01*
X289898Y103360D01*
X289998Y103290D01*
X290100Y103222D01*
X290204Y103158D01*
X290311Y103098D01*
X290419Y103041D01*
X290529Y102987D01*
X290640Y102936D01*
X290753Y102890D01*
X290868Y102846D01*
X290983Y102807D01*
X291100Y102771D01*
X291218Y102738D01*
X291337Y102710D01*
X291457Y102685D01*
X291578Y102664D01*
X291699Y102647D01*
X291820Y102633D01*
X291942Y102624D01*
X292065Y102618D01*
X292187Y102616D01*
X298678Y102616D01*
X307830Y106511D02*
X307830Y118195D01*
X307830Y106511D02*
X307832Y106389D01*
X307838Y106266D01*
X307847Y106144D01*
X307861Y106023D01*
X307878Y105902D01*
X307899Y105781D01*
X307924Y105661D01*
X307952Y105542D01*
X307985Y105424D01*
X308021Y105307D01*
X308060Y105192D01*
X308104Y105077D01*
X308150Y104964D01*
X308201Y104853D01*
X308255Y104743D01*
X308312Y104635D01*
X308372Y104528D01*
X308436Y104424D01*
X308504Y104322D01*
X308574Y104222D01*
X308647Y104124D01*
X308724Y104028D01*
X308803Y103935D01*
X308886Y103845D01*
X308971Y103757D01*
X309059Y103672D01*
X309149Y103589D01*
X309242Y103510D01*
X309338Y103433D01*
X309436Y103360D01*
X309536Y103290D01*
X309638Y103222D01*
X309742Y103158D01*
X309849Y103098D01*
X309957Y103041D01*
X310067Y102987D01*
X310178Y102936D01*
X310291Y102890D01*
X310406Y102846D01*
X310521Y102807D01*
X310638Y102771D01*
X310756Y102738D01*
X310875Y102710D01*
X310995Y102685D01*
X311116Y102664D01*
X311237Y102647D01*
X311358Y102633D01*
X311480Y102624D01*
X311603Y102618D01*
X311725Y102616D01*
X318216Y102616D01*
X318216Y118195D01*
X326942Y118195D02*
X326942Y102616D01*
X326293Y124686D02*
X326293Y125984D01*
X327591Y125984D01*
X327591Y124686D01*
X326293Y124686D01*
X335732Y118195D02*
X335732Y102616D01*
X335732Y118195D02*
X343521Y118195D01*
X343521Y115598D01*
X353482Y102616D02*
X359973Y102616D01*
X353482Y102616D02*
X353360Y102618D01*
X353237Y102624D01*
X353115Y102633D01*
X352994Y102647D01*
X352873Y102664D01*
X352752Y102685D01*
X352632Y102710D01*
X352513Y102738D01*
X352395Y102771D01*
X352278Y102807D01*
X352163Y102846D01*
X352048Y102890D01*
X351935Y102936D01*
X351824Y102987D01*
X351714Y103041D01*
X351606Y103098D01*
X351499Y103158D01*
X351395Y103222D01*
X351293Y103290D01*
X351193Y103360D01*
X351095Y103433D01*
X350999Y103510D01*
X350906Y103589D01*
X350816Y103672D01*
X350728Y103757D01*
X350643Y103845D01*
X350560Y103935D01*
X350481Y104028D01*
X350404Y104124D01*
X350331Y104222D01*
X350261Y104322D01*
X350193Y104424D01*
X350129Y104528D01*
X350069Y104635D01*
X350012Y104743D01*
X349958Y104853D01*
X349907Y104964D01*
X349861Y105077D01*
X349817Y105192D01*
X349778Y105307D01*
X349742Y105424D01*
X349709Y105542D01*
X349681Y105661D01*
X349656Y105781D01*
X349635Y105902D01*
X349618Y106023D01*
X349604Y106144D01*
X349595Y106266D01*
X349589Y106389D01*
X349587Y106511D01*
X349587Y113002D01*
X349589Y113145D01*
X349595Y113288D01*
X349605Y113431D01*
X349619Y113573D01*
X349636Y113715D01*
X349658Y113857D01*
X349683Y113998D01*
X349713Y114138D01*
X349746Y114277D01*
X349783Y114415D01*
X349824Y114552D01*
X349868Y114688D01*
X349917Y114823D01*
X349969Y114956D01*
X350024Y115088D01*
X350084Y115218D01*
X350147Y115347D01*
X350213Y115474D01*
X350283Y115599D01*
X350356Y115721D01*
X350433Y115842D01*
X350513Y115961D01*
X350596Y116077D01*
X350682Y116192D01*
X350771Y116303D01*
X350864Y116413D01*
X350959Y116519D01*
X351058Y116623D01*
X351159Y116724D01*
X351263Y116823D01*
X351369Y116918D01*
X351479Y117011D01*
X351590Y117100D01*
X351705Y117186D01*
X351821Y117269D01*
X351940Y117349D01*
X352061Y117426D01*
X352184Y117499D01*
X352308Y117569D01*
X352435Y117635D01*
X352564Y117698D01*
X352694Y117758D01*
X352826Y117813D01*
X352959Y117865D01*
X353094Y117914D01*
X353230Y117958D01*
X353367Y117999D01*
X353505Y118036D01*
X353644Y118069D01*
X353784Y118099D01*
X353925Y118124D01*
X354067Y118146D01*
X354209Y118163D01*
X354351Y118177D01*
X354494Y118187D01*
X354637Y118193D01*
X354780Y118195D01*
X354923Y118193D01*
X355066Y118187D01*
X355209Y118177D01*
X355351Y118163D01*
X355493Y118146D01*
X355635Y118124D01*
X355776Y118099D01*
X355916Y118069D01*
X356055Y118036D01*
X356193Y117999D01*
X356330Y117958D01*
X356466Y117914D01*
X356601Y117865D01*
X356734Y117813D01*
X356866Y117758D01*
X356996Y117698D01*
X357125Y117635D01*
X357252Y117569D01*
X357377Y117499D01*
X357499Y117426D01*
X357620Y117349D01*
X357739Y117269D01*
X357855Y117186D01*
X357970Y117100D01*
X358081Y117011D01*
X358191Y116918D01*
X358297Y116823D01*
X358401Y116724D01*
X358502Y116623D01*
X358601Y116519D01*
X358696Y116413D01*
X358789Y116303D01*
X358878Y116192D01*
X358964Y116077D01*
X359047Y115961D01*
X359127Y115842D01*
X359204Y115721D01*
X359277Y115599D01*
X359347Y115474D01*
X359413Y115347D01*
X359476Y115218D01*
X359536Y115088D01*
X359591Y114956D01*
X359643Y114823D01*
X359692Y114688D01*
X359736Y114552D01*
X359777Y114415D01*
X359814Y114277D01*
X359847Y114138D01*
X359877Y113998D01*
X359902Y113857D01*
X359924Y113715D01*
X359941Y113573D01*
X359955Y113431D01*
X359965Y113288D01*
X359971Y113145D01*
X359973Y113002D01*
X359973Y110405D01*
X349587Y110405D01*
X368566Y102616D02*
X368566Y118195D01*
X380250Y118195D01*
X380372Y118193D01*
X380495Y118187D01*
X380617Y118178D01*
X380738Y118164D01*
X380859Y118147D01*
X380980Y118126D01*
X381100Y118101D01*
X381219Y118073D01*
X381337Y118040D01*
X381454Y118004D01*
X381569Y117965D01*
X381684Y117921D01*
X381797Y117875D01*
X381908Y117824D01*
X382018Y117770D01*
X382126Y117713D01*
X382233Y117653D01*
X382337Y117589D01*
X382439Y117521D01*
X382539Y117451D01*
X382637Y117378D01*
X382733Y117301D01*
X382826Y117222D01*
X382916Y117139D01*
X383004Y117054D01*
X383089Y116966D01*
X383172Y116876D01*
X383251Y116783D01*
X383328Y116687D01*
X383401Y116589D01*
X383471Y116489D01*
X383539Y116387D01*
X383603Y116283D01*
X383663Y116176D01*
X383720Y116068D01*
X383774Y115958D01*
X383825Y115847D01*
X383871Y115734D01*
X383915Y115619D01*
X383954Y115504D01*
X383990Y115387D01*
X384023Y115269D01*
X384051Y115150D01*
X384076Y115030D01*
X384097Y114909D01*
X384114Y114788D01*
X384128Y114667D01*
X384137Y114545D01*
X384143Y114422D01*
X384145Y114300D01*
X384144Y114300D02*
X384144Y102616D01*
X376355Y102616D02*
X376355Y118195D01*
X396632Y102616D02*
X403123Y102616D01*
X396632Y102616D02*
X396510Y102618D01*
X396387Y102624D01*
X396265Y102633D01*
X396144Y102647D01*
X396023Y102664D01*
X395902Y102685D01*
X395782Y102710D01*
X395663Y102738D01*
X395545Y102771D01*
X395428Y102807D01*
X395313Y102846D01*
X395198Y102890D01*
X395085Y102936D01*
X394974Y102987D01*
X394864Y103041D01*
X394756Y103098D01*
X394649Y103158D01*
X394545Y103222D01*
X394443Y103290D01*
X394343Y103360D01*
X394245Y103433D01*
X394149Y103510D01*
X394056Y103589D01*
X393966Y103672D01*
X393878Y103757D01*
X393793Y103845D01*
X393710Y103935D01*
X393631Y104028D01*
X393554Y104124D01*
X393481Y104222D01*
X393411Y104322D01*
X393343Y104424D01*
X393279Y104528D01*
X393219Y104635D01*
X393162Y104743D01*
X393108Y104853D01*
X393057Y104964D01*
X393011Y105077D01*
X392967Y105192D01*
X392928Y105307D01*
X392892Y105424D01*
X392859Y105542D01*
X392831Y105661D01*
X392806Y105781D01*
X392785Y105902D01*
X392768Y106023D01*
X392754Y106144D01*
X392745Y106266D01*
X392739Y106389D01*
X392737Y106511D01*
X392737Y113002D01*
X392739Y113145D01*
X392745Y113288D01*
X392755Y113431D01*
X392769Y113573D01*
X392786Y113715D01*
X392808Y113857D01*
X392833Y113998D01*
X392863Y114138D01*
X392896Y114277D01*
X392933Y114415D01*
X392974Y114552D01*
X393018Y114688D01*
X393067Y114823D01*
X393119Y114956D01*
X393174Y115088D01*
X393234Y115218D01*
X393297Y115347D01*
X393363Y115474D01*
X393433Y115599D01*
X393506Y115721D01*
X393583Y115842D01*
X393663Y115961D01*
X393746Y116077D01*
X393832Y116192D01*
X393921Y116303D01*
X394014Y116413D01*
X394109Y116519D01*
X394208Y116623D01*
X394309Y116724D01*
X394413Y116823D01*
X394519Y116918D01*
X394629Y117011D01*
X394740Y117100D01*
X394855Y117186D01*
X394971Y117269D01*
X395090Y117349D01*
X395211Y117426D01*
X395334Y117499D01*
X395458Y117569D01*
X395585Y117635D01*
X395714Y117698D01*
X395844Y117758D01*
X395976Y117813D01*
X396109Y117865D01*
X396244Y117914D01*
X396380Y117958D01*
X396517Y117999D01*
X396655Y118036D01*
X396794Y118069D01*
X396934Y118099D01*
X397075Y118124D01*
X397217Y118146D01*
X397359Y118163D01*
X397501Y118177D01*
X397644Y118187D01*
X397787Y118193D01*
X397930Y118195D01*
X398073Y118193D01*
X398216Y118187D01*
X398359Y118177D01*
X398501Y118163D01*
X398643Y118146D01*
X398785Y118124D01*
X398926Y118099D01*
X399066Y118069D01*
X399205Y118036D01*
X399343Y117999D01*
X399480Y117958D01*
X399616Y117914D01*
X399751Y117865D01*
X399884Y117813D01*
X400016Y117758D01*
X400146Y117698D01*
X400275Y117635D01*
X400402Y117569D01*
X400527Y117499D01*
X400649Y117426D01*
X400770Y117349D01*
X400889Y117269D01*
X401005Y117186D01*
X401120Y117100D01*
X401231Y117011D01*
X401341Y116918D01*
X401447Y116823D01*
X401551Y116724D01*
X401652Y116623D01*
X401751Y116519D01*
X401846Y116413D01*
X401939Y116303D01*
X402028Y116192D01*
X402114Y116077D01*
X402197Y115961D01*
X402277Y115842D01*
X402354Y115721D01*
X402427Y115599D01*
X402497Y115474D01*
X402563Y115347D01*
X402626Y115218D01*
X402686Y115088D01*
X402741Y114956D01*
X402793Y114823D01*
X402842Y114688D01*
X402886Y114552D01*
X402927Y114415D01*
X402964Y114277D01*
X402997Y114138D01*
X403027Y113998D01*
X403052Y113857D01*
X403074Y113715D01*
X403091Y113573D01*
X403105Y113431D01*
X403115Y113288D01*
X403121Y113145D01*
X403123Y113002D01*
X403123Y110405D01*
X392737Y110405D01*
X411528Y102616D02*
X411528Y118195D01*
X418019Y118195D01*
X418141Y118193D01*
X418264Y118187D01*
X418386Y118178D01*
X418507Y118164D01*
X418628Y118147D01*
X418749Y118126D01*
X418869Y118101D01*
X418988Y118073D01*
X419106Y118040D01*
X419223Y118004D01*
X419338Y117965D01*
X419453Y117921D01*
X419566Y117875D01*
X419677Y117824D01*
X419787Y117770D01*
X419895Y117713D01*
X420002Y117653D01*
X420106Y117589D01*
X420208Y117521D01*
X420308Y117451D01*
X420406Y117378D01*
X420502Y117301D01*
X420595Y117222D01*
X420685Y117139D01*
X420773Y117054D01*
X420858Y116966D01*
X420941Y116876D01*
X421020Y116783D01*
X421097Y116687D01*
X421170Y116589D01*
X421240Y116489D01*
X421308Y116387D01*
X421372Y116283D01*
X421432Y116176D01*
X421489Y116068D01*
X421543Y115958D01*
X421594Y115847D01*
X421640Y115734D01*
X421684Y115619D01*
X421723Y115504D01*
X421759Y115387D01*
X421792Y115269D01*
X421820Y115150D01*
X421845Y115030D01*
X421866Y114909D01*
X421883Y114788D01*
X421897Y114667D01*
X421906Y114545D01*
X421912Y114422D01*
X421914Y114300D01*
X421914Y102616D01*
X428749Y118195D02*
X436538Y118195D01*
X431346Y125984D02*
X431346Y106511D01*
X431345Y106511D02*
X431347Y106389D01*
X431353Y106266D01*
X431362Y106144D01*
X431376Y106023D01*
X431393Y105902D01*
X431414Y105781D01*
X431439Y105661D01*
X431467Y105542D01*
X431500Y105424D01*
X431536Y105307D01*
X431575Y105192D01*
X431619Y105077D01*
X431665Y104964D01*
X431716Y104853D01*
X431770Y104743D01*
X431827Y104635D01*
X431887Y104528D01*
X431951Y104424D01*
X432019Y104322D01*
X432089Y104222D01*
X432162Y104124D01*
X432239Y104028D01*
X432318Y103935D01*
X432401Y103845D01*
X432486Y103757D01*
X432574Y103672D01*
X432664Y103589D01*
X432757Y103510D01*
X432853Y103433D01*
X432951Y103360D01*
X433051Y103290D01*
X433153Y103222D01*
X433257Y103158D01*
X433364Y103098D01*
X433472Y103041D01*
X433582Y102987D01*
X433693Y102936D01*
X433806Y102890D01*
X433921Y102846D01*
X434036Y102807D01*
X434153Y102771D01*
X434271Y102738D01*
X434390Y102710D01*
X434510Y102685D01*
X434631Y102664D01*
X434752Y102647D01*
X434873Y102633D01*
X434995Y102624D01*
X435118Y102618D01*
X435240Y102616D01*
X436538Y102616D01*
X457200Y387350D02*
X457200Y400050D01*
X457200Y387350D02*
X450850Y381000D01*
X438150Y381000D02*
X431800Y387350D01*
X457200Y425450D02*
X450850Y431800D01*
X457200Y425450D02*
X457200Y412750D01*
X450850Y406400D01*
X438150Y406400D02*
X431800Y412750D01*
X431800Y425450D01*
X438150Y431800D01*
X450850Y406400D02*
X457200Y400050D01*
X438150Y406400D02*
X431800Y400050D01*
X431800Y387350D01*
X457200Y463550D02*
X457200Y476250D01*
X457200Y463550D02*
X450850Y457200D01*
X438150Y457200D02*
X431800Y463550D01*
X450850Y457200D02*
X457200Y450850D01*
X457200Y438150D01*
X450850Y431800D01*
X438150Y431800D02*
X431800Y438150D01*
X431800Y450850D01*
X438150Y457200D01*
X457200Y501650D02*
X450850Y508000D01*
X457200Y501650D02*
X457200Y488950D01*
X450850Y482600D01*
X438150Y482600D02*
X431800Y488950D01*
X431800Y501650D01*
X438150Y508000D01*
X450850Y482600D02*
X457200Y476250D01*
X438150Y482600D02*
X431800Y476250D01*
X431800Y463550D01*
X457200Y539750D02*
X457200Y552450D01*
X457200Y539750D02*
X450850Y533400D01*
X438150Y533400D02*
X431800Y539750D01*
X450850Y533400D02*
X457200Y527050D01*
X457200Y514350D01*
X450850Y508000D01*
X438150Y508000D02*
X431800Y514350D01*
X431800Y527050D01*
X438150Y533400D01*
X438150Y558800D02*
X450850Y558800D01*
X457200Y552450D01*
X438150Y558800D02*
X431800Y552450D01*
X431800Y539750D01*
X457200Y374650D02*
X457200Y361950D01*
X450850Y355600D01*
X438150Y355600D02*
X431800Y361950D01*
X450850Y381000D02*
X457200Y374650D01*
X438150Y381000D02*
X431800Y374650D01*
X431800Y361950D01*
X457200Y349250D02*
X457200Y336550D01*
X450850Y330200D01*
X438150Y330200D02*
X431800Y336550D01*
X450850Y355600D02*
X457200Y349250D01*
X438150Y355600D02*
X431800Y349250D01*
X431800Y336550D01*
X438150Y330200D02*
X450850Y330200D01*
D12*
X424759Y552536D02*
X421005Y552536D01*
X424759Y552536D02*
X424824Y552534D01*
X424888Y552528D01*
X424952Y552518D01*
X425016Y552505D01*
X425078Y552487D01*
X425139Y552466D01*
X425199Y552442D01*
X425257Y552413D01*
X425314Y552381D01*
X425368Y552346D01*
X425420Y552308D01*
X425470Y552266D01*
X425517Y552222D01*
X425561Y552175D01*
X425603Y552125D01*
X425641Y552073D01*
X425676Y552019D01*
X425708Y551962D01*
X425737Y551904D01*
X425761Y551844D01*
X425782Y551783D01*
X425800Y551721D01*
X425813Y551657D01*
X425823Y551593D01*
X425829Y551529D01*
X425831Y551464D01*
X425831Y550927D01*
X421005Y556958D02*
X421007Y557026D01*
X421013Y557093D01*
X421022Y557160D01*
X421035Y557227D01*
X421052Y557292D01*
X421073Y557357D01*
X421097Y557420D01*
X421125Y557482D01*
X421156Y557542D01*
X421190Y557600D01*
X421228Y557656D01*
X421268Y557711D01*
X421312Y557762D01*
X421359Y557811D01*
X421408Y557858D01*
X421459Y557902D01*
X421514Y557942D01*
X421570Y557980D01*
X421628Y558014D01*
X421688Y558045D01*
X421750Y558073D01*
X421813Y558097D01*
X421878Y558118D01*
X421943Y558135D01*
X422010Y558148D01*
X422077Y558157D01*
X422144Y558163D01*
X422212Y558165D01*
X421005Y556958D02*
X421007Y556880D01*
X421013Y556802D01*
X421023Y556725D01*
X421036Y556648D01*
X421054Y556572D01*
X421075Y556497D01*
X421100Y556423D01*
X421129Y556351D01*
X421161Y556280D01*
X421197Y556211D01*
X421236Y556143D01*
X421279Y556078D01*
X421325Y556015D01*
X421374Y555954D01*
X421426Y555896D01*
X421481Y555841D01*
X421538Y555788D01*
X421598Y555739D01*
X421661Y555692D01*
X421726Y555649D01*
X421792Y555609D01*
X421861Y555572D01*
X421932Y555539D01*
X422004Y555509D01*
X422078Y555483D01*
X423150Y557763D02*
X423101Y557812D01*
X423049Y557859D01*
X422994Y557902D01*
X422937Y557943D01*
X422878Y557981D01*
X422817Y558015D01*
X422754Y558046D01*
X422690Y558074D01*
X422624Y558098D01*
X422558Y558118D01*
X422490Y558135D01*
X422421Y558148D01*
X422352Y558157D01*
X422282Y558163D01*
X422212Y558165D01*
X423150Y557763D02*
X425831Y555484D01*
X425831Y558165D01*
D11*
X304800Y336550D02*
X304800Y323850D01*
X298450Y317500D01*
X285750Y317500D02*
X279400Y323850D01*
X304800Y361950D02*
X298450Y368300D01*
X304800Y361950D02*
X304800Y349250D01*
X298450Y342900D01*
X285750Y342900D02*
X279400Y349250D01*
X279400Y361950D01*
X285750Y368300D01*
X298450Y342900D02*
X304800Y336550D01*
X285750Y342900D02*
X279400Y336550D01*
X279400Y323850D01*
X304800Y400050D02*
X304800Y412750D01*
X304800Y400050D02*
X298450Y393700D01*
X285750Y393700D02*
X279400Y400050D01*
X298450Y393700D02*
X304800Y387350D01*
X304800Y374650D01*
X298450Y368300D01*
X285750Y368300D02*
X279400Y374650D01*
X279400Y387350D01*
X285750Y393700D01*
X304800Y438150D02*
X298450Y444500D01*
X304800Y438150D02*
X304800Y425450D01*
X298450Y419100D01*
X285750Y419100D02*
X279400Y425450D01*
X279400Y438150D01*
X285750Y444500D01*
X298450Y419100D02*
X304800Y412750D01*
X285750Y419100D02*
X279400Y412750D01*
X279400Y400050D01*
X304800Y476250D02*
X304800Y488950D01*
X304800Y476250D02*
X298450Y469900D01*
X285750Y469900D02*
X279400Y476250D01*
X298450Y469900D02*
X304800Y463550D01*
X304800Y450850D01*
X298450Y444500D01*
X285750Y444500D02*
X279400Y450850D01*
X279400Y463550D01*
X285750Y469900D01*
X285750Y495300D02*
X298450Y495300D01*
X304800Y488950D01*
X285750Y495300D02*
X279400Y488950D01*
X279400Y476250D01*
X304800Y311150D02*
X304800Y298450D01*
X298450Y292100D01*
X285750Y292100D02*
X279400Y298450D01*
X298450Y317500D02*
X304800Y311150D01*
X285750Y317500D02*
X279400Y311150D01*
X279400Y298450D01*
X304800Y285750D02*
X304800Y273050D01*
X298450Y266700D01*
X285750Y266700D02*
X279400Y273050D01*
X298450Y292100D02*
X304800Y285750D01*
X285750Y292100D02*
X279400Y285750D01*
X279400Y273050D01*
X304800Y260350D02*
X304800Y247650D01*
X298450Y241300D01*
X285750Y241300D02*
X279400Y247650D01*
X298450Y266700D02*
X304800Y260350D01*
X285750Y266700D02*
X279400Y260350D01*
X279400Y247650D01*
X304800Y234950D02*
X304800Y222250D01*
X298450Y215900D01*
X285750Y215900D02*
X279400Y222250D01*
X298450Y241300D02*
X304800Y234950D01*
X285750Y241300D02*
X279400Y234950D01*
X279400Y222250D01*
X304800Y209550D02*
X304800Y196850D01*
X298450Y190500D01*
X285750Y190500D01*
X279400Y196850D01*
X298450Y215900D02*
X304800Y209550D01*
X285750Y215900D02*
X279400Y209550D01*
X279400Y196850D01*
D12*
X276423Y484844D02*
X272669Y484844D01*
X276423Y484843D02*
X276488Y484841D01*
X276552Y484835D01*
X276616Y484825D01*
X276680Y484812D01*
X276742Y484794D01*
X276803Y484773D01*
X276863Y484749D01*
X276921Y484720D01*
X276978Y484688D01*
X277032Y484653D01*
X277084Y484615D01*
X277134Y484573D01*
X277181Y484529D01*
X277225Y484482D01*
X277267Y484432D01*
X277305Y484380D01*
X277340Y484326D01*
X277372Y484269D01*
X277401Y484211D01*
X277425Y484151D01*
X277446Y484090D01*
X277464Y484028D01*
X277477Y483964D01*
X277487Y483900D01*
X277493Y483836D01*
X277495Y483771D01*
X277495Y483235D01*
X277495Y487792D02*
X277495Y489132D01*
X277493Y489203D01*
X277487Y489275D01*
X277478Y489345D01*
X277465Y489415D01*
X277448Y489485D01*
X277427Y489553D01*
X277403Y489620D01*
X277375Y489686D01*
X277344Y489750D01*
X277309Y489813D01*
X277271Y489873D01*
X277230Y489932D01*
X277186Y489988D01*
X277139Y490042D01*
X277090Y490093D01*
X277037Y490141D01*
X276982Y490187D01*
X276925Y490229D01*
X276865Y490269D01*
X276804Y490305D01*
X276740Y490338D01*
X276675Y490367D01*
X276609Y490393D01*
X276541Y490416D01*
X276472Y490435D01*
X276402Y490450D01*
X276332Y490461D01*
X276261Y490469D01*
X276190Y490473D01*
X276118Y490473D01*
X276047Y490469D01*
X275976Y490461D01*
X275906Y490450D01*
X275836Y490435D01*
X275767Y490416D01*
X275699Y490393D01*
X275633Y490367D01*
X275568Y490338D01*
X275504Y490305D01*
X275443Y490269D01*
X275383Y490229D01*
X275326Y490187D01*
X275271Y490141D01*
X275218Y490093D01*
X275169Y490042D01*
X275122Y489988D01*
X275078Y489932D01*
X275037Y489873D01*
X274999Y489813D01*
X274964Y489750D01*
X274933Y489686D01*
X274905Y489620D01*
X274881Y489553D01*
X274860Y489485D01*
X274843Y489415D01*
X274830Y489345D01*
X274821Y489275D01*
X274815Y489203D01*
X274813Y489132D01*
X272669Y489400D02*
X272669Y487792D01*
X272669Y489400D02*
X272671Y489465D01*
X272677Y489529D01*
X272687Y489593D01*
X272700Y489657D01*
X272718Y489719D01*
X272739Y489780D01*
X272763Y489840D01*
X272792Y489898D01*
X272824Y489955D01*
X272859Y490009D01*
X272897Y490061D01*
X272939Y490111D01*
X272983Y490158D01*
X273030Y490202D01*
X273080Y490244D01*
X273132Y490282D01*
X273186Y490317D01*
X273243Y490349D01*
X273301Y490378D01*
X273361Y490402D01*
X273422Y490423D01*
X273484Y490441D01*
X273548Y490454D01*
X273612Y490464D01*
X273676Y490470D01*
X273741Y490472D01*
X273806Y490470D01*
X273870Y490464D01*
X273934Y490454D01*
X273998Y490441D01*
X274060Y490423D01*
X274121Y490402D01*
X274181Y490378D01*
X274239Y490349D01*
X274296Y490317D01*
X274350Y490282D01*
X274402Y490244D01*
X274452Y490202D01*
X274499Y490158D01*
X274543Y490111D01*
X274585Y490061D01*
X274623Y490009D01*
X274658Y489955D01*
X274690Y489898D01*
X274719Y489840D01*
X274743Y489780D01*
X274764Y489719D01*
X274782Y489657D01*
X274795Y489593D01*
X274805Y489529D01*
X274811Y489465D01*
X274813Y489400D01*
X274814Y489400D02*
X274814Y488328D01*
D11*
X86360Y648970D02*
X60960Y648970D01*
X86360Y648970D02*
X86360Y496570D01*
X60960Y496570D02*
X60960Y648970D01*
X60960Y496570D02*
X86360Y496570D01*
D12*
X55189Y641436D02*
X51435Y641436D01*
X55189Y641436D02*
X55254Y641434D01*
X55318Y641428D01*
X55382Y641418D01*
X55446Y641405D01*
X55508Y641387D01*
X55569Y641366D01*
X55629Y641342D01*
X55687Y641313D01*
X55744Y641281D01*
X55798Y641246D01*
X55850Y641208D01*
X55900Y641166D01*
X55947Y641122D01*
X55991Y641075D01*
X56033Y641025D01*
X56071Y640973D01*
X56106Y640919D01*
X56138Y640862D01*
X56167Y640804D01*
X56191Y640744D01*
X56212Y640683D01*
X56230Y640621D01*
X56243Y640557D01*
X56253Y640493D01*
X56259Y640429D01*
X56261Y640364D01*
X56261Y639827D01*
X55189Y644384D02*
X51435Y645456D01*
X55189Y644384D02*
X55189Y647065D01*
X54116Y646261D02*
X56261Y646261D01*
D11*
X165100Y469900D02*
X190500Y469900D01*
X165100Y469900D02*
X165100Y622300D01*
X190500Y622300D02*
X190500Y469900D01*
X190500Y622300D02*
X165100Y622300D01*
D12*
X195199Y473414D02*
X198953Y473414D01*
X198953Y473413D02*
X199018Y473411D01*
X199082Y473405D01*
X199146Y473395D01*
X199210Y473382D01*
X199272Y473364D01*
X199333Y473343D01*
X199393Y473319D01*
X199451Y473290D01*
X199508Y473258D01*
X199562Y473223D01*
X199614Y473185D01*
X199664Y473143D01*
X199711Y473099D01*
X199755Y473052D01*
X199797Y473002D01*
X199835Y472950D01*
X199870Y472896D01*
X199902Y472839D01*
X199931Y472781D01*
X199955Y472721D01*
X199976Y472660D01*
X199994Y472598D01*
X200007Y472534D01*
X200017Y472470D01*
X200023Y472406D01*
X200025Y472341D01*
X200025Y471805D01*
X200025Y476362D02*
X200025Y477970D01*
X200023Y478035D01*
X200017Y478099D01*
X200007Y478163D01*
X199994Y478227D01*
X199976Y478289D01*
X199955Y478350D01*
X199931Y478410D01*
X199902Y478468D01*
X199870Y478525D01*
X199835Y478579D01*
X199797Y478631D01*
X199755Y478681D01*
X199711Y478728D01*
X199664Y478772D01*
X199614Y478814D01*
X199562Y478852D01*
X199508Y478887D01*
X199451Y478919D01*
X199393Y478948D01*
X199333Y478972D01*
X199272Y478993D01*
X199210Y479011D01*
X199146Y479024D01*
X199082Y479034D01*
X199018Y479040D01*
X198953Y479042D01*
X198953Y479043D02*
X198416Y479043D01*
X198416Y479042D02*
X198351Y479040D01*
X198287Y479034D01*
X198223Y479024D01*
X198159Y479011D01*
X198097Y478993D01*
X198036Y478972D01*
X197976Y478948D01*
X197918Y478919D01*
X197861Y478887D01*
X197807Y478852D01*
X197755Y478814D01*
X197705Y478772D01*
X197658Y478728D01*
X197614Y478681D01*
X197572Y478631D01*
X197534Y478579D01*
X197499Y478525D01*
X197467Y478468D01*
X197438Y478410D01*
X197414Y478350D01*
X197393Y478289D01*
X197375Y478227D01*
X197362Y478163D01*
X197352Y478099D01*
X197346Y478035D01*
X197344Y477970D01*
X197344Y476362D01*
X195199Y476362D01*
X195199Y479043D01*
D11*
X177800Y304800D02*
X152400Y304800D01*
X152400Y457200D01*
X177800Y457200D02*
X177800Y304800D01*
X177800Y457200D02*
X152400Y457200D01*
D12*
X182499Y308314D02*
X186253Y308314D01*
X186253Y308313D02*
X186318Y308311D01*
X186382Y308305D01*
X186446Y308295D01*
X186510Y308282D01*
X186572Y308264D01*
X186633Y308243D01*
X186693Y308219D01*
X186751Y308190D01*
X186808Y308158D01*
X186862Y308123D01*
X186914Y308085D01*
X186964Y308043D01*
X187011Y307999D01*
X187055Y307952D01*
X187097Y307902D01*
X187135Y307850D01*
X187170Y307796D01*
X187202Y307739D01*
X187231Y307681D01*
X187255Y307621D01*
X187276Y307560D01*
X187294Y307498D01*
X187307Y307434D01*
X187317Y307370D01*
X187323Y307306D01*
X187325Y307241D01*
X187325Y306705D01*
X184644Y311262D02*
X184644Y312870D01*
X184646Y312935D01*
X184652Y312999D01*
X184662Y313063D01*
X184675Y313127D01*
X184693Y313189D01*
X184714Y313250D01*
X184738Y313310D01*
X184767Y313368D01*
X184799Y313425D01*
X184834Y313479D01*
X184872Y313531D01*
X184914Y313581D01*
X184958Y313628D01*
X185005Y313672D01*
X185055Y313714D01*
X185107Y313752D01*
X185161Y313787D01*
X185218Y313819D01*
X185276Y313848D01*
X185336Y313872D01*
X185397Y313893D01*
X185459Y313911D01*
X185523Y313924D01*
X185587Y313934D01*
X185651Y313940D01*
X185716Y313942D01*
X185716Y313943D02*
X185984Y313943D01*
X186055Y313941D01*
X186127Y313935D01*
X186197Y313926D01*
X186267Y313913D01*
X186337Y313896D01*
X186405Y313875D01*
X186472Y313851D01*
X186538Y313823D01*
X186602Y313792D01*
X186665Y313757D01*
X186725Y313719D01*
X186784Y313678D01*
X186840Y313634D01*
X186894Y313587D01*
X186945Y313538D01*
X186993Y313485D01*
X187039Y313430D01*
X187081Y313373D01*
X187121Y313313D01*
X187157Y313252D01*
X187190Y313188D01*
X187219Y313123D01*
X187245Y313057D01*
X187268Y312989D01*
X187287Y312920D01*
X187302Y312850D01*
X187313Y312780D01*
X187321Y312709D01*
X187325Y312638D01*
X187325Y312566D01*
X187321Y312495D01*
X187313Y312424D01*
X187302Y312354D01*
X187287Y312284D01*
X187268Y312215D01*
X187245Y312147D01*
X187219Y312081D01*
X187190Y312016D01*
X187157Y311952D01*
X187121Y311891D01*
X187081Y311831D01*
X187039Y311774D01*
X186993Y311719D01*
X186945Y311666D01*
X186894Y311617D01*
X186840Y311570D01*
X186784Y311526D01*
X186725Y311485D01*
X186665Y311447D01*
X186602Y311412D01*
X186538Y311381D01*
X186472Y311353D01*
X186405Y311329D01*
X186337Y311308D01*
X186267Y311291D01*
X186197Y311278D01*
X186127Y311269D01*
X186055Y311263D01*
X185984Y311261D01*
X185984Y311262D02*
X184644Y311262D01*
X184553Y311264D01*
X184462Y311270D01*
X184372Y311279D01*
X184281Y311293D01*
X184192Y311310D01*
X184104Y311331D01*
X184016Y311356D01*
X183929Y311385D01*
X183844Y311417D01*
X183760Y311452D01*
X183678Y311492D01*
X183598Y311534D01*
X183519Y311580D01*
X183443Y311630D01*
X183369Y311682D01*
X183296Y311738D01*
X183227Y311797D01*
X183160Y311858D01*
X183095Y311923D01*
X183034Y311990D01*
X182975Y312059D01*
X182919Y312131D01*
X182867Y312206D01*
X182817Y312282D01*
X182771Y312361D01*
X182729Y312441D01*
X182689Y312523D01*
X182654Y312607D01*
X182622Y312692D01*
X182593Y312779D01*
X182568Y312866D01*
X182547Y312955D01*
X182530Y313044D01*
X182516Y313134D01*
X182507Y313225D01*
X182501Y313316D01*
X182499Y313407D01*
D11*
X311900Y651600D02*
X423900Y651600D01*
X423900Y586600D01*
X423900Y576600D01*
X311900Y576600D01*
X311900Y586600D01*
X311900Y651600D01*
X311900Y586600D02*
X423900Y586600D01*
D12*
X294344Y611307D02*
X294344Y615061D01*
X294343Y611307D02*
X294341Y611242D01*
X294335Y611178D01*
X294325Y611114D01*
X294312Y611050D01*
X294294Y610988D01*
X294273Y610927D01*
X294249Y610867D01*
X294220Y610809D01*
X294188Y610752D01*
X294153Y610698D01*
X294115Y610646D01*
X294073Y610596D01*
X294029Y610549D01*
X293982Y610505D01*
X293932Y610463D01*
X293880Y610425D01*
X293826Y610390D01*
X293769Y610358D01*
X293711Y610329D01*
X293651Y610305D01*
X293590Y610284D01*
X293528Y610266D01*
X293464Y610253D01*
X293400Y610243D01*
X293336Y610237D01*
X293271Y610235D01*
X292735Y610235D01*
X297292Y613989D02*
X298632Y615061D01*
X298632Y610235D01*
X297292Y610235D02*
X299973Y610235D01*
M02*
